<?xml version="1.0" standalone="no"?>
<!DOCTYPE svg PUBLIC "-//W3C//DTD SVG 20010904//EN"
 "http://www.w3.org/TR/2001/REC-SVG-20010904/DTD/svg10.dtd">
<svg version="1.0" xmlns="http://www.w3.org/2000/svg"
 width="650.000000pt" height="489.000000pt" viewBox="0 0 650.000000 489.000000"
 preserveAspectRatio="xMidYMid meet">

<g transform="translate(0.000000,489.000000) scale(0.100000,-0.100000)"
fill="#000000" stroke="none">
<path d="M743 4457 l-213 -122 0 -137 0 -137 -60 -36 c-56 -34 -60 -39 -60
-74 0 -42 11 -55 78 -91 l42 -24 0 -157 0 -157 174 -101 174 -101 214 123 213
123 2 410 3 409 -166 95 c-91 52 -171 96 -177 97 -7 2 -108 -52 -224 -120z
m55 -311 c28 -16 50 -31 48 -34 -5 -5 -116 57 -116 65 0 6 4 4 68 -31z m-208
-6 c0 -5 -2 -10 -4 -10 -3 0 -8 5 -11 10 -3 6 -1 10 4 10 6 0 11 -4 11 -10z
m207 -105 c32 -19 54 -35 48 -35 -15 0 -132 69 -118 70 7 0 38 -16 70 -35z
m-97 -228 c0 -9 -88 39 -110 61 -8 8 13 -1 47 -19 35 -19 63 -38 63 -42z m-92
-53 c20 -11 39 -21 42 -24 7 -7 49 -30 54 -30 3 0 7 8 9 18 3 10 5 6 6 -10 0
-16 -2 -28 -5 -28 -4 0 -40 19 -80 42 -63 36 -74 46 -73 67 2 22 2 23 6 5 2
-12 20 -30 41 -40z m237 18 c-3 -3 -11 0 -18 7 -9 10 -8 11 6 5 10 -3 15 -9
12 -12z m-170 -32 c3 -5 1 -10 -4 -10 -6 0 -11 5 -11 10 0 6 2 10 4 10 3 0 8
-4 11 -10z m-26 -65 c65 -37 71 -43 71 -72 0 -18 -4 -33 -9 -33 -4 0 -40 19
-80 41 -66 39 -71 44 -71 76 0 40 -4 40 89 -12z m-9 -106 c76 -44 83 -53 78
-93 l-3 -25 -77 45 c-74 42 -78 47 -78 79 0 19 2 35 4 35 2 0 37 -19 76 -41z"/>
<path d="M570 3677 c0 -8 17 -22 38 -33 20 -10 40 -23 44 -29 4 -5 8 -1 8 11
0 13 -13 28 -39 42 -45 26 -51 27 -51 9z"/>
<path d="M674 3614 c3 -9 6 -18 6 -20 0 -2 7 -4 15 -4 20 0 19 26 -1 34 -24 9
-27 8 -20 -10z"/>
<path d="M570 3564 c0 -12 51 -46 66 -43 4 0 11 -5 15 -13 6 -9 9 -7 9 9 0 16
-8 25 -25 29 -14 3 -25 10 -25 14 0 4 -9 10 -20 13 -13 3 -20 0 -20 -9z"/>
<path d="M674 3504 c3 -9 6 -18 6 -20 0 -2 7 -4 15 -4 20 0 19 26 -1 34 -24 9
-27 8 -20 -10z"/>
<path d="M3756 4356 c-164 -96 -302 -180 -307 -187 -5 -8 -9 -111 -9 -230 l0
-217 27 -17 c26 -17 28 -17 92 16 36 18 69 35 73 37 4 2 4 -13 1 -32 -5 -31
-2 -37 20 -47 23 -10 37 -4 154 63 l128 75 -2 59 -2 59 46 28 c26 16 54 27 63
24 8 -2 84 -47 167 -100 l152 -96 91 52 90 51 0 197 0 196 -177 113 c-159 100
-181 111 -204 103 -20 -8 -30 -6 -48 9 -13 10 -31 18 -40 17 -9 0 -150 -78
-315 -173z m354 -73 c0 -104 -4 -193 -8 -199 -8 -13 -77 -55 -370 -224 -117
-67 -215 -120 -217 -118 -9 8 -15 355 -7 377 5 15 98 74 292 186 157 90 291
165 298 165 9 0 12 -44 12 -187z"/>
<path d="M5348 4212 l-338 -196 0 -93 0 -92 96 -56 c53 -31 160 -94 239 -140
l142 -82 74 42 c41 23 133 76 204 118 72 42 186 108 253 147 117 68 123 73
100 84 -18 9 -24 9 -26 -1 -2 -7 -22 -24 -45 -37 -23 -13 -124 -72 -225 -130
-101 -58 -188 -106 -193 -106 -6 0 -9 23 -7 52 l3 52 228 133 c126 73 230 133
232 133 2 0 6 -8 8 -17 3 -10 4 22 4 72 l-2 89 -194 113 c-107 62 -199 113
-205 112 -6 -1 -163 -89 -348 -197z m478 9 c93 -54 168 -102 168 -107 -1 -7
-407 -247 -441 -261 -10 -4 -332 173 -356 196 -5 5 74 57 175 116 262 155 262
155 274 155 5 0 86 -45 180 -99z m-216 -475 c0 -9 -71 -48 -77 -43 -3 3 10 15
28 26 33 20 49 26 49 17z m-8 -88 c-7 -7 -12 -8 -12 -2 0 14 12 26 19 19 2 -3
-1 -11 -7 -17z m-47 -18 c3 -5 -1 -10 -10 -10 -9 0 -13 5 -10 10 3 6 8 10 10
10 2 0 7 -4 10 -10z"/>
<path d="M5521 4213 l-113 -67 22 -18 c32 -26 70 -33 94 -18 12 8 61 37 111
66 49 28 90 56 92 60 4 11 -53 44 -75 44 -9 -1 -68 -31 -131 -67z m155 36 c9
-16 -18 -30 -33 -17 -7 6 -10 14 -7 19 7 13 31 11 40 -2z m-58 -41 c-3 -7 -11
-13 -18 -13 -7 0 -15 6 -17 13 -3 7 4 12 17 12 13 0 20 -5 18 -12z m-55 -33
c-4 -15 -36 -12 -41 3 -3 9 3 13 19 10 13 -1 23 -7 22 -13z m-53 -30 c0 -8 -9
-15 -20 -15 -11 0 -20 7 -20 15 0 8 9 15 20 15 11 0 20 -7 20 -15z"/>
<path d="M6032 3990 c-26 -16 -33 -26 -30 -47 4 -34 19 -39 47 -16 17 14 22
27 19 51 l-3 32 -33 -20z"/>
<path d="M5943 3939 c-25 -16 -33 -28 -33 -50 0 -22 5 -29 20 -29 25 0 52 41
48 74 l-3 25 -32 -20z"/>
<path d="M5849 3885 c-30 -16 -43 -59 -23 -76 18 -15 64 32 64 66 0 29 -5 30
-41 10z"/>
<path d="M2961 3871 c13 -11 26 -17 28 -15 5 5 -30 33 -43 34 -4 0 2 -9 15
-19z"/>
<path d="M3000 3880 c0 -5 5 -10 11 -10 5 0 7 5 4 10 -3 6 -8 10 -11 10 -2 0
-4 -4 -4 -10z"/>
<path d="M2921 3867 c2 -2 20 -14 39 -26 l35 -23 -30 26 c-16 14 -34 26 -39
26 -5 0 -7 -1 -5 -3z"/>
<path d="M2910 3841 c35 -30 60 -44 60 -33 0 6 -8 12 -17 15 -10 4 -29 14 -43
23 l-25 16 25 -21z"/>
<path d="M3005 3840 c3 -5 8 -10 11 -10 2 0 4 5 4 10 0 6 -5 10 -11 10 -5 0
-7 -4 -4 -10z"/>
<path d="M5752 3828 c-35 -22 -44 -64 -15 -75 31 -12 83 73 55 91 -4 2 -22 -5
-40 -16z"/>
<path d="M2882 3824 c10 -10 20 -15 24 -12 3 4 -5 12 -18 18 -22 12 -22 12 -6
-6z"/>
<path d="M2844 3821 c10 -16 66 -53 66 -44 0 4 -16 18 -36 31 -20 13 -33 19
-30 13z"/>
<path d="M4115 3773 c-44 -25 -154 -88 -245 -140 -91 -52 -167 -97 -170 -100
-3 -2 4 -9 14 -15 14 -8 15 -12 5 -18 -8 -5 -17 -3 -24 6 -10 14 -45 10 -45
-5 0 -3 26 -19 58 -36 31 -16 59 -32 62 -35 3 -3 19 -13 35 -22 l31 -16 169
98 c94 54 185 106 203 116 18 9 35 20 37 24 5 7 -81 70 -94 70 -3 0 -13 -5
-21 -10 -12 -7 -12 -12 -2 -22 20 -20 14 -30 -7 -10 -18 17 -18 17 0 34 19 16
19 17 2 27 -10 5 -14 13 -10 17 4 5 16 3 25 -2 9 -6 27 -17 39 -24 19 -12 27
-11 68 10 25 13 48 27 51 31 2 4 -13 16 -33 26 -21 9 -44 23 -51 30 -7 7 -14
13 -15 13 -1 0 -38 -21 -82 -47z"/>
<path d="M2849 3781 c13 -12 28 -21 35 -21 12 0 -5 14 -39 31 -16 8 -15 6 4
-10z"/>
<path d="M5658 3774 c-35 -18 -41 -74 -9 -74 24 0 51 36 51 67 0 27 -5 28 -42
7z"/>
<path d="M2747 3754 c-18 -10 -27 -23 -27 -39 0 -37 20 -42 47 -11 39 46 28
75 -20 50z"/>
<path d="M2836 3756 c10 -8 21 -12 24 -10 5 6 -21 24 -34 24 -6 0 -1 -6 10
-14z"/>
<path d="M2646 3697 c-28 -23 -33 -56 -9 -64 18 -6 53 34 53 62 0 31 -7 31
-44 2z"/>
<path d="M4255 3710 c-3 -5 1 -10 7 -13 10 -3 10 -7 -1 -20 -26 -32 15 -31 71
2 29 17 51 31 48 32 -20 6 -121 5 -125 -1z"/>
<path d="M2557 3653 c-11 -10 -8 -33 4 -33 5 0 7 5 3 11 -3 6 0 15 7 20 8 5 9
9 3 9 -6 0 -14 -3 -17 -7z"/>
<path d="M2473 3629 c-31 -20 -33 -24 -33 -80 l0 -59 40 20 c40 20 40 21 40
80 0 33 -3 60 -7 60 -5 0 -23 -10 -40 -21z m7 -93 c-7 -7 -13 -7 -20 0 -6 6
-3 10 10 10 13 0 16 -4 10 -10z"/>
<path d="M2560 3590 c-13 -8 -12 -10 3 -10 9 0 17 5 17 10 0 12 -1 12 -20 0z"/>
<path d="M4085 3066 c-88 -52 -268 -156 -400 -232 l-240 -139 -3 -303 c-2
-252 0 -303 12 -308 7 -3 76 31 153 75 77 45 144 81 151 81 6 0 81 -41 168
-91 95 -55 162 -88 172 -84 9 3 125 69 259 147 l243 142 -2 303 -3 304 -173
100 c-95 54 -174 99 -175 99 -1 0 -74 -43 -162 -94z m-225 -356 l0 -50 -40 20
c-39 20 -40 22 -40 70 l0 50 40 -20 c39 -20 40 -22 40 -70z m-132 -42 l-3 -92
-70 -41 c-38 -23 -91 -53 -117 -68 l-48 -28 0 95 0 94 113 66 c61 36 116 66
120 66 4 0 6 -41 5 -92z m203 45 c43 -26 35 -33 -11 -11 -22 11 -40 22 -40 24
0 9 24 3 51 -13z m-106 -80 c33 -16 35 -20 35 -65 0 -26 -3 -48 -7 -48 -5 0
-23 9 -40 20 -29 18 -33 25 -33 65 0 25 2 45 5 45 2 0 20 -8 40 -17z m95 -63
c15 -11 30 -17 34 -13 3 3 6 1 6 -5 0 -7 -3 -12 -6 -12 -9 0 -74 41 -74 46 0
8 13 3 40 -16z m-192 -152 l-3 -92 -115 -66 -115 -67 -3 90 c-1 50 1 94 5 98
12 12 217 129 226 129 4 0 6 -41 5 -92z m96 71 c34 -20 36 -24 36 -70 l0 -49
-40 20 c-39 20 -40 22 -40 70 0 28 2 50 4 50 3 0 21 -9 40 -21z m136 -91 c0
-3 -18 3 -40 13 -23 11 -38 24 -35 29 6 10 75 -29 75 -42z m-129 -55 c26 -15
29 -23 29 -65 0 -26 -2 -48 -4 -48 -3 0 -21 9 -40 21 -33 19 -36 25 -36 65 0
49 7 53 51 27z m74 -53 c4 -6 9 -8 13 -6 11 7 46 -23 37 -31 -4 -5 -10 -2 -12
5 -3 6 -8 10 -12 8 -3 -3 -18 4 -31 15 -14 10 -20 19 -13 19 6 0 15 -5 18 -10z"/>
<path d="M2514 3038 c-72 -38 -449 -260 -459 -269 -5 -6 -12 -67 -15 -137 l-5
-126 -102 -59 c-97 -56 -103 -61 -103 -92 0 -32 4 -35 318 -218 174 -101 327
-187 339 -191 13 -4 35 0 55 10 62 31 533 307 550 321 19 17 17 61 -3 74 -8 5
-116 68 -241 141 l-228 132 -2 200 -3 200 -31 18 c-29 17 -31 17 -70 -4z m79
-145 c13 -184 9 -289 -10 -311 -18 -20 -447 -272 -464 -272 -6 0 -8 84 -7 206
l3 206 230 134 c127 74 233 134 236 134 3 0 9 -44 12 -97z m52 -393 c4 -6 22
-17 41 -25 19 -8 34 -19 34 -24 0 -6 8 -11 19 -11 21 0 44 -23 34 -34 -4 -4 0
-4 9 -1 9 4 26 1 38 -5 17 -9 19 -14 9 -26 -6 -8 -20 -14 -30 -14 -11 0 -19
-5 -19 -10 0 -6 -12 -16 -27 -22 -16 -7 -36 -18 -45 -26 -10 -8 -26 -12 -37
-9 -14 3 -18 1 -14 -9 3 -8 -6 -18 -24 -26 -15 -7 -34 -18 -41 -25 -7 -7 -22
-13 -32 -13 -10 0 -20 -7 -24 -15 -3 -8 -16 -15 -28 -15 -13 0 -29 -9 -36 -20
-7 -11 -19 -20 -27 -20 -8 0 -24 9 -35 20 -11 11 -23 20 -27 20 -19 0 -43 12
-43 21 0 5 -8 9 -19 9 -10 0 -24 6 -30 14 -17 20 -48 26 -48 9 0 -8 6 -12 14
-9 7 3 22 -3 32 -13 10 -10 30 -21 45 -25 14 -3 26 -11 26 -16 0 -6 8 -10 18
-10 18 0 42 -18 42 -32 0 -4 -9 -12 -20 -18 -22 -12 -63 7 -56 26 3 7 -5 9
-19 6 -16 -3 -28 2 -36 16 -7 11 -18 18 -25 15 -7 -2 -22 5 -33 16 -12 12 -27
21 -35 21 -7 0 -19 6 -25 14 -10 12 -8 17 9 26 12 6 29 9 38 5 9 -3 13 -3 9 1
-12 12 14 34 40 34 14 0 22 4 18 10 -4 6 9 17 29 25 19 8 37 19 41 25 3 5 13
10 21 10 8 0 23 9 34 20 25 25 35 25 58 2 24 -24 63 -35 55 -16 -3 8 -13 14
-22 14 -9 0 -22 5 -29 12 -15 15 3 38 29 38 11 0 19 5 19 11 0 5 15 16 34 24
19 8 37 19 41 25 3 5 15 10 25 10 10 0 22 -5 25 -10z m128 -245 c20 -10 37
-21 37 -24 0 -8 -159 -101 -171 -101 -15 0 -70 37 -69 46 1 9 151 103 160 100
3 -1 22 -10 43 -21z"/>
<path d="M2600 2450 c0 -5 9 -10 20 -10 11 0 20 5 20 10 0 6 -9 10 -20 10 -11
0 -20 -4 -20 -10z"/>
<path d="M2540 2420 c0 -5 9 -10 20 -10 11 0 20 5 20 10 0 6 -9 10 -20 10 -11
0 -20 -4 -20 -10z"/>
<path d="M2665 2420 c-3 -5 3 -10 14 -10 12 0 21 5 21 10 0 6 -6 10 -14 10 -8
0 -18 -4 -21 -10z"/>
<path d="M2600 2382 c0 -4 9 -8 20 -9 11 -1 20 2 20 8 0 5 -9 9 -20 9 -11 0
-20 -4 -20 -8z"/>
<path d="M2720 2382 c0 -5 7 -9 15 -9 8 0 15 4 15 9 0 4 -7 8 -15 8 -8 0 -15
-4 -15 -8z"/>
<path d="M2440 2350 c-13 -8 -12 -10 3 -10 9 0 17 5 17 10 0 12 -1 12 -20 0z"/>
<path d="M2540 2350 c0 -5 9 -10 19 -10 11 0 26 -8 33 -17 17 -23 48 -29 48
-9 0 9 -6 13 -14 10 -8 -3 -24 4 -35 15 -22 22 -51 28 -51 11z"/>
<path d="M2660 2350 c0 -5 9 -10 20 -10 11 0 20 5 20 10 0 6 -9 10 -20 10 -11
0 -20 -4 -20 -10z"/>
<path d="M2370 2312 c0 -5 7 -9 15 -9 8 0 15 4 15 9 0 4 -7 8 -15 8 -8 0 -15
-4 -15 -8z"/>
<path d="M2480 2310 c0 -13 11 -13 30 0 12 8 11 10 -7 10 -13 0 -23 -4 -23
-10z"/>
<path d="M2310 2280 c0 -5 7 -10 15 -10 8 0 15 5 15 10 0 6 -7 10 -15 10 -8 0
-15 -4 -15 -10z"/>
<path d="M2425 2280 c3 -5 13 -10 21 -10 8 0 14 5 14 10 0 6 -9 10 -21 10 -11
0 -17 -4 -14 -10z"/>
<path d="M2540 2278 c0 -4 7 -8 15 -8 8 0 15 4 15 8 0 5 -7 9 -15 9 -8 0 -15
-4 -15 -9z"/>
<path d="M2498 2253 c-10 -2 -18 -8 -18 -13 0 -4 9 -6 20 -3 11 3 20 9 20 14
0 5 -1 8 -2 8 -2 -1 -11 -3 -20 -6z"/>
<path d="M2378 2243 c7 -3 16 -2 19 1 4 3 -2 6 -13 5 -11 0 -14 -3 -6 -6z"/>
<path d="M2420 2210 c0 -5 9 -10 20 -10 11 0 20 5 20 10 0 6 -9 10 -20 10 -11
0 -20 -4 -20 -10z"/>
<path d="M947 3010 c-20 -5 -56 -20 -80 -32 -30 -16 -61 -22 -112 -23 -63 -1
-77 -5 -135 -40 -36 -22 -68 -44 -72 -50 -4 -5 -8 -28 -8 -50 0 -40 2 -42 66
-80 37 -21 72 -38 78 -38 7 0 44 19 84 42 l72 42 0 49 c0 27 4 51 9 54 4 3 11
18 14 34 7 33 30 46 114 62 97 19 208 -10 252 -66 25 -32 26 -62 3 -91 -25
-32 -192 -125 -229 -128 -18 -2 -49 -13 -68 -25 -27 -17 -35 -28 -35 -51 0
-23 7 -32 40 -49 33 -17 44 -18 63 -9 43 22 57 42 57 78 0 35 3 38 84 84 103
58 136 94 136 147 0 50 -34 91 -101 120 -59 25 -173 35 -232 20z m-297 -251
c0 -16 -4 -28 -9 -25 -8 5 -3 56 5 56 2 0 4 -14 4 -31z m300 -149 c16 -13 20
-20 10 -19 -16 0 -50 22 -50 33 0 11 14 6 40 -14z"/>
<path d="M5968 2978 c-36 -21 -38 -25 -38 -70 0 -26 3 -48 6 -48 4 0 24 10 45
22 37 20 39 24 39 70 0 26 -3 48 -7 48 -5 0 -25 -10 -45 -22z m32 -49 c0 -16
-2 -29 -4 -29 -2 0 -11 -3 -20 -6 -12 -5 -16 1 -16 23 0 30 17 56 32 47 4 -3
8 -18 8 -35z"/>
<path d="M5858 2914 c-36 -23 -38 -28 -38 -74 l0 -51 40 23 c39 22 40 25 40
76 0 28 -1 52 -2 51 -2 0 -20 -11 -40 -25z m22 -48 c0 -22 -6 -36 -16 -40 -23
-9 -28 -1 -14 24 8 15 8 20 1 16 -15 -10 -14 7 1 22 20 20 28 14 28 -22z"/>
<path d="M5738 2846 c-36 -20 -38 -23 -38 -74 l0 -53 43 25 c37 23 42 30 45
67 2 23 0 45 -5 49 -4 3 -25 -3 -45 -14z m22 -45 c0 -17 -4 -32 -9 -35 -11 -7
-24 41 -16 54 12 20 25 9 25 -19z"/>
<path d="M5967 2845 c-33 -23 -37 -30 -37 -70 0 -25 3 -45 6 -45 4 0 24 10 45
22 37 20 39 24 39 70 0 26 -3 48 -8 48 -4 0 -24 -11 -45 -25z m33 -33 c0 -27
-15 -52 -32 -52 -13 0 -9 55 4 68 19 19 28 14 28 -16z"/>
<path d="M5538 2764 l-78 -45 0 -199 c0 -110 2 -200 5 -200 3 0 41 21 85 46
l80 47 0 198 c0 110 -3 199 -7 199 -5 0 -43 -21 -85 -46z m76 -19 c-4 -8 -10
-12 -15 -9 -11 6 -2 24 11 24 5 0 7 -7 4 -15z m-44 -15 c0 -9 -79 -60 -93 -60
-20 0 -2 22 36 44 46 28 57 31 57 16z m44 -41 c-3 -5 -10 -7 -15 -3 -5 3 -7
10 -3 15 3 5 10 7 15 3 5 -3 7 -10 3 -15z m-44 -11 c0 -7 -23 -25 -50 -39 -63
-34 -69 -13 -7 25 48 29 57 31 57 14z m41 -41 c-13 -13 -26 -3 -16 12 3 6 11
8 17 5 6 -4 6 -10 -1 -17z m-41 -9 c0 -7 -23 -26 -50 -41 -62 -35 -69 -14 -7
25 48 30 57 33 57 16z m45 -39 c-10 -15 -25 -10 -19 6 4 8 10 12 15 9 5 -3 7
-10 4 -15z m-45 -13 c0 -8 -21 -26 -46 -40 -53 -29 -54 -30 -54 -16 0 8 85 69
98 70 1 0 2 -6 2 -14z m50 -34 c0 -13 -12 -22 -22 -16 -10 6 -1 24 13 24 5 0
9 -4 9 -8z m-50 -16 c0 -12 -77 -66 -94 -66 -19 0 0 22 42 48 56 37 52 35 52
18z m41 -49 c-13 -13 -26 -3 -16 12 3 6 11 8 17 5 6 -4 6 -10 -1 -17z m-41
-10 c0 -11 -78 -57 -95 -57 -17 0 2 22 38 44 48 29 57 31 57 13z m50 -26 c0
-6 -4 -13 -10 -16 -5 -3 -10 1 -10 9 0 9 5 16 10 16 6 0 10 -4 10 -9z m-30
-20 c0 -6 -4 -13 -10 -16 -5 -3 -10 1 -10 9 0 9 5 16 10 16 6 0 10 -4 10 -9z
m-36 -26 c-4 -8 -10 -13 -14 -10 -5 3 -11 1 -15 -5 -3 -5 -12 -10 -18 -10 -7
0 -1 9 13 20 30 24 41 25 34 5z m-68 -42 c-10 -10 -19 5 -10 18 6 11 8 11 12
0 2 -7 1 -15 -2 -18z"/>
<path d="M5853 2780 c-30 -18 -33 -24 -33 -70 l0 -51 40 22 c38 22 40 25 40
71 0 26 -3 48 -7 48 -5 0 -23 -9 -40 -20z m30 -32 c6 -22 -16 -58 -35 -58 -12
0 -10 54 4 68 17 17 25 15 31 -10z"/>
<path d="M5338 2473 c1 -170 4 -313 7 -320 2 -7 18 -19 34 -28 l31 -16 0 322
c0 177 -3 320 -6 316 -4 -3 -13 1 -21 9 -8 8 -19 12 -24 9 -5 -4 -9 -1 -9 4 0
6 -3 11 -7 11 -5 0 -7 -138 -5 -307z"/>
<path d="M5738 2714 c-36 -23 -38 -27 -38 -75 l0 -51 43 25 c38 22 42 29 45
67 2 24 0 46 -5 50 -4 5 -25 -3 -45 -16z m32 -55 c0 -9 -20 -23 -37 -25 -16
-3 -17 21 -2 48 11 21 12 21 25 3 8 -10 14 -22 14 -26z"/>
<path d="M5967 2715 c-33 -23 -37 -30 -37 -70 0 -25 2 -45 5 -45 3 0 24 9 45
20 39 20 40 22 40 70 0 28 -3 50 -8 50 -4 0 -24 -11 -45 -25z m33 -38 c0 -23
-17 -47 -32 -47 -10 0 -11 54 -1 63 14 15 33 6 33 -16z"/>
<path d="M5853 2649 c-30 -19 -33 -26 -33 -70 l0 -49 40 20 c39 20 40 22 40
70 0 28 -3 50 -7 50 -5 0 -23 -10 -40 -21z m25 -51 c-4 -44 -38 -53 -38 -10 0
32 7 42 27 42 10 0 13 -10 11 -32z"/>
<path d="M5973 2584 c-40 -24 -43 -29 -43 -69 0 -24 3 -46 8 -48 4 -3 24 6 45
19 35 23 37 27 37 74 0 28 -1 50 -2 50 -2 -1 -22 -12 -45 -26z m34 -46 c-2
-24 -32 -43 -43 -27 -9 16 16 58 32 52 7 -2 12 -14 11 -25z"/>
<path d="M5733 2580 c-30 -18 -33 -24 -33 -70 l0 -51 29 16 c47 24 61 44 61
86 0 45 -10 48 -57 19z m27 -24 c0 -8 -5 -27 -11 -43 l-12 -28 -8 29 c-5 19
-4 35 3 43 14 17 28 17 28 -1z"/>
<path d="M610 2536 c-98 -22 -156 -66 -166 -127 -9 -53 27 -95 129 -154 76
-44 87 -53 87 -78 0 -16 5 -37 10 -48 14 -26 68 -52 94 -45 12 3 32 -1 44 -10
20 -13 21 -13 16 1 -3 8 -9 15 -13 15 -3 0 -17 10 -31 21 -17 15 -19 19 -7 15
11 -4 16 -2 12 5 -4 6 2 13 14 16 12 3 21 11 21 18 0 18 -65 55 -96 55 -56 0
-254 133 -254 171 0 29 34 69 77 90 104 51 304 30 311 -33 2 -15 10 -32 18
-38 8 -8 14 -31 14 -59 l0 -46 75 -43 75 -44 67 39 68 39 0 53 0 54 -85 44
c-76 40 -89 44 -120 35 -29 -7 -45 -4 -90 16 -62 28 -152 52 -190 51 -14 0
-50 -6 -80 -13z m481 -256 c6 0 7 -4 4 -10 -13 -21 -25 -9 -24 23 1 23 3 26 6
10 2 -13 9 -23 14 -23z"/>
<path d="M5858 2517 c-35 -20 -38 -25 -38 -69 0 -27 3 -48 8 -48 4 0 22 9 40
20 29 18 32 24 32 70 0 27 -1 50 -2 50 -2 -1 -20 -11 -40 -23z m18 -73 c-3 -8
-12 -14 -21 -14 -22 0 -20 56 3 69 14 8 18 5 20 -15 2 -14 1 -32 -2 -40z"/>
<path d="M5738 2448 c-36 -21 -38 -25 -38 -70 0 -26 4 -48 9 -48 4 0 23 10 42
23 30 20 34 29 37 70 2 26 -1 47 -5 47 -4 0 -25 -10 -45 -22z m32 -26 c0 -21
-27 -62 -41 -62 -12 0 -12 36 1 61 13 24 40 25 40 1z"/>
<path d="M5538 2225 c-76 -45 -95 -61 -84 -72 8 -9 176 90 176 105 0 18 -9 15
-92 -33z"/>
<path d="M745 1615 l-300 -173 -5 -428 c-3 -236 -4 -433 -2 -439 3 -11 281
-171 291 -168 4 1 140 78 302 172 l296 171 6 157 c4 87 7 282 7 434 l0 277
-142 82 c-79 46 -145 84 -148 85 -3 2 -140 -75 -305 -170z m-37 -385 c3 -19 0
-22 -17 -17 -12 3 -19 1 -15 -4 3 -5 1 -9 -4 -9 -14 0 -52 58 -52 81 0 21 0
21 43 -4 26 -15 43 -34 45 -47z m0 -108 c4 -24 -32 -36 -52 -17 -7 8 -17 11
-21 7 -5 -4 -5 -2 -1 5 3 6 2 14 -4 18 -5 3 -10 18 -10 32 l0 25 43 -25 c23
-14 43 -34 45 -45z m0 -112 c3 -19 0 -22 -17 -17 -12 3 -19 1 -15 -4 3 -5 1
-9 -4 -9 -14 0 -52 58 -52 81 0 21 0 21 43 -4 26 -15 43 -34 45 -47z m0 -108
c4 -24 -32 -36 -52 -17 -7 8 -17 11 -21 7 -5 -4 -5 -2 -1 5 3 6 2 14 -4 18 -5
3 -10 18 -10 32 l0 25 43 -25 c23 -14 43 -34 45 -45z m-151 -4 c48 -28 90 -53
92 -55 8 -6 10 -63 3 -67 -4 -2 -47 19 -97 48 -86 49 -90 54 -93 89 -2 20 -1
37 1 37 3 0 45 -23 94 -52z m-5 -110 c96 -54 107 -64 106 -99 -1 -16 -3 -29
-6 -29 -3 0 -47 24 -99 53 -88 49 -93 54 -93 85 0 17 4 32 9 32 5 0 42 -19 83
-42z m11 -115 c45 -25 84 -48 86 -50 8 -6 9 -63 2 -67 -4 -3 -47 19 -97 47
-80 47 -89 56 -92 85 -2 19 1 32 8 32 6 0 48 -21 93 -47z"/>
<path d="M482 903 c2 -10 22 -28 46 -41 39 -22 42 -22 42 -5 -1 11 -18 26 -46
40 -41 21 -45 21 -42 6z"/>
<path d="M580 846 c0 -8 5 -18 10 -21 6 -3 10 3 10 14 0 12 -4 21 -10 21 -5 0
-10 -6 -10 -14z"/>
<path d="M610 831 c0 -12 5 -21 10 -21 6 0 10 6 10 14 0 8 -4 18 -10 21 -5 3
-10 -3 -10 -14z"/>
<path d="M480 787 c0 -8 17 -22 38 -33 20 -10 40 -23 44 -29 4 -5 8 -1 8 11 0
13 -13 28 -39 42 -45 26 -51 27 -51 9z"/>
<path d="M580 736 c0 -8 5 -18 10 -21 6 -3 10 1 10 9 0 8 -4 18 -10 21 -5 3
-10 -1 -10 -9z"/>
<path d="M610 716 c0 -8 5 -18 10 -21 6 -3 10 1 10 9 0 8 -4 18 -10 21 -5 3
-10 -1 -10 -9z"/>
<path d="M480 683 c0 -7 15 -22 33 -33 17 -10 38 -24 45 -30 9 -8 12 -5 12 12
-1 17 -12 28 -45 44 -35 16 -45 18 -45 7z"/>
<path d="M580 626 c0 -8 5 -18 10 -21 6 -3 10 1 10 9 0 8 -4 18 -10 21 -5 3
-10 -1 -10 -9z"/>
<path d="M610 606 c0 -8 5 -18 10 -21 6 -3 10 1 10 9 0 8 -4 18 -10 21 -5 3
-10 -1 -10 -9z"/>
<path d="M2755 1644 c-82 -48 -214 -124 -291 -170 -78 -46 -158 -91 -178 -101
-28 -13 -39 -26 -48 -56 -8 -26 -24 -47 -47 -63 -43 -29 -55 -30 -72 -4 -14
20 -14 20 -54 -7 l-41 -28 1 -352 c0 -193 2 -354 6 -357 3 -3 50 21 105 53 54
31 110 63 124 71 14 7 32 17 40 21 110 59 136 82 180 159 24 43 54 83 65 89
11 6 43 24 70 41 89 54 86 54 135 26 l44 -25 58 32 58 32 0 147 c0 139 -1 148
-22 168 -12 11 -25 20 -30 20 -4 0 -8 52 -8 116 0 112 1 119 31 170 18 32 29
64 27 79 -3 25 -5 25 -153 -61z m75 -73 c0 -21 -13 -41 -26 -41 -17 0 -18 22
-2 38 14 14 28 16 28 3z m10 -205 c0 -15 -37 -32 -47 -22 -9 8 17 36 33 36 8
0 14 -6 14 -14z m-42 -53 c2 -7 -7 -22 -20 -35 l-23 -23 -3 23 c-6 39 34 69
46 35z m-63 -42 c3 -18 -18 -41 -39 -41 -14 0 -4 44 11 56 21 14 22 14 28 -15z
m-60 -28 c4 -12 -1 -24 -17 -37 -23 -18 -23 -18 -26 9 -5 39 30 61 43 28z
m185 0 c0 -10 -190 -117 -195 -111 -5 4 176 117 188 118 4 0 7 -3 7 -7z m21
-86 c-8 -8 -11 1 -11 29 0 53 14 67 18 19 2 -21 -1 -42 -7 -48z m-768 59 c7
-18 -20 -56 -39 -56 -17 0 -19 41 -2 58 16 16 35 15 41 -2z m527 -65 c0 -20
-19 -41 -37 -41 -19 0 -16 47 4 59 21 12 33 5 33 -18z m-520 -25 c0 -16 -27
-29 -41 -20 -13 8 9 34 27 34 8 0 14 -6 14 -14z m724 -21 c-10 -8 -23 -14 -29
-14 -5 0 -1 6 9 14 11 8 24 15 30 15 5 0 1 -7 -10 -15z m-479 -15 c4 -6 11 -8
16 -5 5 4 9 -19 9 -54 0 -33 -4 -63 -10 -66 -6 -4 -10 14 -10 48 0 29 -3 57
-7 60 -3 4 -25 -4 -49 -18 -47 -27 -54 -30 -54 -16 0 9 75 58 92 60 4 1 10 -4
13 -9z m295 -24 c0 -19 -4 -38 -10 -41 -6 -4 -10 10 -10 34 0 23 5 41 10 41 6
0 10 -15 10 -34z m120 9 c0 -2 -10 -9 -22 -15 -22 -11 -22 -10 -4 4 21 17 26
19 26 11z m-670 -34 c-6 -12 -5 -22 2 -29 8 -8 8 -15 0 -24 -7 -9 -7 -19 -2
-28 5 -9 5 -19 -1 -26 -7 -8 -6 -14 1 -19 8 -5 6 -13 -6 -26 -33 -36 -40 -24
-41 66 -1 75 2 87 20 100 25 18 40 10 27 -14z m620 4 c0 -2 -10 -9 -22 -15
-22 -11 -22 -10 -4 4 21 17 26 19 26 11z m-131 -28 c-17 -14 -98 -54 -94 -46
7 10 75 48 89 49 5 0 7 -1 5 -3z m-346 -74 c3 -38 1 -53 -8 -53 -13 0 -19 95
-7 115 7 12 9 3 15 -62z m585 50 c-2 -10 -13 -19 -26 -21 -24 -4 -29 7 -10 26
18 18 40 15 36 -5z m-473 -62 c-5 -9 -92 -61 -101 -61 -28 0 65 69 94 70 7 0
11 -4 7 -9z m-215 -100 c0 -42 -26 -71 -62 -71 -28 0 -25 74 4 94 40 28 58 21
58 -23z m192 -113 c-21 -22 -22 -22 -22 -2 0 27 21 47 34 34 7 -7 3 -17 -12
-32z"/>
<path d="M5590 1541 c-91 -53 -254 -148 -362 -211 l-198 -114 0 -378 c0 -316
2 -380 14 -384 14 -5 54 16 247 130 l97 57 156 -91 155 -90 201 116 200 116 0
378 0 378 -165 96 c-90 53 -168 96 -172 95 -5 0 -82 -44 -173 -98z m-220 -270
l0 -79 -117 -68 c-65 -37 -128 -74 -140 -82 l-23 -14 0 83 0 84 133 77 c72 42
135 77 140 77 4 1 7 -35 7 -78z m0 -180 l0 -80 -133 -75 c-73 -42 -136 -76
-140 -76 -4 0 -7 35 -7 78 l0 77 133 77 c72 42 135 77 140 78 4 0 7 -36 7 -79z
m185 -43 c68 -40 137 -92 126 -96 -6 -2 -21 4 -33 12 -12 9 -30 16 -39 16 -18
0 -199 118 -199 130 0 10 86 -27 145 -62z m-79 -62 c32 -6 218 -125 210 -134
-12 -11 -184 72 -211 103 -5 6 -22 19 -37 28 -16 10 -28 22 -28 27 0 6 11 3
24 -5 13 -9 32 -17 42 -19z m-106 -74 l0 -78 -133 -77 c-74 -42 -137 -77 -140
-77 -4 0 -7 35 -7 78 l0 78 133 77 c72 42 135 77 140 77 4 0 7 -35 7 -78z m78
-15 c99 -49 135 -70 185 -108 60 -44 69 -61 20 -37 -15 8 -50 26 -78 39 -27
13 -72 41 -99 62 -28 20 -54 37 -58 37 -5 0 -8 5 -8 10 0 13 7 13 38 -3z m-78
-164 l0 -78 -134 -77 c-73 -43 -136 -78 -139 -78 -4 0 -7 35 -7 78 l0 78 132
77 c73 42 136 77 140 77 5 0 8 -35 8 -77z m109 47 c22 0 215 -130 206 -138 -5
-5 -19 1 -120 51 -22 11 -56 32 -75 47 -19 15 -45 32 -57 39 -13 6 -23 16 -23
22 0 5 13 3 30 -6 16 -8 34 -15 39 -15z"/>
<path d="M4100 1128 c-14 -13 -25 -21 -25 -19 0 6 -95 -49 -95 -55 0 -2 9 -8
20 -14 14 -8 26 -8 41 0 17 10 18 14 7 27 -12 14 -11 15 8 5 16 -9 25 -8 39 2
10 7 15 18 12 24 -5 6 0 8 13 5 11 -3 27 1 36 8 14 12 14 14 -2 26 -24 17 -26
17 -54 -9z"/>
<path d="M4100 1064 c-123 -77 -132 -82 -162 -95 -16 -6 -28 -15 -28 -20 0 -5
-4 -9 -10 -9 -21 0 -150 -85 -146 -96 3 -7 -2 -10 -13 -7 -15 4 -121 -51 -121
-63 0 -2 9 -8 20 -14 17 -9 31 -5 75 20 30 17 55 36 55 41 0 5 9 9 19 9 11 0
23 5 26 11 4 5 17 14 28 20 12 5 29 13 37 19 8 5 87 53 175 106 88 52 163 99
168 103 4 4 -3 12 -15 18 -20 8 -36 2 -108 -43z"/>
<path d="M4209 1061 c-13 -10 -34 -21 -46 -25 -13 -4 -23 -12 -23 -17 0 -5 -5
-9 -11 -9 -13 0 -303 -172 -307 -182 -2 -5 -10 -8 -17 -8 -8 0 -20 -6 -27 -12
-7 -7 -31 -23 -53 -35 -42 -23 -46 -32 -22 -47 11 -7 82 31 263 140 137 82
252 153 256 159 5 6 8 6 8 -2 0 -7 -36 -34 -81 -60 -44 -27 -91 -55 -103 -63
-13 -8 -50 -31 -82 -50 -33 -19 -66 -39 -76 -45 -9 -5 -48 -28 -87 -49 -55
-31 -68 -43 -59 -53 6 -7 18 -13 26 -13 20 0 322 179 322 191 0 5 9 9 19 9 11
0 23 5 26 11 4 5 17 15 28 20 12 5 31 15 42 22 11 7 46 27 78 45 31 19 57 35
57 37 0 5 -88 55 -98 55 -5 0 -20 -8 -33 -19z"/>
<path d="M3938 1036 c-12 -9 -14 -16 -7 -23 7 -7 3 -9 -13 -7 -13 3 -30 0 -38
-6 -13 -9 -13 -12 3 -25 15 -10 24 -11 43 -3 13 6 24 15 24 19 0 4 11 10 25
13 30 8 32 21 6 36 -24 12 -22 12 -43 -4z"/>
<path d="M4160 904 c-102 -62 -217 -132 -257 -154 -39 -22 -82 -49 -94 -59
l-23 -18 21 -12 c19 -9 56 10 300 156 153 91 280 168 283 170 5 5 -30 34 -39
32 -3 -1 -89 -52 -191 -115z"/>
<path d="M3825 966 c-18 -13 -18 -14 3 -25 30 -16 69 3 51 25 -14 18 -30 18
-54 0z"/>
<path d="M3775 937 c-11 -9 -15 -19 -10 -27 5 -9 4 -11 -4 -6 -19 12 -64 -3
-58 -18 4 -9 0 -12 -11 -9 -9 2 -26 -3 -37 -11 -19 -14 -19 -15 9 -27 25 -12
30 -11 45 7 9 11 22 19 28 17 6 -2 20 4 30 14 10 10 31 24 47 31 27 12 28 13
10 27 -24 18 -26 18 -49 2z"/>
<path d="M4121 813 l-74 -46 23 -19 c12 -10 28 -18 36 -18 7 0 48 21 90 47
l77 46 -24 18 c-34 26 -44 23 -128 -28z"/>
<path d="M3583 823 c-18 -7 -16 -21 5 -32 24 -13 73 16 51 30 -15 9 -37 10
-56 2z"/>
</g>
</svg>
