<?xml version="1.0" standalone="no"?>
<!DOCTYPE svg PUBLIC "-//W3C//DTD SVG 20010904//EN"
 "http://www.w3.org/TR/2001/REC-SVG-20010904/DTD/svg10.dtd">
<svg version="1.0" xmlns="http://www.w3.org/2000/svg"
 width="626.000000pt" height="626.000000pt" viewBox="0 0 626.000000 626.000000"
 preserveAspectRatio="xMidYMid meet">

<g transform="translate(0.000000,626.000000) scale(0.100000,-0.100000)"
fill="#000000" stroke="none">
<path d="M4591 6033 l-22 -18 1 -745 c0 -693 2 -746 18 -762 14 -13 48 -18
190 -23 l172 -8 0 46 c0 44 1 46 29 45 28 -1 30 -4 34 -42 l4 -41 1 43 c2 45
18 57 25 20 l4 -23 2 23 c2 41 30 25 34 -20 l4 -43 1 43 c1 23 6 42 11 42 6 0
12 -19 14 -42 l4 -43 1 43 c2 40 4 42 32 42 29 0 30 -2 30 -45 0 -38 3 -45 20
-45 17 0 20 7 20 45 0 32 4 45 14 45 8 0 17 -10 19 -22 l4 -23 2 23 c2 39 20
24 24 -20 l4 -43 1 41 c2 38 4 41 31 42 28 1 30 -2 34 -41 l4 -42 1 43 c1 23
6 42 11 42 6 0 12 -19 14 -42 l4 -43 1 43 c2 39 4 42 31 42 28 0 30 -3 34 -42
l4 -43 1 43 c2 42 17 57 25 25 4 -17 5 -17 6 0 0 9 7 17 15 17 10 0 16 -14 19
-42 l4 -43 1 43 c1 23 6 42 11 42 6 0 12 -19 14 -42 l4 -43 1 43 c2 39 4 42
31 42 28 0 30 -3 34 -42 l4 -43 1 43 c1 23 6 42 11 42 6 0 12 -19 14 -42 l4
-43 1 43 c1 30 6 42 17 42 11 0 15 -12 15 -46 l0 -46 69 4 c123 7 111 -77 111
782 0 408 -4 746 -8 752 -21 32 -50 34 -650 34 -556 0 -601 -1 -621 -17z
m1212 -103 c3 -3 7 -33 10 -68 4 -63 -5 -85 -53 -132 -3 -3 -23 -27 -45 -55
-22 -27 -43 -51 -47 -53 -5 -2 -8 -9 -8 -15 0 -7 -17 -31 -38 -53 -20 -23 -44
-50 -52 -61 -71 -90 -93 -112 -102 -107 -6 4 -8 2 -5 -3 6 -10 -63 -107 -88
-125 -5 -4 92 -8 218 -8 l227 0 0 -120 0 -120 -602 2 -603 3 1 125 c0 69 1
274 2 457 1 255 5 332 14 337 16 6 1165 3 1171 -4z"/>
<path d="M5790 5860 c0 -5 5 -10 11 -10 5 0 7 5 4 10 -3 6 -8 10 -11 10 -2 0
-4 -4 -4 -10z"/>
<path d="M5765 5840 c3 -5 8 -10 11 -10 2 0 4 5 4 10 0 6 -5 10 -11 10 -5 0
-7 -4 -4 -10z"/>
<path d="M5791 5814 c0 -11 3 -14 6 -6 3 7 2 16 -1 19 -3 4 -6 -2 -5 -13z"/>
<path d="M4885 5771 c-3 -5 0 -13 7 -18 16 -10 42 -14 33 -5 -4 4 -11 8 -16 8
-22 3 -23 5 -9 14 9 6 10 10 3 10 -6 0 -14 -4 -18 -9z"/>
<path d="M5049 5775 c0 0 -2 -8 -4 -17 -2 -10 1 -18 6 -18 5 0 9 5 9 10 0 6 5
10 10 10 7 0 7 -6 0 -19 -7 -14 -7 -22 2 -27 6 -4 8 -3 4 4 -3 6 -1 16 6 24
21 22 18 33 -8 33 -13 0 -24 0 -25 0z"/>
<path d="M5113 5753 c-12 -13 -18 -23 -13 -23 5 0 12 5 16 11 4 8 9 7 15 -2 7
-12 9 -12 9 0 0 8 6 11 15 7 18 -6 65 13 65 27 0 5 -6 5 -13 -2 -8 -6 -25 -8
-43 -3 -23 6 -33 4 -51 -15z"/>
<path d="M5335 5771 c-3 -5 -1 -12 5 -16 5 -3 10 1 10 9 0 18 -6 21 -15 7z"/>
<path d="M5446 5773 c-12 -12 -6 -22 11 -16 10 4 14 2 9 -5 -3 -6 -2 -13 4
-17 12 -8 50 12 50 27 0 6 -8 4 -18 -5 -23 -21 -33 -22 -26 -3 5 14 -19 29
-30 19z"/>
<path d="M4942 5754 c10 -10 20 -16 22 -13 3 3 -5 11 -17 18 -21 13 -21 12 -5
-5z"/>
<path d="M4980 5757 c14 -8 32 -11 40 -8 11 4 8 7 -10 12 -42 12 -56 9 -30 -4z"/>
<path d="M5680 5749 c0 -5 5 -7 10 -4 6 3 10 8 10 11 0 2 -4 4 -10 4 -5 0 -10
-5 -10 -11z"/>
<path d="M5310 5741 c0 -5 5 -13 10 -16 6 -3 10 -2 10 4 0 5 -4 13 -10 16 -5
3 -10 2 -10 -4z"/>
<path d="M5280 5736 c0 -2 7 -9 15 -16 13 -11 14 -10 9 4 -5 14 -24 23 -24 12z"/>
<path d="M4881 5704 c0 -11 3 -14 6 -6 3 7 2 16 -1 19 -3 4 -6 -2 -5 -13z"/>
<path d="M5087 5701 c-10 -14 -10 -14 4 -4 9 7 18 10 21 7 3 -3 8 -1 12 4 9
16 -24 9 -37 -7z"/>
<path d="M5551 5693 c0 -24 1 -25 8 -8 l8 20 5 -20 c5 -16 6 -17 7 -2 0 9 7
17 14 17 8 0 7 4 -3 10 -26 17 -40 11 -39 -17z"/>
<path d="M5326 5695 c4 -8 8 -15 10 -15 2 0 4 7 4 15 0 8 -4 15 -10 15 -5 0
-7 -7 -4 -15z"/>
<path d="M5213 5685 c0 -8 4 -12 9 -9 5 3 6 10 3 15 -9 13 -12 11 -12 -6z"/>
<path d="M5690 5689 c0 -5 5 -7 10 -4 6 3 10 8 10 11 0 2 -4 4 -10 4 -5 0 -10
-5 -10 -11z"/>
<path d="M4967 5670 c10 -11 19 -20 21 -20 1 0 -2 9 -8 20 -6 11 -15 20 -20
20 -6 0 -2 -9 7 -20z"/>
<path d="M5410 5679 c0 -5 5 -7 10 -4 6 3 10 8 10 11 0 2 -4 4 -10 4 -5 0 -10
-5 -10 -11z"/>
<path d="M5440 5680 c0 -6 7 -10 15 -10 8 0 15 2 15 4 0 2 -7 6 -15 10 -8 3
-15 1 -15 -4z"/>
<path d="M5002 5660 c7 -11 17 -20 22 -20 5 0 1 9 -9 20 -10 11 -20 20 -22 20
-2 0 2 -9 9 -20z"/>
<path d="M5095 5660 c10 -11 20 -20 23 -20 3 0 -3 9 -13 20 -10 11 -20 20 -23
20 -3 0 3 -9 13 -20z"/>
<path d="M5047 5664 c-4 -4 -7 -12 -7 -18 0 -6 5 -4 10 4 7 12 12 8 23 -19 13
-31 15 -31 20 -11 3 12 3 19 0 16 -3 -3 -13 4 -22 15 -9 11 -20 17 -24 13z"/>
<path d="M5293 5647 c0 -13 5 -24 13 -24 10 0 10 5 2 21 -15 29 -15 30 -15 3z"/>
<path d="M5445 5650 c16 -7 14 -9 -14 -9 -19 -1 -31 -4 -27 -8 12 -13 44 -10
65 6 20 16 20 16 -12 18 -26 1 -28 0 -12 -7z"/>
<path d="M5563 5636 c3 -7 0 -20 -6 -27 -10 -11 -9 -11 5 0 15 11 15 41 1 41
-3 0 -3 -6 0 -14z"/>
<path d="M4883 5618 c1 -15 6 -24 11 -21 5 4 7 -1 3 -10 -3 -10 -2 -17 2 -17
5 0 11 7 15 15 3 8 1 15 -4 15 -5 0 -7 8 -4 18 5 13 4 14 -4 3 -8 -11 -11 -10
-15 5 -3 12 -4 9 -4 -8z"/>
<path d="M5136 5596 c17 -6 29 -16 27 -23 -5 -13 8 -17 36 -14 7 2 10 -2 7 -7
-3 -6 2 -9 11 -8 9 2 19 8 21 14 2 7 8 10 13 7 5 -4 6 1 3 10 -7 17 -30 14
-26 -4 1 -6 -2 -11 -6 -11 -17 0 -22 14 -10 29 10 13 10 14 -1 4 -13 -11 -45
-7 -37 6 2 3 -12 7 -33 7 l-36 2 31 -12z m54 -26 c0 -5 -2 -10 -4 -10 -3 0 -8
5 -11 10 -3 6 -1 10 4 10 6 0 11 -4 11 -10z"/>
<path d="M5310 5604 c0 -6 7 -19 16 -30 14 -18 14 -18 3 6 -14 31 -19 36 -19
24z"/>
<path d="M4945 5571 c2 -18 21 -26 30 -12 4 7 -1 8 -12 4 -15 -6 -16 -4 -6 8
10 13 10 16 -1 16 -8 0 -13 -7 -11 -16z"/>
<path d="M5100 5586 c0 -2 7 -7 16 -10 8 -3 12 -2 9 4 -6 10 -25 14 -25 6z"/>
<path d="M5606 5574 c-5 -14 -4 -15 9 -4 17 14 19 20 6 20 -5 0 -12 -7 -15
-16z"/>
<path d="M4992 5576 c4 -5 3 -15 -3 -23 -9 -9 -8 -13 0 -13 6 0 11 4 11 10 0
5 8 7 18 3 19 -7 17 -4 -13 17 -11 8 -17 10 -13 6z"/>
<path d="M5400 5566 c0 -2 7 -6 15 -10 8 -3 15 -1 15 4 0 6 -7 10 -15 10 -8 0
-15 -2 -15 -4z"/>
<path d="M5445 5560 c-3 -6 1 -7 9 -4 18 7 21 14 7 14 -6 0 -13 -4 -16 -10z"/>
<path d="M5535 5550 c-4 -6 -3 -10 2 -9 4 1 15 1 23 0 13 -1 13 -2 0 -11 -8
-5 -12 -12 -9 -15 4 -3 12 1 18 9 10 12 8 17 -8 25 -13 8 -22 8 -26 1z"/>
<path d="M5086 5533 c-6 -14 -5 -15 5 -6 7 7 10 15 7 18 -3 3 -9 -2 -12 -12z"/>
<path d="M5314 5539 c-3 -6 -20 -19 -37 -29 l-30 -19 26 -6 c17 -5 24 -12 20
-19 -4 -6 1 -5 10 3 14 11 20 11 35 0 15 -13 16 -12 3 4 -8 10 -20 16 -27 13
-17 -7 -13 26 5 48 7 9 11 16 8 16 -3 0 -9 -5 -13 -11z m-19 -39 c-3 -5 -12
-10 -18 -10 -7 0 -6 4 3 10 19 12 23 12 15 0z"/>
<path d="M5325 5520 c-3 -5 -1 -10 4 -10 6 0 11 5 11 10 0 6 -2 10 -4 10 -3 0
-8 -4 -11 -10z"/>
<path d="M5120 5505 c8 -11 15 -21 16 -23 1 -2 5 5 8 15 4 9 4 14 0 10 -4 -4
-14 -1 -23 6 -14 11 -15 10 -1 -8z"/>
<path d="M4885 5500 c-7 -12 -7 -12 25 -15 13 -1 26 -7 28 -14 2 -7 8 -6 18 3
18 18 18 32 1 17 -10 -8 -19 -7 -33 4 -23 17 -31 18 -39 5z"/>
<path d="M5074 5502 c-6 -4 -4 -13 8 -24 10 -10 18 -14 18 -10 0 4 -5 13 -12
20 -16 16 4 16 22 0 12 -11 12 -10 1 5 -15 19 -21 20 -37 9z"/>
<path d="M5486 5495 c3 -7 12 -16 21 -19 13 -5 13 -9 2 -24 -13 -15 -12 -16 3
-4 14 11 15 17 5 33 -14 23 -38 34 -31 14z"/>
<path d="M5015 5490 c-16 -4 -22 -8 -13 -9 9 0 23 -3 31 -6 8 -4 14 0 14 10 0
8 -1 14 -1 14 -1 -1 -14 -5 -31 -9z"/>
<path d="M5156 5484 c-5 -14 -4 -15 9 -4 17 14 19 20 6 20 -5 0 -12 -7 -15
-16z"/>
<path d="M5466 5487 c3 -10 9 -15 12 -12 3 3 0 11 -7 18 -10 9 -11 8 -5 -6z"/>
<path d="M5530 5489 c0 -5 5 -7 10 -4 6 3 10 8 10 11 0 2 -4 4 -10 4 -5 0 -10
-5 -10 -11z"/>
<path d="M5183 5477 c-3 -5 -1 -7 5 -3 6 3 13 2 17 -4 3 -5 12 -10 18 -10 7 0
6 4 -3 11 -11 8 -8 9 15 4 16 -4 26 -3 22 1 -12 12 -66 13 -74 1z"/>
<path d="M2941 5354 l-574 -574 79 -83 c70 -72 83 -82 114 -82 33 0 35 -2 40
-39 5 -41 27 -63 52 -54 8 4 30 25 48 48 31 39 32 42 9 30 -22 -12 -23 -12
-10 3 13 17 12 18 -11 21 -6 0 -12 10 -14 21 -2 11 -8 21 -14 23 -5 2 -8 8 -4
13 3 5 -3 9 -12 9 -14 0 -15 3 -7 11 9 9 16 8 27 -3 8 -9 12 -18 9 -22 -4 -3
2 -6 12 -6 10 0 16 -3 12 -6 -3 -4 0 -11 6 -18 7 -6 25 -21 39 -34 l26 -23 31
31 c18 17 37 27 43 24 7 -4 8 -2 4 5 -9 14 20 45 34 36 6 -4 10 -3 9 2 -1 4 0
10 1 13 6 17 7 40 2 40 -4 0 -22 13 -39 29 -33 28 -43 51 -23 51 6 0 10 -4 10
-10 0 -5 7 -10 15 -10 8 0 15 -4 15 -10 0 -12 40 -13 58 -1 8 4 12 15 10 24
-2 9 2 16 7 16 6 0 9 -8 7 -17 -2 -14 0 -13 9 2 10 15 9 22 -4 31 -9 7 -13 16
-9 20 4 4 0 5 -8 3 -8 -3 -14 -11 -12 -17 1 -7 -2 -10 -8 -6 -6 4 -3 16 7 32
17 26 17 26 -5 14 -18 -10 -21 -9 -16 4 4 8 1 15 -7 15 -7 0 -9 3 -6 7 4 3 -3
11 -14 17 -24 12 -27 28 -8 35 8 2 10 -2 6 -13 -4 -10 -3 -15 3 -11 12 7 42
-20 33 -29 -4 -3 0 -6 9 -6 19 0 61 -44 51 -54 -5 -4 -3 -7 2 -6 21 5 27 0 17
-13 -8 -10 -6 -13 8 -13 10 0 16 5 13 10 -4 5 1 7 11 3 9 -4 15 -3 12 2 -5 8
26 51 37 51 3 0 -1 -17 -10 -37 l-15 -38 24 23 c13 12 30 22 36 22 14 0 -55
-64 -78 -73 -10 -4 -11 -6 -2 -6 10 -1 10 -4 0 -15 -7 -7 -20 -11 -28 -9 -12
4 -13 3 -1 -5 13 -9 6 -37 -7 -28 -4 2 -8 -6 -8 -17 -1 -13 9 -30 25 -41 26
-20 26 -20 9 0 -30 34 -20 60 12 32 12 -11 12 -10 1 4 -22 30 -2 42 27 16 l27
-23 -19 23 c-20 22 -20 23 2 44 18 19 23 20 39 8 15 -12 16 -12 6 0 -18 20
-16 43 3 36 9 -3 12 -2 9 4 -9 14 36 51 54 44 11 -3 11 -1 2 10 -19 23 7 31
32 9 22 -18 22 -18 5 3 -10 11 -18 24 -18 27 0 13 23 7 44 -10 21 -18 21 -18
3 4 -26 30 -12 50 16 26 22 -18 22 -18 5 3 -10 11 -18 24 -18 27 0 13 28 7 40
-8 7 -9 15 -13 18 -10 3 3 -5 16 -18 30 -44 46 0 76 49 33 22 -20 23 -20 8 -2
-30 36 -12 62 23 32 8 -7 6 -3 -3 9 -24 28 -4 42 26 16 l22 -18 -18 22 c-24
28 -4 42 26 17 20 -17 20 -17 -1 8 -29 32 -12 49 21 21 l22 -18 -19 23 c-23
26 -13 41 15 24 18 -11 18 -11 7 7 -17 28 -2 38 24 15 23 -19 23 -19 6 1 -18
21 -15 31 15 54 14 11 20 11 35 0 15 -12 15 -11 -1 8 -24 28 -4 42 26 16 22
-18 22 -18 5 3 -10 11 -18 24 -18 27 0 13 23 7 44 -10 17 -14 16 -13 -2 9 -29
32 -12 49 21 21 22 -18 22 -18 4 3 -17 20 -17 22 2 45 l19 24 24 -20 23 -20
-18 21 c-16 20 -16 22 3 44 12 14 25 20 36 16 14 -5 15 -4 5 8 -15 18 11 30
30 13 11 -10 11 -9 1 5 -19 25 5 34 31 11 22 -18 22 -18 5 3 -18 21 -24 44
-11 44 3 0 16 -8 27 -17 21 -18 21 -18 4 2 -24 29 -8 53 17 25 l19 -20 33 32
33 32 -82 83 c-65 65 -86 81 -104 77 -28 -7 -57 22 -50 50 4 18 -12 39 -77
104 l-82 81 -574 -575z m589 530 c0 -8 -7 -14 -15 -14 -15 0 -21 21 -9 33 10
9 24 -2 24 -19z m-28 -146 c-7 -7 -12 -8 -12 -2 0 14 12 26 19 19 2 -3 -1 -11
-7 -17z m-89 -1 c7 4 -15 -18 -47 -48 -32 -30 -66 -57 -75 -61 -9 -4 -11 -7
-5 -7 13 -1 13 -43 -1 -53 -6 -5 -5 -8 4 -8 7 0 62 -49 121 -110 60 -60 106
-110 102 -110 -3 0 -57 51 -120 113 -141 138 -143 144 -56 232 32 33 61 57 62
52 2 -4 9 -4 15 0z m131 -38 c-4 -8 -3 -9 5 -5 12 8 44 -18 34 -28 -10 -9 -25
-7 -19 3 3 5 -3 11 -14 14 -11 3 -20 13 -20 22 0 9 -4 13 -10 10 -11 -7 -14 8
-4 18 10 10 36 -22 28 -34z m61 -49 c-3 -5 -11 -10 -16 -10 -6 0 -7 5 -4 10 3
6 11 10 16 10 6 0 7 -4 4 -10z m20 -20 c-3 -5 -11 -10 -16 -10 -6 0 -7 5 -4
10 3 6 11 10 16 10 6 0 7 -4 4 -10z m20 -20 c-3 -5 -11 -10 -16 -10 -6 0 -7 5
-4 10 3 6 11 10 16 10 6 0 7 -4 4 -10z m-212 -93 c-2 -4 -21 11 -42 32 -21 22
-41 37 -45 34 -3 -4 -6 -2 -6 4 0 5 3 12 6 16 8 7 92 -76 87 -86z m244 46 c-3
-3 -13 1 -21 10 -8 8 -12 17 -9 20 3 3 12 -1 20 -9 9 -8 13 -18 10 -21z m19
-20 c-10 -10 -19 5 -10 18 6 11 8 11 12 0 2 -7 1 -15 -2 -18z m-439 -5 c-9 -6
-8 -8 2 -8 8 0 11 -7 8 -19 -3 -15 -1 -18 11 -14 11 5 14 2 9 -10 -4 -12 -2
-14 10 -10 12 5 15 2 10 -10 -4 -12 -2 -14 10 -10 12 5 15 2 10 -10 -4 -11 -2
-14 7 -11 13 5 31 -24 21 -34 -9 -10 -105 91 -102 108 1 9 -7 16 -21 18 -18 3
-39 -11 -83 -56 -32 -32 -59 -54 -59 -48 0 16 92 106 110 106 10 0 11 3 3 8
-6 4 6 7 27 7 21 0 33 -3 27 -7z m203 -32 c0 -3 -4 -8 -10 -11 -5 -3 -10 -1
-10 4 0 6 5 11 10 11 6 0 10 -2 10 -4z m216 -84 c-44 -44 -88 -82 -97 -85 -9
-3 22 32 70 79 47 46 91 84 97 84 6 0 -25 -35 -70 -78z m-196 64 c0 -3 -4 -8
-10 -11 -5 -3 -10 -1 -10 4 0 6 5 11 10 11 6 0 10 -2 10 -4z m48 -49 c18 -18
29 -36 25 -40 -7 -8 -73 51 -73 65 0 16 17 7 48 -25z m-148 -47 c0 -5 -5 -10
-11 -10 -5 0 -7 5 -4 10 3 6 8 10 11 10 2 0 4 -4 4 -10z m77 -87 c-3 -3 -21
11 -41 30 -19 19 -32 37 -29 40 3 3 21 -10 40 -29 19 -20 33 -38 30 -41z
m-281 -10 c-3 -3 -18 8 -34 25 -16 17 -32 28 -36 25 -3 -3 -6 -2 -6 4 0 23 14
19 47 -13 19 -20 32 -38 29 -41z m-143 44 c-3 -17 6 -33 36 -62 23 -22 41 -47
41 -55 0 -13 1 -13 10 0 15 23 12 6 -5 -26 -8 -16 -15 -38 -15 -50 0 -24 33
-58 45 -47 4 5 5 3 1 -4 -3 -6 -2 -14 3 -17 5 -3 11 1 15 9 3 8 1 17 -3 20 -5
2 -11 15 -14 27 l-6 23 18 -24 c10 -13 21 -19 24 -14 4 6 0 19 -8 29 -18 24
-19 60 -2 67 10 4 13 -2 9 -18 -4 -24 2 -35 50 -85 15 -15 24 -30 21 -33 -3
-3 -16 6 -28 21 -17 20 -27 24 -35 16 -8 -8 -3 -18 20 -38 17 -14 26 -26 18
-26 -10 0 -9 -3 2 -10 8 -5 10 -10 4 -10 -5 0 -21 14 -33 31 -18 24 -25 28
-32 18 -6 -10 -1 -21 17 -36 18 -17 21 -23 9 -23 -8 0 -18 7 -21 15 -4 8 -10
12 -15 9 -5 -3 -9 0 -9 6 0 6 -5 8 -12 4 -6 -4 -8 -3 -5 3 4 6 -5 21 -18 33
-14 13 -25 31 -25 39 0 14 -1 14 -10 1 -5 -8 -10 -10 -10 -4 0 5 4 14 9 20 5
5 12 25 16 44 6 31 2 39 -34 75 -38 36 -51 71 -34 88 10 11 11 9 6 -16z m494
-29 c1 -12 -3 -26 -10 -30 -9 -6 -9 -8 0 -8 6 0 -14 -24 -45 -54 -31 -30 -59
-53 -61 -50 -2 2 19 28 47 58 35 37 52 63 52 80 0 32 15 35 17 4z m-362 -86
c-2 -2 -23 17 -48 42 -25 24 -43 47 -40 50 6 5 93 -87 88 -92z m35 58 c0 -5
-7 -10 -16 -10 -8 0 -12 5 -9 10 3 6 10 10 16 10 5 0 9 -4 9 -10z m35 -32 c23
-20 25 -38 3 -38 -5 0 -8 7 -5 14 4 11 1 13 -10 9 -11 -4 -14 -2 -9 5 4 7 1
12 -9 12 -9 0 -13 5 -10 10 9 14 11 13 40 -12z m-223 -35 c21 -20 38 -43 38
-50 0 -7 -18 7 -41 32 -23 25 -52 46 -67 48 -27 4 -27 4 3 6 21 1 39 -9 67
-36z m50 8 c8 11 9 11 6 1 -4 -16 -22 -18 -24 -2 -2 7 -1 6 3 -1 4 -8 8 -7 15
2z m236 -34 c21 -22 20 -37 -1 -37 -5 0 -7 7 -4 14 4 11 1 13 -10 9 -12 -5
-15 -2 -10 10 4 12 2 14 -10 10 -11 -4 -14 -2 -9 5 10 17 20 15 44 -11z m-435
0 c7 4 -15 -18 -47 -48 -32 -30 -66 -57 -75 -61 -9 -4 -11 -7 -5 -7 5 -1 10
-12 10 -26 0 -14 -5 -25 -10 -25 -6 0 0 -6 14 -13 13 -7 30 -24 37 -37 7 -14
13 -19 13 -11 0 8 3 12 6 8 3 -3 3 -10 -1 -16 -4 -7 -20 4 -42 26 -54 57 -50
84 23 158 32 33 61 57 62 52 2 -4 9 -4 15 0z m101 -29 c-3 -4 3 -5 12 -1 13 5
16 3 11 -10 -4 -12 -2 -14 10 -10 12 5 15 2 10 -10 -4 -12 -2 -14 10 -10 12 5
15 2 10 -10 -4 -12 -2 -14 10 -10 11 4 14 2 9 -5 -4 -8 0 -12 10 -12 14 0 15
-3 6 -12 -10 -10 -24 0 -67 42 -30 29 -52 57 -49 62 3 4 -2 5 -10 2 -9 -3 -16
-2 -16 4 0 6 6 12 13 15 13 4 38 -23 31 -35z m426 -31 c0 -7 -4 -6 -10 3 -9
13 -10 13 -10 -1 0 -24 -41 -56 -77 -61 -18 -2 -30 -1 -27 4 3 4 16 8 29 8 16
0 34 12 52 34 26 33 43 38 43 13z m-294 -82 c4 -8 11 -12 17 -8 6 3 7 1 3 -5
-4 -7 -1 -12 8 -12 9 0 16 -9 16 -20 0 -11 -5 -20 -11 -20 -6 0 -8 7 -5 16 3
8 2 12 -4 9 -6 -4 -17 1 -26 9 -8 9 -13 20 -9 26 3 6 -1 7 -9 4 -9 -3 -16 -1
-16 5 0 16 30 13 36 -4z m-281 -35 c-4 -6 1 -7 11 -3 13 5 16 3 11 -10 -4 -11
-2 -14 9 -10 7 3 14 0 14 -6 0 -6 -5 -11 -12 -11 -17 0 -48 31 -48 47 0 8 -4
11 -10 8 -11 -7 -14 8 -4 18 9 9 36 -21 29 -33z m-55 -65 c58 -59 66 -64 77
-48 10 13 13 14 13 2 0 -12 2 -12 10 1 5 8 10 10 10 4 0 -6 -10 -18 -22 -27
-22 -15 -26 -13 -96 56 l-73 72 -69 -71 c-39 -40 -70 -67 -70 -61 0 18 122
137 140 137 9 0 45 -29 80 -65z m450 38 c0 -16 -8 -37 -17 -48 -15 -20 -15
-19 -9 5 3 14 6 35 6 48 0 12 5 22 10 22 6 0 10 -12 10 -27z m-445 -92 c41
-40 59 -63 52 -70 -12 -12 -41 14 -32 29 4 6 -1 7 -11 3 -13 -5 -16 -3 -11 10
4 12 2 14 -10 10 -12 -5 -15 -2 -10 10 4 12 2 14 -10 10 -12 -5 -15 -2 -10 10
4 12 2 14 -10 10 -12 -5 -15 -2 -10 10 4 12 2 14 -10 10 -11 -4 -14 -2 -9 5
11 18 15 16 81 -47z m140 -84 c-4 9 -1 11 9 7 21 -8 10 -24 -15 -24 -13 0 -25
11 -34 33 -8 17 -14 26 -15 18 0 -8 -3 -12 -6 -8 -3 3 -3 11 1 17 5 8 17 0 37
-22 16 -18 27 -27 23 -21z m-348 -11 c-4 -11 -1 -13 10 -9 12 5 15 2 10 -10
-4 -12 -2 -14 10 -10 12 5 15 2 10 -10 -4 -12 -2 -14 10 -10 12 5 15 2 10 -10
-4 -11 -2 -14 9 -10 7 3 14 0 14 -6 0 -21 -24 -11 -62 26 -37 36 -49 63 -27
63 6 0 9 -7 6 -14z m-137 -22 c0 -8 -7 -14 -15 -14 -15 0 -21 21 -9 33 10 9
24 -2 24 -19z"/>
<path d="M400 5810 c0 -65 2 -72 31 -100 18 -16 27 -30 21 -30 -6 0 -14 -9
-17 -20 -3 -11 -13 -20 -21 -20 -11 0 -14 -21 -13 -107 0 -70 3 -101 9 -88 7
17 9 17 9 3 1 -10 6 -18 11 -18 6 0 10 -6 10 -14 0 -7 7 -19 15 -26 14 -11 14
-9 0 16 -21 40 -19 49 10 50 14 1 25 -3 25 -8 0 -6 6 -8 14 -5 11 4 16 -3 19
-26 4 -30 4 -30 7 8 7 86 17 -92 19 -334 2 -264 6 -284 58 -318 14 -9 43 -19
65 -23 l39 -5 -38 -60 c-22 -33 -42 -66 -47 -72 -6 -10 103 -13 528 -13 l536
0 0 79 c0 70 -2 79 -20 84 -15 4 -20 14 -20 36 0 20 7 35 20 43 19 12 20 24
20 403 0 379 -1 391 -20 403 -12 7 -20 23 -20 38 0 17 7 28 20 31 18 5 20 14
20 84 l0 79 -645 0 -645 0 0 -70z m350 42 c0 12 8 16 27 14 26 -3 47 -26 24
-26 -6 0 -11 -6 -11 -14 0 -10 -13 -13 -47 -12 -28 1 -46 5 -43 11 3 6 11 9
18 9 9 -1 10 2 2 10 -5 7 -7 16 -3 20 4 4 13 -1 20 -10 12 -16 13 -16 13 -2z
m391 -1 c1 -13 2 -13 6 2 6 22 23 22 23 -1 0 -34 -39 -57 -41 -24 -1 16 -2 16
-6 0 -5 -21 -23 -24 -23 -5 0 8 -3 7 -10 -3 -7 -11 -12 -12 -20 -4 -9 9 -8 17
1 32 16 25 68 27 70 3z m199 2 c0 -7 -4 -13 -10 -13 -5 0 -10 -6 -10 -13 0 -9
-12 -14 -30 -15 -33 -1 -50 15 -26 24 9 3 16 12 16 18 0 7 13 13 30 13 18 0
30 -6 30 -14z m119 -136 c13 -6 34 -25 45 -40 21 -28 21 -36 18 -420 -4 -427
-7 -447 -62 -474 -39 -20 -801 -18 -839 1 -52 27 -54 40 -59 463 -4 357 -3
395 12 418 15 22 15 29 4 43 -11 15 -11 15 3 4 13 -10 22 -9 45 3 24 12 91 15
419 15 290 0 396 -3 414 -13z m201 -141 c0 -8 -7 -17 -16 -20 -23 -9 -34 -7
-34 4 0 6 7 10 15 10 8 0 15 5 15 10 0 6 5 10 10 10 6 0 10 -6 10 -14z m0 -36
c0 -5 -4 -10 -10 -10 -5 0 -10 5 -10 10 0 6 5 10 10 10 6 0 10 -4 10 -10z m0
-32 c0 -5 -4 -8 -10 -8 -5 0 -10 5 -10 10 0 6 -3 9 -7 9 -17 -3 -24 1 -18 11
6 10 45 -9 45 -22z m-16 -14 c30 -12 12 -44 -25 -44 -17 0 -9 20 9 21 16 1 16
2 0 6 -10 2 -18 9 -18 14 0 10 12 12 34 3z m16 -54 c0 -5 -4 -10 -10 -10 -5 0
-10 5 -10 10 0 6 5 10 10 10 6 0 10 -4 10 -10z m-25 -32 c-1 -12 -7 -24 -13
-26 -9 -3 -10 23 -3 56 1 2 5 1 9 -2 5 -3 8 -15 7 -28z m25 2 c0 -5 -4 -10
-10 -10 -5 0 -10 5 -10 10 0 6 5 10 10 10 6 0 10 -4 10 -10z m0 -49 c0 -17 -6
-31 -15 -35 -9 -3 -15 -13 -13 -22 2 -9 -2 -19 -8 -21 -6 -2 -11 9 -11 27 0
18 6 30 13 30 7 0 15 4 18 9 4 5 -3 7 -14 4 -11 -3 -20 0 -20 6 0 6 7 11 15
11 8 0 15 5 15 10 0 6 5 10 10 10 6 0 10 -13 10 -29z m0 -51 c0 -5 -4 -10 -10
-10 -5 0 -10 5 -10 10 0 6 5 10 10 10 6 0 10 -4 10 -10z m0 -50 c0 -16 -4 -30
-10 -30 -5 0 -10 5 -10 10 0 6 -7 10 -15 10 -8 0 -15 5 -15 10 0 6 7 10 15 10
8 0 15 5 15 10 0 6 5 10 10 10 6 0 10 -13 10 -30z m-26 -48 c0 -33 -16 -31
-20 1 -2 18 1 27 9 24 6 -2 11 -13 11 -25z m26 -2 c0 -5 -4 -10 -10 -10 -5 0
-10 5 -10 10 0 6 5 10 10 10 6 0 10 -4 10 -10z m0 -49 c0 -16 -6 -31 -14 -34
-15 -6 -19 -54 -5 -63 5 -3 6 2 3 10 -3 9 -1 16 5 16 17 0 13 -57 -5 -64 -23
-9 -34 -7 -34 4 0 6 8 11 18 11 13 1 14 2 2 5 -11 3 -16 18 -16 49 0 33 4 45
16 46 11 1 11 2 -2 6 -10 2 -18 9 -18 15 0 6 9 8 19 5 14 -3 18 -1 14 9 -3 8
0 14 6 14 6 0 11 -13 11 -29z m0 -51 c0 -5 -4 -10 -10 -10 -5 0 -10 5 -10 10
0 6 5 10 10 10 6 0 10 -4 10 -10z m0 -100 c0 -5 -4 -10 -10 -10 -5 0 -10 5
-10 10 0 6 5 10 10 10 6 0 10 -4 10 -10z m-28 -24 c-2 -9 4 -19 13 -22 17 -7
21 -64 5 -64 -5 0 -10 5 -10 10 0 6 -5 9 -11 8 -6 -2 -14 3 -16 10 -3 6 4 13
14 13 14 1 15 2 2 6 -10 2 -16 15 -16 34 0 17 5 28 11 26 6 -2 10 -12 8 -21z
m28 -6 c0 -5 -4 -10 -10 -10 -5 0 -10 5 -10 10 0 6 5 10 10 10 6 0 10 -4 10
-10z m-920 -317 c0 -15 2 -15 9 -4 13 20 80 21 91 1 8 -13 9 -13 10 3 0 9 5
17 11 17 7 0 9 -9 6 -22 -6 -22 -5 -22 8 -4 18 23 55 29 62 9 4 -11 8 -10 20
4 13 17 14 16 9 -7 -5 -24 -4 -24 9 -6 19 25 65 31 65 8 0 -13 3 -13 16 4 15
18 15 18 10 -6 -5 -24 -4 -24 10 -5 19 25 44 26 66 0 17 -20 17 -20 12 5 -5
23 -4 24 9 7 11 -13 16 -14 19 -6 6 18 79 18 86 1 4 -11 6 -11 12 -1 11 18 90
20 90 3 0 -8 5 -14 11 -14 23 0 1 -25 -24 -27 -19 -1 -27 3 -28 15 -1 15 -2
15 -6 1 -3 -12 -16 -16 -48 -16 -34 0 -45 4 -46 16 -1 14 -2 14 -6 0 -6 -22
-92 -22 -94 0 -1 12 -2 12 -6 -1 -2 -10 -9 -18 -14 -18 -5 0 -9 8 -9 18 0 14
-2 14 -9 3 -14 -21 -61 -23 -62 -3 -1 15 -2 15 -6 0 -2 -10 -9 -18 -14 -18 -5
0 -10 8 -10 18 -1 14 -2 14 -6 1 -2 -10 -15 -16 -33 -16 -20 0 -30 6 -31 16
-1 13 -2 13 -6 -1 -2 -10 -9 -18 -14 -18 -5 0 -10 8 -10 18 -1 14 -2 14 -6 1
-6 -22 -92 -22 -94 0 -1 14 -2 14 -6 0 -5 -21 -93 -22 -93 -1 0 9 6 12 16 8
13 -5 14 -4 6 7 -7 8 -9 17 -5 20 12 12 23 7 23 -10z"/>
<path d="M1401 5245 c-2 -198 -3 -363 -2 -368 1 -4 -162 -6 -361 -5 l-363 3
-6 55 -6 55 -1 -50 c-1 -29 3 -56 10 -63 17 -17 729 -17 746 0 8 8 11 56 10
162 l-2 151 -3 -145 c-2 -79 -7 -148 -11 -152 -4 -4 -6 97 -4 225 1 128 1 291
0 362 -2 72 -5 -32 -7 -230z"/>
<path d="M672 5440 c0 -14 2 -19 5 -12 2 6 2 18 0 25 -3 6 -5 1 -5 -13z"/>
<path d="M1464 5373 c-22 -4 -34 -41 -34 -110 0 -49 9 -63 41 -63 l29 0 0 90
c0 50 -3 89 -7 89 -5 -1 -18 -4 -29 -6z"/>
<path d="M827 5317 c-38 -27 -38 -117 0 -144 27 -20 87 -16 108 7 26 29 11 36
-29 15 -34 -19 -36 -19 -55 0 -23 20 -28 74 -9 93 15 15 53 15 78 0 29 -18 39
1 11 23 -27 22 -79 25 -104 6z"/>
<path d="M980 5245 c0 -67 3 -85 14 -85 9 0 16 12 18 28 3 23 8 27 38 30 42 4
70 27 70 58 0 33 -36 54 -92 54 l-48 0 0 -85z m103 42 c8 -22 -7 -38 -39 -40
-25 -2 -29 2 -32 26 -3 25 -1 27 31 27 20 0 37 -6 40 -13z"/>
<path d="M1140 5267 c0 -71 16 -102 57 -110 30 -6 73 8 85 26 4 7 8 42 8 80 0
53 -3 67 -15 67 -11 0 -15 -12 -15 -47 0 -79 -8 -95 -44 -91 l-31 3 -3 68 c-3
59 -5 67 -22 67 -18 0 -20 -7 -20 -63z"/>
<path d="M467 5443 c-4 -3 -7 -11 -7 -17 0 -6 5 -5 12 2 6 6 9 14 7 17 -3 3
-9 2 -12 -2z"/>
<path d="M410 5399 c0 -5 5 -7 10 -4 6 3 10 8 10 11 0 2 -4 4 -10 4 -5 0 -10
-5 -10 -11z"/>
<path d="M406 5328 c3 -4 11 -5 19 -1 21 7 19 12 -4 10 -11 0 -18 -5 -15 -9z"/>
<path d="M3645 5310 c10 -11 20 -20 23 -20 3 0 -3 9 -13 20 -10 11 -20 20 -23
20 -3 0 3 -9 13 -20z"/>
<path d="M3070 4756 c0 -2 8 -10 18 -17 15 -13 16 -12 3 4 -13 16 -21 21 -21
13z"/>
<path d="M2940 4705 c-7 -9 -8 -15 -2 -15 5 0 12 7 16 15 3 8 4 15 2 15 -2 0
-9 -7 -16 -15z"/>
<path d="M2768 4523 c6 -3 10 -9 6 -14 -8 -14 2 -11 14 4 8 10 6 13 -11 14
-12 0 -16 -1 -9 -4z"/>
<path d="M2695 4491 c-3 -5 -2 -12 3 -15 5 -3 9 1 9 9 0 17 -3 19 -12 6z"/>
<path d="M2775 4430 c-38 -40 -23 -52 16 -13 17 17 27 33 22 36 -6 4 -23 -7
-38 -23z"/>
<path d="M2410 3869 c-14 -5 -33 -20 -42 -32 -16 -20 -18 -73 -18 -708 0 -678
0 -687 21 -713 11 -14 33 -29 50 -33 16 -5 346 -6 734 -3 l705 5 27 28 28 27
2 668 c2 463 -1 677 -8 700 -6 19 -24 42 -43 53 -30 18 -58 19 -731 18 -432 0
-710 -4 -725 -10z m34 -338 c-17 -4 -37 -11 -45 -15 -8 -4 -5 0 5 8 11 9 31
16 45 15 24 -1 24 -2 -5 -8z m809 2 c-90 -2 -236 -2 -325 0 -90 1 -17 3 162 3
179 0 252 -2 163 -3z m574 1 c-3 -3 -12 -4 -19 -1 -8 3 -5 6 6 6 11 1 17 -2
13 -5z m-217 -214 c0 -22 -4 -40 -10 -40 -5 0 -10 18 -10 40 0 22 5 40 10 40
6 0 10 -18 10 -40z m81 25 c-5 -5 -8 -22 -7 -37 1 -24 -2 -28 -26 -28 -26 0
-28 3 -28 40 0 40 0 41 35 38 22 -1 31 -6 26 -13z m59 -25 c0 -13 -7 -20 -20
-20 -13 0 -20 7 -20 20 0 13 7 20 20 20 13 0 20 -7 20 -20z m-823 -207 c-2
-32 -3 -8 -3 52 0 61 1 87 3 58 2 -29 2 -78 0 -110z m-52 46 c13 -51 22 -95
20 -97 -2 -2 -9 16 -15 39 -6 24 -18 67 -26 96 -15 55 -17 70 -8 60 3 -3 16
-47 29 -98z m212 64 c-65 -115 -100 -173 -103 -173 -6 0 7 25 58 113 21 37 41
67 44 67 3 0 3 -3 1 -7z m-100 -55 c-3 -8 -6 -5 -6 6 -1 11 2 17 5 13 3 -3 4
-12 1 -19z m-207 -65 l75 -78 -77 75 c-43 41 -78 76 -78 77 0 8 11 -3 80 -74z
m30 57 c6 -11 8 -20 6 -20 -3 0 -10 9 -16 20 -6 11 -8 20 -6 20 3 0 10 -9 16
-20z m270 -55 c-41 -41 -77 -75 -79 -75 -3 0 28 34 69 75 41 41 77 75 79 75 3
0 -28 -34 -69 -75z m-334 -42 c46 -27 84 -51 84 -55 0 -6 -166 85 -179 98 -16
15 23 -3 95 -43z m104 27 c6 -11 8 -20 6 -20 -3 0 -10 9 -16 20 -6 11 -8 20
-6 20 3 0 10 -9 16 -20z m350 16 c0 -2 -7 -7 -16 -10 -8 -3 -12 -2 -9 4 6 10
25 14 25 6z m-40 -21 c0 -2 -10 -9 -22 -15 -22 -11 -22 -10 -4 4 21 17 26 19
26 11z m60 -20 c0 -2 -17 -13 -37 -24 -42 -22 -36 -26 16 -11 19 5 30 6 25 1
-13 -11 -183 -55 -190 -49 -3 3 12 9 33 13 21 3 47 15 58 25 33 29 95 59 95
45z m-130 -20 c0 -2 -10 -9 -22 -15 -22 -11 -22 -10 -4 4 21 17 26 19 26 11z
m-313 -51 c-3 -3 -12 -4 -19 -1 -8 3 -5 6 6 6 11 1 17 -2 13 -5z m40 -10 c-3
-3 -12 -4 -19 -1 -8 3 -5 6 6 6 11 1 17 -2 13 -5z m-49 -31 c-27 -2 -69 -2
-95 0 -27 2 -5 3 47 3 52 0 74 -1 48 -3z m420 0 c-26 -2 -71 -2 -100 0 -29 2
-8 3 47 3 55 0 79 -1 53 -3z m-372 -32 c-3 -5 -23 -12 -43 -16 -38 -7 -38 -7
-16 -24 l21 -18 -31 -17 c-27 -15 -29 -15 -12 -1 20 16 20 16 0 31 -11 8 -25
12 -32 10 -6 -3 -29 -7 -50 -11 -21 -3 5 8 57 24 110 33 113 34 106 22z m261
-7 c-3 -3 -12 -4 -19 -1 -8 3 -5 6 6 6 11 1 17 -2 13 -5z m-247 -19 c0 -2 -10
-9 -22 -15 -22 -11 -22 -10 -4 4 21 17 26 19 26 11z m303 -58 c37 -22 66 -42
64 -44 -5 -4 -154 83 -172 100 -13 13 26 -7 108 -56z m54 47 c-3 -3 -12 -4
-19 -1 -8 3 -5 6 6 6 11 1 17 -2 13 -5z m-347 -17 c0 -1 -33 -34 -72 -72 l-73
-70 70 73 c64 67 75 77 75 69z m245 -67 c38 -38 67 -70 64 -70 -2 0 -36 32
-74 70 -38 39 -67 70 -64 70 2 0 36 -31 74 -70z m-199 40 c8 0 14 -5 14 -10 0
-7 -6 -8 -17 -2 -14 8 -24 -2 -60 -64 -24 -41 -46 -74 -48 -74 -3 0 8 24 25
53 17 28 39 67 48 85 9 19 18 29 20 23 2 -6 10 -11 18 -11z m94 -71 c12 -44
19 -83 17 -85 -2 -3 -12 24 -21 58 -8 35 -19 73 -22 86 -4 12 -4 22 -1 22 3 0
15 -36 27 -81z m-53 -81 c-2 -29 -3 -6 -3 52 0 58 1 81 3 53 2 -29 2 -77 0
-105z m-237 127 c0 -2 -10 -9 -22 -15 -22 -11 -22 -10 -4 4 21 17 26 19 26 11z
m340 -35 c6 -11 8 -20 6 -20 -3 0 -10 9 -16 20 -6 11 -8 20 -6 20 3 0 10 -9
16 -20z m577 -57 c-3 -10 -5 -4 -5 12 0 17 2 24 5 18 2 -7 2 -21 0 -30z m156
7 c-7 -28 -13 -25 -13 6 0 14 4 23 9 20 5 -3 7 -15 4 -26z m-896 -12 c-3 -8
-6 -5 -6 6 -1 11 2 17 5 13 3 -3 4 -12 1 -19z m203 -8 c6 -11 8 -20 6 -20 -3
0 -10 9 -16 20 -6 11 -8 20 -6 20 3 0 10 -9 16 -20z m620 -25 c0 -14 -4 -25
-10 -25 -11 0 -14 33 -3 43 11 11 13 8 13 -18z"/>
<path d="M3720 3320 c0 -5 5 -10 10 -10 6 0 10 5 10 10 0 6 -4 10 -10 10 -5 0
-10 -4 -10 -10z"/>
<path d="M4570 3641 l0 -119 127 0 c111 0 129 -3 140 -18 12 -16 16 -17 36 -5
18 11 20 11 10 0 -7 -7 -13 -19 -13 -27 0 -8 -11 -25 -25 -38 -28 -26 -32 -36
-11 -28 9 3 20 -6 29 -24 13 -27 13 -33 -3 -57 -10 -15 -20 -23 -24 -17 -3 5
3 17 14 27 11 10 17 22 14 27 -3 5 -12 1 -21 -9 -13 -17 -13 -16 -4 4 16 32
14 46 -6 38 -10 -4 -73 -7 -140 -6 -104 1 -123 -1 -123 -14 0 -18 11 -19 29
-2 11 10 13 10 7 0 -9 -16 6 -17 22 -1 9 9 12 9 12 0 0 -9 20 -12 68 -10 37 1
71 4 77 7 32 17 40 7 40 -50 -1 -32 3 -55 7 -53 5 3 6 10 3 15 -12 18 11 9 25
-10 7 -11 17 -18 22 -15 15 10 8 -8 -10 -24 -10 -10 -12 -13 -5 -9 6 5 18 5
24 1 8 -4 9 -3 5 4 -4 7 -2 12 5 12 8 0 9 3 0 13 -6 8 -7 18 -3 22 4 5 1 5 -6
1 -17 -10 -42 11 -35 30 3 7 9 12 13 9 4 -2 16 5 26 16 14 15 14 18 3 14 -13
-5 -15 1 -14 27 2 18 -2 39 -8 46 -5 7 -8 15 -5 17 3 3 11 -6 18 -19 15 -30
38 -40 55 -26 9 8 11 4 7 -15 -2 -14 -9 -25 -16 -25 -7 0 -7 -3 -1 -8 6 -4 10
-99 10 -247 l0 -240 43 -3 c28 -2 42 -8 42 -18 0 -8 -4 -14 -8 -14 -13 0 -47
-64 -43 -83 1 -11 -3 -17 -11 -16 -7 1 -88 1 -180 0 l-168 -1 0 -70 0 -70 150
0 c132 0 150 -2 150 -16 0 -14 -3 -14 -15 -4 -8 7 -15 8 -15 3 0 -6 -11 -9
-24 -8 -19 2 -31 -6 -50 -36 l-26 -39 141 0 141 0 -3 108 c-2 85 0 107 11 107
11 0 13 -22 11 -107 -2 -94 0 -108 14 -108 14 0 16 14 14 108 -1 85 1 108 12
110 12 2 14 -17 11 -108 -4 -108 -4 -110 18 -110 22 0 22 2 18 110 -3 94 -1
110 12 109 10 0 11 -2 3 -6 -7 -2 -13 -9 -13 -14 0 -6 5 -7 10 -4 6 4 10 -30
10 -94 0 -85 2 -101 16 -101 13 0 15 15 13 107 -2 77 1 107 9 109 7 1 8 0 2
-3 -15 -7 -12 -26 3 -20 9 3 11 -18 9 -94 -3 -87 -1 -99 13 -99 15 0 17 12 13
110 -3 93 -1 110 11 108 12 -3 14 -23 12 -111 -2 -94 -1 -107 14 -107 15 0 16
13 14 108 -2 85 0 107 11 107 11 0 13 -22 11 -107 -2 -95 -1 -108 14 -108 15
0 16 13 14 107 -2 88 0 108 12 111 12 2 14 -15 11 -108 -4 -96 -2 -110 12
-110 14 0 16 15 16 101 0 64 4 98 10 94 6 -3 10 -2 10 4 0 5 -6 12 -12 14 -9
4 -8 6 2 6 13 1 15 -15 12 -109 -4 -106 -4 -110 17 -110 20 0 21 4 21 138 0
126 2 141 25 186 14 27 25 44 25 38 0 -7 5 -12 11 -12 5 0 7 5 3 12 -4 7 -3 8
5 4 8 -5 2 -19 -19 -44 l-30 -37 0 -142 0 -143 175 0 175 0 1 608 c1 334 2
622 3 640 l2 32 -648 0 -648 0 0 -119z m330 64 c0 -13 -22 -15 -135 -15 -82 0
-135 4 -135 10 0 6 49 9 126 9 69 -1 128 1 131 5 10 9 13 7 13 -9z m276 3 c69
0 124 -4 124 -9 0 -11 -267 -12 -274 0 -7 11 4 22 16 15 5 -4 66 -6 134 -6z
m179 -35 c0 -21 -4 -40 -10 -43 -10 -5 -18 55 -10 78 9 24 20 4 20 -35z m53
-8 c0 -25 -4 -45 -9 -45 -5 0 -9 23 -9 51 0 28 4 48 9 45 5 -4 9 -26 9 -51z
m52 24 c0 -10 -4 -19 -10 -19 -5 0 -10 12 -10 26 0 14 4 23 10 19 6 -3 10 -15
10 -26z m50 6 c0 -14 -4 -25 -10 -25 -5 0 -10 11 -10 25 0 14 5 25 10 25 6 0
10 -11 10 -25z m287 11 c4 -3 -42 -6 -100 -6 -59 0 -107 4 -107 8 0 9 198 7
207 -2z m-217 -121 c0 -62 -4 -105 -10 -105 -6 0 -9 43 -9 105 0 58 4 105 10
105 5 0 9 -46 9 -105z m237 -52 c-2 -32 -3 -8 -3 52 0 61 1 87 3 58 2 -29 2
-78 0 -110z m-357 108 c0 -11 -4 -23 -10 -26 -6 -4 -10 5 -10 19 0 14 5 26 10
26 6 0 10 -9 10 -19z m50 -1 c0 -11 -4 -20 -10 -20 -5 0 -10 9 -10 20 0 11 5
20 10 20 6 0 10 -9 10 -20z m13 -59 c-4 -4 -11 -10 -16 -15 -4 -5 -6 2 -5 17
2 20 5 24 16 15 7 -6 9 -14 5 -17z m-623 -11 c0 -7 -49 -10 -135 -9 -74 1
-135 6 -135 10 0 5 61 9 135 9 85 0 135 -4 135 -10z m400 1 c0 -5 -61 -9 -135
-10 -83 0 -135 3 -135 9 0 6 52 10 135 10 74 0 135 -4 135 -9z m-232 -27 c-4
-3 -3 -18 2 -33 6 -20 4 -28 -6 -28 -7 0 -11 4 -8 9 8 12 -10 10 -26 -4 -11
-11 -11 -9 0 6 14 18 13 18 -18 12 -25 -6 -32 -4 -32 8 0 20 18 30 33 18 8 -7
18 -6 31 4 20 14 35 19 24 8z m52 -29 c0 -19 -27 -26 -34 -9 -3 8 -3 21 0 29
5 12 10 13 20 4 8 -6 14 -17 14 -24z m85 21 c7 3 16 0 20 -6 5 -8 11 -7 22 2
12 10 17 9 28 -5 11 -15 13 -16 19 -2 7 19 36 20 36 1 0 -7 -11 -21 -25 -30
-15 -10 -24 -12 -23 -5 3 13 -51 19 -58 7 -3 -4 -12 -5 -22 -2 -15 5 -15 4 -2
-6 13 -10 13 -11 0 -7 -8 2 -14 12 -12 21 2 10 -2 25 -9 34 -11 14 -11 15 0 5
7 -6 19 -9 26 -7z m260 5 c3 -6 -5 -15 -17 -22 -12 -7 -31 -23 -42 -36 -10
-14 -28 -29 -40 -33 -19 -8 -19 -9 6 -9 15 -1 35 7 44 17 14 13 17 13 12 2 -3
-8 -2 -24 3 -35 6 -17 8 -17 8 -2 1 24 21 22 21 -3 0 -19 -7 -20 -245 -20
-166 0 -245 3 -245 11 0 5 -4 8 -8 5 -4 -2 -14 0 -22 6 -13 8 -13 9 0 5 9 -3
25 2 35 10 19 13 18 14 -10 9 -16 -4 -24 -3 -17 0 6 3 12 10 12 15 0 6 -4 7
-10 4 -5 -3 -10 -2 -10 4 0 15 21 25 29 13 9 -15 241 -14 260 1 12 9 13 9 7 0
-5 -10 2 -13 28 -13 19 0 38 5 41 10 3 6 12 10 18 10 7 0 6 -4 -3 -10 -12 -8
-9 -10 11 -10 33 0 82 37 75 57 -3 8 -1 11 4 8 6 -3 10 -1 10 4 0 14 37 14 45
2z m-297 -23 c2 -9 -6 -18 -20 -21 -21 -5 -21 -5 -5 7 22 17 22 27 0 19 -11
-4 -14 -3 -9 6 10 15 30 9 34 -11z m215 8 c18 -14 17 -15 -3 -21 -24 -8 -46 7
-36 24 9 14 17 13 39 -3z m104 -46 c4 -13 3 -13 -5 -1 -9 12 -13 13 -26 1 -14
-11 -16 -10 -10 4 8 20 36 17 41 -4z m309 -17 c-10 -10 -206 -11 -206 -1 0 5
48 8 107 8 58 0 103 -3 99 -7z m4 -53 c0 -6 -42 -10 -105 -10 -63 0 -105 4
-105 10 0 6 42 10 105 10 63 0 105 -4 105 -10z m-220 -120 c0 -60 -4 -100 -10
-100 -6 0 -10 40 -9 100 0 55 5 100 10 100 5 0 9 -45 9 -100z m238 -2 c-1
-107 -6 -95 -10 30 -2 39 0 72 5 72 4 0 6 -46 5 -102z m-290 75 c2 -8 -5 -13
-17 -13 -12 0 -21 6 -21 16 0 18 31 15 38 -3z m-2 -68 c0 -37 -3 -45 -18 -45
-13 0 -18 8 -18 30 0 17 5 30 13 31 10 0 10 2 0 6 -19 7 -15 23 5 23 16 0 19
-8 18 -45z m-110 -97 c-3 -29 -6 -83 -6 -120 l0 -68 -195 0 -195 0 0 120 0
120 201 0 202 0 -7 -52z m114 32 c0 -5 -9 -10 -20 -10 -11 0 -20 5 -20 10 0 6
9 10 20 10 11 0 20 -4 20 -10z m-3 -50 c0 -22 -5 -30 -19 -30 -13 0 -18 8 -18
30 0 22 5 30 18 30 14 0 19 -8 19 -30z m226 -17 c-29 -2 -78 -2 -110 0 -32 2
-8 3 52 3 61 0 87 -1 58 -3z m-223 -33 c0 -5 -9 -10 -20 -10 -11 0 -20 5 -20
10 0 6 9 10 20 10 11 0 20 -4 20 -10z m277 -12 c-3 -8 -6 -5 -6 6 -1 11 2 17
5 13 3 -3 4 -12 1 -19z m-39 -4 c-8 -8 -137 -8 -145 -1 -3 4 29 7 72 7 43 0
76 -3 73 -6z m-241 -34 c0 -22 -5 -30 -19 -30 -13 0 -18 8 -18 30 0 22 5 30
18 30 14 0 19 -8 19 -30z m280 -12 c-3 -8 -6 -5 -6 6 -1 11 2 17 5 13 3 -3 4
-12 1 -19z m-230 -30 c-3 -8 -6 -5 -6 6 -1 11 2 17 5 13 3 -3 4 -12 1 -19z
m-47 -8 c0 -5 -9 -10 -20 -10 -11 0 -20 5 -20 10 0 6 9 10 20 10 11 0 20 -4
20 -10z m208 3 c-21 -2 -57 -2 -80 0 -24 2 -7 4 37 4 44 0 63 -2 43 -4z m86 0
c-5 -5 -12 -12 -16 -18 -4 -6 -8 -2 -8 8 0 9 7 17 17 17 9 0 12 -3 7 -7z m-55
-29 c2 -2 -30 -4 -73 -4 -42 0 -75 4 -72 8 4 8 137 4 145 -4z m-243 -39 c1
-36 -3 -45 -16 -45 -13 0 -17 10 -18 45 -2 37 1 45 16 45 15 0 18 -8 18 -45z
m50 34 c3 -6 2 -15 -4 -21 -6 -6 -12 -6 -17 3 -5 8 -4 10 3 5 7 -4 12 -3 12 3
0 5 -6 12 -12 14 -10 4 -10 6 -1 6 6 1 15 -4 19 -10z m247 -16 c-7 -2 -13 -9
-13 -14 0 -6 5 -7 12 -3 7 4 8 3 4 -5 -9 -14 -26 -5 -26 15 0 8 8 14 18 13 10
0 12 -3 5 -6z m-248 -43 c0 -7 -7 -15 -15 -17 -13 -4 -13 -3 0 6 13 10 13 12
0 22 -13 9 -13 10 0 6 8 -2 15 -10 15 -17z m158 -7 c-24 -2 -62 -2 -85 0 -24
2 -5 4 42 4 47 0 66 -2 43 -4z m87 -3 c-13 -9 -13 -11 0 -20 9 -6 10 -10 3
-10 -6 0 -15 5 -18 10 -8 13 3 30 18 30 7 0 6 -4 -3 -10z m-292 -32 c-7 -19
-38 -22 -38 -4 0 10 9 16 21 16 12 0 19 -5 17 -12z m50 -11 c2 -11 -3 -17 -15
-17 -15 0 -16 2 -3 10 13 9 13 11 0 21 -13 9 -13 10 0 6 8 -2 16 -11 18 -20z
m155 16 c-24 -2 -62 -2 -85 0 -24 2 -5 4 42 4 47 0 66 -2 43 -4z m80 -30 c-5
-13 -3 -15 13 -9 15 6 17 5 7 -5 -15 -15 -40 2 -29 20 11 17 16 13 9 -6z
m-685 -36 c3 -14 -4 -17 -42 -15 -28 1 -46 6 -46 13 0 18 6 21 47 20 27 -1 39
-6 41 -18z m132 -2 c0 -9 -18 -13 -60 -13 -43 0 -60 4 -60 14 0 8 15 14 38 16
52 4 82 -2 82 -17z m70 -1 c0 -9 -11 -14 -30 -14 -36 0 -42 27 -7 32 28 5 37
1 37 -18z m130 8 c0 -15 -9 -19 -45 -20 -33 -2 -45 2 -45 12 0 10 13 16 38 19
20 2 40 4 45 5 4 1 7 -6 7 -16z m-100 -7 c0 -8 -4 -15 -10 -15 -5 0 -10 7 -10
15 0 8 5 15 10 15 6 0 10 -7 10 -15z m410 -2 c0 -5 -34 -8 -75 -9 -41 0 -75 3
-75 8 0 4 34 8 75 8 41 0 75 -3 75 -7z m51 -23 c6 0 7 5 3 12 -4 7 -3 8 5 4
14 -9 5 -26 -15 -26 -8 0 -14 8 -13 18 0 10 3 12 6 5 2 -7 9 -13 14 -13z m-53
-30 c31 -19 72 -73 72 -95 0 -5 -10 8 -23 30 -37 66 -122 94 -185 61 -37 -19
-71 -58 -82 -92 -6 -21 -9 -23 -9 -9 -1 30 43 90 81 108 45 22 106 21 146 -3z
m-681 -47 c-3 -10 -5 -2 -5 17 0 19 2 27 5 18 2 -10 2 -26 0 -35z m50 0 c-3
-10 -5 -2 -5 17 0 19 2 27 5 18 2 -10 2 -26 0 -35z m50 0 c-3 -10 -5 -2 -5 17
0 19 2 27 5 18 2 -10 2 -26 0 -35z m63 17 c0 -16 -4 -30 -10 -30 -5 0 -10 14
-10 30 0 17 5 30 10 30 6 0 10 -13 10 -30z m47 -17 c-3 -10 -5 -2 -5 17 0 19
2 27 5 18 2 -10 2 -26 0 -35z m50 0 c-3 -10 -5 -2 -5 17 0 19 2 27 5 18 2 -10
2 -26 0 -35z m50 0 c-3 -10 -5 -2 -5 17 0 19 2 27 5 18 2 -10 2 -26 0 -35z
m50 0 c-3 -10 -5 -2 -5 17 0 19 2 27 5 18 2 -10 2 -26 0 -35z m313 8 c57 -42
64 -120 14 -172 -73 -76 -197 -25 -197 81 0 97 104 149 183 91z m87 -93 c-3
-8 -6 -5 -6 6 -1 11 2 17 5 13 3 -3 4 -12 1 -19z m-897 -77 c0 -6 -4 -13 -10
-16 -5 -3 -10 1 -10 9 0 9 5 16 10 16 6 0 10 -4 10 -9z m30 -7 c0 -8 -4 -12
-10 -9 -5 3 -10 10 -10 16 0 5 5 9 10 9 6 0 10 -7 10 -16z"/>
<path d="M4990 3520 c0 -5 5 -10 10 -10 6 0 10 5 10 10 0 6 -4 10 -10 10 -5 0
-10 -4 -10 -10z"/>
<path d="M5040 3520 c0 -5 5 -10 10 -10 6 0 10 5 10 10 0 6 -4 10 -10 10 -5 0
-10 -4 -10 -10z"/>
<path d="M5090 3520 c0 -5 5 -10 10 -10 6 0 10 5 10 10 0 6 -4 10 -10 10 -5 0
-10 -4 -10 -10z"/>
<path d="M5200 3520 c0 -5 5 -10 11 -10 5 0 7 5 4 10 -3 6 -8 10 -11 10 -2 0
-4 -4 -4 -10z"/>
<path d="M5250 3520 c0 -5 5 -10 10 -10 6 0 10 5 10 10 0 6 -4 10 -10 10 -5 0
-10 -4 -10 -10z"/>
<path d="M5297 3516 c-4 -10 -1 -13 9 -9 15 6 19 23 5 23 -5 0 -11 -7 -14 -14z"/>
<path d="M5103 3443 c9 -2 23 -2 30 0 6 3 -1 5 -18 5 -16 0 -22 -2 -12 -5z"/>
<path d="M5158 3443 c7 -3 16 -2 19 1 4 3 -2 6 -13 5 -11 0 -14 -3 -6 -6z"/>
<path d="M5228 3443 c7 -3 16 -2 19 1 4 3 -2 6 -13 5 -11 0 -14 -3 -6 -6z"/>
<path d="M5273 3443 c9 -2 23 -2 30 0 6 3 -1 5 -18 5 -16 0 -22 -2 -12 -5z"/>
<path d="M5350 3520 c0 -5 5 -10 10 -10 6 0 10 5 10 10 0 6 -4 10 -10 10 -5 0
-10 -4 -10 -10z"/>
<path d="M5080 3131 c0 -40 1 -41 35 -41 35 0 35 1 33 38 -3 34 -6 37 -36 40
-31 3 -32 2 -32 -37z m45 19 c3 -5 -1 -10 -10 -10 -9 0 -13 5 -10 10 3 6 8 10
10 10 2 0 7 -4 10 -10z m5 -34 c0 -11 -19 -15 -25 -6 -3 5 1 10 9 10 9 0 16
-2 16 -4z"/>
<path d="M5160 3130 c0 -22 4 -40 9 -40 5 0 11 18 13 40 2 28 0 40 -9 40 -8 0
-13 -14 -13 -40z"/>
<path d="M5202 3158 c-7 -7 -12 -19 -12 -28 0 -43 63 -55 81 -16 10 21 15 23
35 14 32 -15 30 -30 -2 -22 -19 5 -25 4 -20 -5 4 -6 20 -11 37 -11 23 0 29 4
29 21 0 12 -8 23 -20 26 -11 3 -20 10 -20 15 0 5 10 6 21 3 15 -5 19 -4 15 4
-10 15 -53 14 -59 -1 -4 -10 -7 -10 -18 0 -17 15 -51 16 -67 0z m47 -40 c-10
-18 -12 -19 -27 -5 -13 13 -13 19 -2 32 19 23 44 0 29 -27z"/>
<path d="M326 3312 c0 -175 4 -324 9 -331 5 -9 4 -12 -2 -8 -11 7 -11 -38 0
-49 10 -11 9 -26 -2 -20 -5 4 -7 -4 -3 -16 l5 -22 9 24 c5 13 4 27 -2 35 -6 8
-5 17 4 30 10 14 15 15 21 5 5 -9 4 -11 -3 -6 -7 4 -12 2 -12 -4 0 -7 6 -10
14 -7 8 3 16 -2 19 -14 3 -10 1 -17 -4 -13 -17 10 -9 -5 18 -33 14 -15 23 -22
19 -16 -4 7 -9 22 -11 33 -3 17 -1 19 16 10 11 -6 19 -7 19 -1 0 5 14 6 35 1
19 -4 37 -4 40 0 3 5 14 7 25 5 11 -2 20 2 20 8 0 8 4 7 9 -2 8 -12 12 -12 24
-2 12 9 16 9 20 -1 4 -11 6 -10 6 0 1 7 5 11 10 8 4 -3 25 -8 45 -10 34 -4 36
-3 31 17 -6 21 -5 21 9 3 9 -10 13 -22 11 -26 -5 -8 26 -7 40 2 6 3 20 4 33 3
12 -1 22 2 22 7 0 4 -5 8 -11 8 -7 0 -18 8 -26 18 -8 11 -12 12 -11 3 2 -8 -6
-14 -19 -16 -12 -1 -20 2 -17 7 3 4 0 8 -7 8 -7 0 -3 10 9 23 12 13 19 27 15
31 -4 4 0 4 10 0 9 -3 17 -1 17 5 0 6 7 8 15 5 20 -8 19 6 -2 23 -10 8 -12 11
-4 7 11 -5 13 11 9 95 -3 86 -1 101 12 101 13 0 13 -1 0 -10 -10 -6 -11 -10
-2 -10 8 0 12 -23 12 -83 0 -53 5 -88 13 -96 6 -8 7 -11 2 -8 -6 3 -17 -8 -24
-24 -7 -16 -17 -27 -21 -24 -18 11 -18 -12 0 -27 16 -14 19 -14 24 -2 3 8 11
14 18 14 9 0 8 -3 -2 -10 -12 -8 -13 -13 -2 -30 6 -11 12 -22 12 -25 0 -4 -6
-3 -12 1 -9 5 -9 2 1 -9 17 -22 7 -22 -14 0 -14 14 -18 14 -26 2 -7 -11 -44
-14 -184 -15 -96 0 -175 4 -175 8 0 4 -5 8 -11 8 -6 0 -7 -5 -2 -12 4 -7 8
-33 9 -58 1 -25 2 -53 3 -62 1 -16 16 -18 176 -18 119 0 175 -3 175 -11 0 -6
-6 -9 -12 -6 -7 2 -35 -8 -63 -22 l-50 -26 92 -3 c103 -3 100 0 105 -87 2 -29
8 -41 21 -43 14 -3 17 4 17 47 0 38 4 51 14 51 11 0 16 -15 19 -52 l3 -53 2
52 2 51 73 -2 c46 -1 77 3 85 10 13 14 17 28 5 21 -5 -3 -9 13 -10 36 -1 23 2
35 7 28 6 -11 9 -11 14 0 3 8 3 4 0 -8 -8 -34 6 -92 21 -87 8 3 12 23 11 54
-1 27 1 44 5 38 11 -17 21 -5 13 15 -3 9 -12 13 -20 10 -9 -3 -14 2 -14 16 0
18 6 21 45 21 42 0 45 -2 46 -27 2 -49 7 -96 17 -163 l9 -65 3 55 c2 30 3 76
4 102 0 25 4 41 8 35 6 -9 11 -8 18 3 7 11 8 5 3 -20 -3 -19 -10 -36 -15 -38
-4 -2 -8 -8 -8 -14 0 -6 7 -8 14 -5 10 4 13 1 9 -9 -4 -10 0 -12 10 -8 19 7
31 55 22 86 -4 16 -3 19 3 9 8 -11 11 -11 16 0 3 8 3 0 0 -17 -6 -36 11 -88
26 -79 6 4 8 11 5 16 -3 5 1 6 9 3 9 -3 16 -2 16 4 0 6 -4 12 -8 14 -5 2 -11
19 -15 38 -3 19 -3 29 0 23 7 -19 26 -16 19 3 -3 8 -2 13 2 10 5 -3 7 -30 6
-60 -2 -42 1 -53 11 -49 17 6 29 55 20 85 -4 16 -3 19 3 9 8 -11 10 -11 14 0
3 8 5 -5 5 -28 -1 -23 -5 -40 -9 -37 -4 3 -8 1 -8 -5 0 -5 9 -12 19 -16 15 -5
21 -17 24 -53 3 -41 4 -40 3 9 -1 41 2 55 12 52 6 -3 12 0 12 6 0 6 -4 11 -10
11 -14 0 -12 39 3 53 16 15 40 21 32 7 -3 -5 -1 -10 4 -10 6 0 11 5 11 10 0 6
33 10 78 10 67 0 82 -3 98 -21 16 -18 28 -20 80 -17 50 3 59 1 48 -9 -21 -21
-111 -16 -137 7 -19 18 -33 21 -114 19 l-93 -2 6 -86 c7 -97 14 -119 14 -44
l0 50 110 0 109 0 4 -51 3 -51 2 53 c1 38 6 52 16 52 11 0 16 -15 19 -52 l3
-53 2 53 c2 39 6 52 17 52 11 0 15 -12 15 -51 0 -43 3 -50 18 -47 12 2 18 14
20 43 5 76 9 85 45 85 65 0 62 -25 65 465 2 300 -1 452 -8 465 -11 20 -24 20
-818 20 l-807 0 1 -318z m299 277 c0 -16 -236 -13 -247 4 -6 9 -11 8 -18 -3
-5 -8 -10 -10 -10 -4 0 6 2 13 4 15 2 2 64 3 138 2 93 -2 133 -6 133 -14z
m541 -17 c25 -29 32 -49 36 -95 3 -32 1 -60 -4 -63 -4 -3 -5 2 -2 10 3 9 2 16
-4 16 -6 0 -12 -6 -14 -12 -3 -7 -3 14 0 48 4 55 2 63 -20 80 -14 11 -23 25
-20 33 3 10 0 12 -12 8 -10 -4 -15 -3 -11 3 10 16 18 12 51 -28z m112 -2 c26
-31 32 -47 32 -84 0 -25 -4 -46 -10 -46 -5 0 -10 -5 -10 -11 0 -6 7 -8 16 -5
9 3 12 2 9 -5 -4 -5 -12 -8 -18 -6 -8 2 -11 25 -9 65 3 53 1 62 -17 72 -12 6
-21 21 -21 33 0 18 -2 19 -10 7 -8 -13 -10 -12 -10 3 0 26 12 21 48 -23z m-81
13 c6 4 19 -4 31 -16 15 -16 21 -39 24 -84 2 -38 -1 -62 -7 -60 -6 1 -9 25 -7
53 4 49 2 53 -32 80 -20 16 -36 34 -36 39 0 6 4 4 9 -4 5 -7 13 -11 18 -8z
m178 -78 c0 -78 -3 -95 -15 -94 -10 0 -11 2 -2 6 6 2 12 9 12 14 0 6 -4 7 -10
4 -15 -9 -13 133 3 150 6 8 12 14 12 15 0 0 0 -43 0 -95z m55 -5 c0 -45 -4
-69 -10 -65 -5 3 -10 2 -10 -4 0 -5 5 -12 10 -14 6 -3 6 -5 -1 -3 -7 1 -12 33
-13 92 -1 72 1 88 12 78 7 -8 12 -40 12 -84z m52 17 l-4 -83 34 -30 c23 -21
31 -33 24 -40 -7 -7 -21 2 -43 29 -30 36 -33 45 -33 108 0 42 5 76 13 84 6 8
12 14 12 15 0 0 -2 -37 -3 -83z m-724 45 c4 -28 -24 -40 -45 -19 -14 13 -14
19 -3 32 18 22 44 15 48 -13z m110 0 c4 -26 -22 -40 -43 -22 -11 9 -12 17 -4
32 13 25 43 19 47 -10z m107 -2 c0 -29 -32 -41 -41 -16 -9 24 4 48 23 44 12
-2 18 -12 18 -28z m120 9 c11 -16 1 -19 -13 -3 -7 8 -8 14 -3 14 5 0 13 -5 16
-11z m615 -6 c0 -9 -17 -13 -50 -13 -30 0 -50 4 -50 11 0 6 7 9 15 5 8 -3 15
-2 15 2 0 4 16 7 35 7 21 0 35 -5 35 -12z m110 0 c0 -8 -14 -13 -35 -13 -21 0
-35 5 -35 13 0 7 14 12 35 12 21 0 35 -5 35 -12z m88 -1 c2 -7 -7 -12 -22 -12
-15 0 -26 6 -26 13 0 17 42 15 48 -1z m-308 -2 c0 -5 -4 -10 -10 -10 -5 0 -10
5 -10 10 0 6 5 10 10 10 6 0 10 -4 10 -10z m140 0 c0 -5 -4 -10 -10 -10 -5 0
-10 5 -10 10 0 6 5 10 10 10 6 0 10 -4 10 -10z m110 0 c0 -5 -4 -10 -10 -10
-5 0 -10 5 -10 10 0 6 5 10 10 10 6 0 10 -4 10 -10z m-315 -29 c-6 -5 -25 10
-25 20 0 5 6 4 14 -3 8 -7 12 -15 11 -17z m-1065 -11 c0 -16 -7 -20 -35 -20
-28 0 -35 4 -35 20 0 16 7 20 35 20 28 0 35 -4 35 -20z m110 0 c0 -16 -7 -20
-35 -20 -28 0 -35 4 -35 20 0 16 7 20 35 20 28 0 35 -4 35 -20z m75 1 c-3 -6
-11 -11 -16 -11 -5 0 -4 6 3 14 14 16 24 13 13 -3z m436 -23 c-10 -11 -11 -9
-5 6 6 15 4 17 -6 11 -9 -6 -11 -4 -5 4 5 9 10 10 18 2 8 -8 7 -14 -2 -23z
m-67 6 c3 -8 2 -12 -4 -9 -6 3 -10 10 -10 16 0 14 7 11 14 -7z m-220 -1 c-5
-5 -12 -12 -16 -18 -4 -6 -8 -2 -8 8 0 9 7 17 17 17 9 0 12 -3 7 -7z m724 -7
c-7 -8 -15 -12 -17 -11 -5 6 10 25 20 25 5 0 4 -6 -3 -14z m-1058 -26 c0 -16
-7 -20 -35 -20 -28 0 -35 4 -35 20 0 16 7 20 35 20 28 0 35 -4 35 -20z m55 0
c-3 -5 -1 -10 4 -10 6 0 11 5 11 10 0 7 38 10 108 8 59 -2 106 -7 105 -12 -2
-6 -189 -11 -239 -7 -6 1 5 21 12 21 3 0 2 -4 -1 -10z m571 -19 c2 -7 0 -7 -3
-1 -2 5 -9 10 -14 10 -6 0 -7 -4 -4 -10 4 -6 -25 -10 -79 -10 -51 0 -86 4 -86
10 0 6 -5 10 -11 10 -5 0 -8 -4 -5 -8 3 -5 -7 -22 -23 -38 -15 -16 -30 -37
-34 -46 -7 -20 -22 -23 -32 -8 -3 6 1 7 10 4 11 -5 15 -2 13 7 -2 8 12 32 30
54 l34 40 101 -1 c67 -1 102 -6 103 -13z m-290 -3 c5 -7 3 -8 -6 -3 -10 6 -12
4 -6 -11 5 -14 4 -16 -5 -7 -6 6 -8 16 -5 22 9 14 13 14 22 -1z m729 -20 c6
-4 2 -8 -7 -8 -10 0 -18 7 -18 17 0 9 3 12 8 7 4 -5 12 -12 17 -16z m-1065
-18 c0 -16 -7 -20 -35 -20 -28 0 -35 4 -35 20 0 16 7 20 35 20 28 0 35 -4 35
-20z m240 8 c0 -4 -44 -8 -97 -8 -54 0 -92 4 -85 8 16 11 182 10 182 0z m890
-13 c0 -8 -4 -15 -10 -15 -5 0 -10 7 -10 15 0 8 5 15 10 15 6 0 10 -7 10 -15z
m30 0 c0 -8 -4 -15 -10 -15 -5 0 -10 7 -10 15 0 8 5 15 10 15 6 0 10 -7 10
-15z m80 1 c0 -6 -16 -11 -35 -11 -19 0 -35 5 -35 11 0 6 16 11 35 11 19 0 35
-5 35 -11z m30 -1 c0 -8 -4 -15 -10 -15 -5 0 -10 7 -10 15 0 8 5 15 10 15 6 0
10 -7 10 -15z m80 0 c0 -8 -14 -12 -35 -11 -46 1 -46 23 0 23 21 0 35 -5 35
-12z m30 6 c0 -6 -4 -13 -10 -16 -5 -3 -10 1 -10 9 0 9 5 16 10 16 6 0 10 -4
10 -9z m30 0 c0 -6 -4 -13 -10 -16 -5 -3 -10 1 -10 9 0 9 5 16 10 16 6 0 10
-4 10 -9z m25 0 c3 -5 1 -12 -5 -16 -5 -3 -10 1 -10 9 0 18 6 21 15 7z m-895
-48 c0 -21 -5 -23 -45 -23 -40 0 -45 2 -45 23 0 20 5 23 45 23 40 0 45 -3 45
-23z m100 0 c0 -21 -5 -23 -45 -23 -40 0 -45 2 -45 23 0 20 5 23 45 23 40 0
45 -3 45 -23z m30 16 c0 -5 5 -7 12 -3 7 4 22 9 35 10 18 2 23 -2 23 -22 0
-22 -4 -24 -45 -24 -41 0 -45 2 -45 25 0 14 5 25 10 25 6 0 10 -5 10 -11z
m168 -18 c3 -19 -1 -21 -42 -19 -40 1 -46 4 -46 23 0 20 5 22 43 20 35 -2 43
-6 45 -24z m33 7 c2 -23 2 -23 6 -1 6 30 57 26 61 -6 3 -19 -1 -21 -42 -21
-42 0 -46 2 -46 25 0 31 19 33 21 3z m-871 -11 c0 -20 -5 -23 -35 -23 -29 1
-35 5 -35 24 0 19 5 22 35 22 30 0 35 -3 35 -23z m310 -123 c0 -83 -4 -134
-10 -134 -5 0 -10 -5 -10 -11 0 -5 5 -7 10 -4 6 3 10 1 10 -5 0 -7 -5 -10 -11
-8 -13 4 -19 278 -5 278 4 0 5 7 2 16 -3 8 -2 12 4 9 6 -4 10 -63 10 -141z
m900 106 c0 -17 -7 -20 -40 -20 -33 0 -40 3 -40 20 0 17 7 20 40 20 33 0 40
-3 40 -20z m108 3 c-2 -13 -14 -19 -41 -21 -32 -3 -37 0 -37 17 0 18 6 21 41
21 33 0 40 -3 37 -17z m110 0 c-2 -13 -13 -18 -38 -18 -25 0 -36 5 -38 18 -3
14 4 17 38 17 34 0 41 -3 38 -17z m-1191 -16 c3 -4 -38 -7 -93 -7 -54 0 -93 4
-87 8 15 9 170 8 180 -1z m188 -7 c-3 -5 -6 -50 -6 -100 0 -80 -2 -90 -18 -90
-15 0 -18 8 -18 45 0 26 4 45 11 45 6 0 4 5 -4 10 -13 9 -13 11 0 20 8 5 10
10 4 10 -6 0 -11 13 -12 29 0 23 4 31 21 34 12 2 23 5 25 6 2 0 0 -3 -3 -9z
m-425 -20 c0 -16 -7 -20 -35 -20 -28 0 -35 4 -35 20 0 16 7 20 35 20 28 0 35
-4 35 -20z m1006 -25 c1 -34 -3 -45 -15 -46 -14 -1 -14 -2 1 -6 22 -6 17 -57
-6 -61 -13 -3 -16 5 -16 42 0 30 4 46 13 46 7 0 6 4 -4 10 -12 7 -17 35 -10
58 1 1 9 2 19 2 15 0 18 -8 18 -45z m55 -204 c0 -134 -3 -246 -6 -249 -3 -4
-3 1 1 11 3 10 1 17 -5 17 -8 0 -11 67 -11 225 0 173 3 225 13 225 8 0 7 4 -3
11 -10 7 -10 9 -2 7 10 -3 13 -55 13 -247z m69 214 c0 -8 -4 -15 -10 -15 -5 0
-10 7 -10 15 0 8 5 15 10 15 6 0 10 -7 10 -15z m80 0 c0 -10 -11 -15 -35 -15
-23 0 -35 5 -35 13 0 9 13 14 35 15 25 1 35 -3 35 -13z m26 -12 c-10 -10 -19
5 -10 18 6 11 8 11 12 0 2 -7 1 -15 -2 -18z m34 12 c0 -8 -4 -15 -10 -15 -5 0
-10 7 -10 15 0 8 5 15 10 15 6 0 10 -7 10 -15z m80 -2 c0 -8 -14 -13 -35 -13
-21 0 -35 5 -35 13 0 7 14 12 35 12 21 0 35 -5 35 -12z m30 2 c0 -8 -4 -15
-10 -15 -5 0 -10 7 -10 15 0 8 5 15 10 15 6 0 10 -7 10 -15z m58 -3 c2 -7 -7
-12 -22 -12 -15 0 -26 6 -26 13 0 17 42 15 48 -1z m-1438 -37 c0 -22 -4 -25
-35 -25 -31 0 -35 3 -35 25 0 22 4 25 35 25 31 0 35 -3 35 -25z m240 7 c0 -5
-43 -9 -95 -10 -53 0 -95 4 -95 9 0 5 43 9 95 9 52 0 95 -4 95 -8z m-240 -62
c0 -16 -7 -20 -35 -20 -28 0 -35 4 -35 20 0 16 7 20 35 20 28 0 35 -4 35 -20z
m236 -27 c-10 -10 -162 -11 -178 -2 -7 5 30 9 86 9 55 0 96 -3 92 -7z m-236
-28 c0 -22 -4 -25 -34 -25 -19 0 -36 6 -39 13 -8 24 6 37 39 37 30 0 34 -3 34
-25z m608 -7 c20 -17 -2 -32 -25 -17 -39 24 -71 -8 -59 -56 5 -20 13 -25 36
-25 35 0 50 19 21 27 -31 8 -25 23 9 23 27 0 30 -3 30 -30 0 -32 -26 -50 -71
-50 -43 0 -78 77 -51 116 22 33 77 39 110 12z m402 12 c0 -5 -9 -10 -20 -10
-11 0 -20 5 -20 10 0 6 9 10 20 10 11 0 20 -4 20 -10z m-252 -35 c4 -33 -18
-55 -55 -55 -18 0 -23 -6 -23 -25 0 -16 -6 -25 -15 -25 -12 0 -15 15 -15 71
l0 70 53 -3 c49 -3 52 -4 55 -33z m54 -17 c3 -49 5 -53 28 -53 23 0 25 4 28
53 2 38 7 52 18 52 12 0 14 -12 12 -57 -3 -51 -6 -59 -30 -73 -25 -13 -31 -13
-55 0 -25 14 -28 22 -31 73 -2 45 0 57 12 57 11 0 16 -14 18 -52z m318 42 c0
-5 -4 -10 -10 -10 -5 0 -10 5 -10 10 0 6 5 10 10 10 6 0 10 -4 10 -10z m30 0
c0 -5 -4 -10 -10 -10 -5 0 -10 5 -10 10 0 6 5 10 10 10 6 0 10 -4 10 -10z m80
2 c0 -5 -16 -9 -35 -10 -19 -1 -35 3 -35 8 0 6 16 10 35 10 19 0 35 -4 35 -8z
m30 -2 c0 -5 -4 -10 -10 -10 -5 0 -10 5 -10 10 0 6 5 10 10 10 6 0 10 -4 10
-10z m80 0 c0 -5 -16 -9 -35 -8 -19 1 -35 5 -35 10 0 4 16 8 35 8 19 0 35 -4
35 -10z m30 0 c0 -5 -4 -10 -10 -10 -5 0 -10 5 -10 10 0 6 5 10 10 10 6 0 10
-4 10 -10z m60 1 c0 -5 -11 -8 -25 -8 -14 0 -25 3 -25 8 0 5 11 9 25 9 14 0
25 -4 25 -9z m-1020 -56 c0 -37 -3 -45 -18 -45 -15 0 -19 9 -20 45 -2 39 1 45
18 45 17 0 20 -7 20 -45z m584 15 c0 -16 -6 -26 -17 -28 -13 -3 -17 4 -17 28
0 24 4 31 17 28 11 -2 17 -12 17 -28z m-764 5 c9 5 11 4 6 -3 -5 -8 -41 -12
-103 -12 -53 0 -94 3 -90 6 3 3 40 6 81 6 48 1 76 5 76 12 0 6 4 5 9 -3 5 -8
14 -10 21 -6z m-240 -15 c0 -17 -7 -20 -40 -20 -27 0 -40 4 -40 13 0 21 11 27
47 27 26 0 33 -4 33 -20z m1203 1 c4 -1 7 -8 7 -16 0 -11 -11 -15 -40 -15 -27
0 -40 4 -40 13 0 21 11 28 39 23 14 -2 29 -5 34 -5z m115 -13 c3 -15 -4 -18
-37 -18 -28 0 -41 4 -41 13 0 21 9 25 43 24 21 -1 33 -8 35 -19z m96 16 c33
-13 17 -34 -24 -34 -27 0 -40 4 -40 13 0 26 28 35 64 21z m-312 -13 c8 11 9
11 6 1 -4 -16 -22 -18 -24 -2 -2 7 -1 6 3 -1 4 -8 8 -7 15 2z m-1098 -68 c0
-23 3 -40 7 -37 4 2 11 -1 14 -6 5 -8 13 -6 26 6 12 11 19 13 19 5 0 -9 5 -9
21 -1 13 7 25 8 32 2 7 -5 21 -7 32 -5 27 6 85 11 85 8 0 -1 -8 -9 -17 -16
-14 -12 -16 -12 -9 0 6 9 5 12 -3 10 -7 -3 -12 -9 -12 -14 0 -15 -25 -26 -43
-19 -9 3 -13 11 -10 18 3 6 -3 0 -14 -13 -12 -15 -22 -20 -26 -13 -6 11 -37 9
-56 -3 -5 -3 -14 4 -20 15 -6 11 -16 17 -22 14 -6 -4 -26 -7 -45 -6 -23 1 -32
-2 -27 -10 4 -7 3 -8 -4 -4 -15 9 -36 47 -25 45 4 -1 15 1 23 4 8 3 26 8 40
10 17 3 14 5 -12 6 -30 1 -38 5 -38 19 0 27 10 33 49 30 34 -3 35 -4 35 -45z
m1006 37 c0 -5 -9 -10 -20 -10 -11 0 -20 5 -20 10 0 6 9 10 20 10 11 0 20 -4
20 -10z m-591 -114 c0 -81 -3 -96 -20 -112 -16 -15 -19 -15 -14 -2 4 9 1 19
-6 24 -7 4 -10 3 -7 -2 7 -12 -5 -46 -16 -44 -5 1 -13 -4 -17 -12 -6 -9 -9 -6
-9 10 0 13 4 21 9 17 5 -3 13 -1 16 5 4 6 1 9 -7 8 -8 -2 -14 9 -16 30 -2 17
1 32 7 32 6 0 8 -7 4 -16 -5 -14 -3 -15 16 -4 12 6 20 17 18 23 -2 7 0 20 5
31 7 12 7 16 0 12 -6 -3 -13 -2 -17 4 -3 5 -1 10 4 10 6 0 11 16 11 36 0 24
-4 33 -12 28 -7 -4 -8 -3 -4 4 4 7 18 12 31 12 24 0 24 -2 24 -94z m586 47 c2
-36 -1 -43 -16 -43 -16 0 -19 8 -19 46 0 37 3 45 17 42 11 -2 17 -15 18 -45z
m125 31 c0 -8 -4 -12 -10 -9 -5 3 -10 10 -10 16 0 5 5 9 10 9 6 0 10 -7 10
-16z m110 1 c0 -7 -17 -11 -50 -11 -30 1 -50 6 -50 12 0 7 20 11 50 11 32 0
50 -4 50 -12z m30 6 c0 -6 -4 -13 -10 -16 -5 -3 -10 1 -10 9 0 9 5 16 10 16 6
0 10 -4 10 -9z m80 -5 c0 -6 -16 -11 -35 -11 -19 0 -35 5 -35 11 0 6 16 11 35
11 19 0 35 -5 35 -11z m30 -1 c0 -8 -4 -15 -10 -15 -5 0 -10 7 -10 15 0 8 5
15 10 15 6 0 10 -7 10 -15z m60 4 c0 -5 -4 -9 -9 -9 -5 0 -16 -3 -25 -6 -10
-4 -16 -1 -16 9 0 9 10 15 25 15 14 0 25 -4 25 -9z m-1201 -13 c-6 -7 -198
-10 -205 -4 -3 3 44 6 103 7 59 1 105 0 102 -3z m-219 -68 c0 -4 -9 -8 -20 -8
-11 0 -20 4 -20 9 0 6 9 9 20 8 11 -1 20 -5 20 -9z m200 2 c0 -5 -5 -10 -11
-10 -5 0 -7 5 -4 10 3 6 8 10 11 10 2 0 4 -4 4 -10z m786 -55 c0 -37 -4 -45
-18 -45 -15 0 -18 8 -18 45 0 37 3 45 18 45 14 0 18 -8 18 -45z m120 -32 c-10
-10 -19 5 -10 18 6 11 8 11 12 0 2 -7 1 -15 -2 -18z m34 7 c0 -5 -4 -10 -10
-10 -5 0 -10 5 -10 10 0 6 5 10 10 10 6 0 10 -4 10 -10z m80 2 c0 -5 -16 -9
-35 -9 -19 0 -35 4 -35 9 0 4 16 8 35 8 19 0 35 -4 35 -8z m30 -2 c0 -5 -4
-10 -10 -10 -5 0 -10 5 -10 10 0 6 5 10 10 10 6 0 10 -4 10 -10z m80 2 c0 -5
-16 -9 -35 -9 -19 0 -35 4 -35 9 0 4 16 8 35 8 19 0 35 -4 35 -8z m30 -2 c0
-5 -4 -10 -10 -10 -5 0 -10 5 -10 10 0 6 5 10 10 10 6 0 10 -4 10 -10z m60 1
c0 -5 -11 -8 -25 -8 -14 0 -25 3 -25 8 0 5 11 9 25 9 14 0 25 -4 25 -9z m-135
-50 c-3 -6 -11 -11 -16 -11 -5 0 -4 6 3 14 14 16 24 13 13 -3z m-64 -17 c9 -8
36 -14 63 -14 26 0 53 -6 60 -13 24 -23 -115 -9 -140 15 -18 16 -33 18 -93 15
-39 -2 -71 0 -71 5 0 4 -5 8 -11 8 -5 0 -7 -5 -3 -12 4 -7 3 -8 -5 -4 -25 16
1 21 91 18 61 -3 98 -9 109 -18z m-701 -3 c0 -15 -8 -18 -45 -18 -37 0 -45 3
-45 18 0 16 8 19 45 19 37 0 45 -3 45 -19z m100 1 c0 -15 -8 -18 -45 -18 -37
-1 -45 2 -45 18 0 15 8 18 45 18 37 0 45 -3 45 -18z m200 0 c0 -15 -8 -18 -45
-18 -36 -1 -45 3 -45 16 0 13 10 17 45 18 37 2 45 -1 45 -16z m30 -2 c0 -11
-4 -20 -10 -20 -5 0 -10 9 -10 20 0 11 5 20 10 20 6 0 10 -9 10 -20z m70 1 c0
-15 -7 -19 -30 -19 -22 1 -30 6 -30 20 0 13 7 18 30 18 23 0 30 -5 30 -19z
m-526 -37 c16 -24 22 -25 94 -23 58 2 77 -1 77 -11 0 -10 -19 -13 -80 -11 -84
3 -119 18 -108 49 5 12 2 14 -11 9 -10 -4 -15 -3 -11 3 10 16 22 12 39 -16z"/>
<path d="M1150 3101 c0 -16 6 -21 26 -21 33 0 30 33 -4 38 -17 3 -22 -2 -22
-17z"/>
<path d="M643 2963 c-15 -5 -17 -23 -4 -23 5 0 11 7 15 15 3 8 4 15 3 14 -1 0
-8 -3 -14 -6z"/>
<path d="M520 2950 c0 -5 5 -10 10 -10 6 0 10 5 10 10 0 6 -4 10 -10 10 -5 0
-10 -4 -10 -10z"/>
<path d="M4570 3455 c0 -25 4 -45 9 -45 5 0 7 8 4 19 -3 10 0 22 6 25 7 5 10
-1 8 -15 -2 -21 1 -22 89 -23 61 -1 97 -6 108 -15 10 -9 16 -10 16 -2 0 6 -6
11 -12 12 -7 0 -1 5 15 11 31 11 34 24 11 56 -14 21 -22 22 -135 22 l-119 0 0
-45z m247 0 c0 -8 -4 -12 -9 -9 -5 3 -6 10 -3 15 9 13 12 11 12 -6z m-84 -10
c-3 -9 -8 -14 -10 -11 -3 3 -2 9 2 15 9 16 15 13 8 -4z"/>
<path d="M4845 3470 c-3 -5 -1 -10 4 -10 6 0 11 5 11 10 0 6 -2 10 -4 10 -3 0
-8 -4 -11 -10z"/>
<path d="M4890 3380 c0 -5 5 -10 11 -10 5 0 7 5 4 10 -3 6 -8 10 -11 10 -2 0
-4 -4 -4 -10z"/>
<path d="M4795 3350 c3 -5 8 -10 11 -10 2 0 4 5 4 10 0 6 -5 10 -11 10 -5 0
-7 -4 -4 -10z"/>
<path d="M4578 3333 c6 -2 10 -8 7 -12 -2 -5 5 -8 17 -7 37 2 34 26 -4 25 -18
0 -27 -3 -20 -6z"/>
<path d="M4640 3330 c0 -5 20 -10 45 -10 25 0 45 5 45 10 0 6 -20 10 -45 10
-25 0 -45 -4 -45 -10z"/>
<path d="M4743 3326 c2 -6 12 -11 23 -11 14 0 19 -7 18 -27 -1 -15 3 -25 8
-22 4 3 6 9 3 14 -3 4 1 11 7 14 9 3 8 8 -5 16 -9 6 -16 14 -13 18 2 4 -7 8
-20 8 -15 1 -23 -3 -21 -10z"/>
<path d="M4895 3309 c-4 -6 -5 -12 -2 -15 2 -3 7 2 10 11 7 17 1 20 -8 4z"/>
<path d="M4578 3282 c6 -2 10 -7 7 -12 -2 -4 6 -7 19 -7 12 0 23 5 23 12 0 6
-14 12 -31 12 -17 0 -25 -2 -18 -5z"/>
<path d="M4735 3276 c24 -18 38 -20 33 -4 -2 6 -15 13 -28 15 -24 3 -24 3 -5
-11z"/>
<path d="M4795 3250 c-3 -5 -1 -10 4 -10 6 0 11 5 11 10 0 6 -2 10 -4 10 -3 0
-8 -4 -11 -10z"/>
<path d="M4829 3243 c-12 -16 -12 -17 2 -6 9 7 19 10 22 6 4 -3 7 -1 7 5 0 17
-16 15 -31 -5z"/>
<path d="M4577 3233 c-10 -9 -9 -23 1 -23 5 0 9 7 9 15 0 17 -1 18 -10 8z"/>
<path d="M4734 3225 c6 -7 13 -9 16 -5 3 4 12 9 20 12 8 3 1 6 -16 5 -25 0
-29 -3 -20 -12z"/>
<path d="M4795 3200 c-3 -5 -1 -10 4 -10 6 0 11 5 11 10 0 6 -2 10 -4 10 -3 0
-8 -4 -11 -10z"/>
<path d="M4575 3180 c-3 -6 1 -7 9 -4 18 7 21 14 7 14 -6 0 -13 -4 -16 -10z"/>
<path d="M4756 3178 c3 -5 10 -6 15 -3 13 9 11 12 -6 12 -8 0 -12 -4 -9 -9z"/>
<path d="M4830 3180 c8 -5 20 -10 25 -10 6 0 3 5 -5 10 -8 5 -19 10 -25 10 -5
0 -3 -5 5 -10z"/>
<path d="M4870 3176 c0 -2 8 -10 18 -17 15 -13 16 -12 3 4 -13 16 -21 21 -21
13z"/>
<path d="M4795 3151 c-3 -5 -1 -12 5 -16 5 -3 10 1 10 9 0 18 -6 21 -15 7z"/>
<path d="M4795 3090 c3 -5 8 -10 11 -10 2 0 4 5 4 10 0 6 -5 10 -11 10 -5 0
-7 -4 -4 -10z"/>
<path d="M4795 3040 c3 -5 8 -10 11 -10 2 0 4 5 4 10 0 6 -5 10 -11 10 -5 0
-7 -4 -4 -10z"/>
<path d="M4795 2990 c-3 -5 -1 -10 4 -10 6 0 11 5 11 10 0 6 -2 10 -4 10 -3 0
-8 -4 -11 -10z"/>
<path d="M740 2959 c0 -5 5 -7 10 -4 6 3 10 8 10 11 0 2 -4 4 -10 4 -5 0 -10
-5 -10 -11z"/>
<path d="M4795 2940 c-3 -5 -1 -10 4 -10 6 0 11 5 11 10 0 6 -2 10 -4 10 -3 0
-8 -4 -11 -10z"/>
<path d="M4795 2890 c-3 -5 1 -10 10 -10 9 0 13 5 10 10 -3 6 -8 10 -10 10 -2
0 -7 -4 -10 -10z"/>
<path d="M4795 2830 c4 -6 11 -8 16 -5 14 9 11 15 -7 15 -8 0 -12 -5 -9 -10z"/>
<path d="M346 2784 c-5 -14 -4 -15 9 -4 17 14 19 20 6 20 -5 0 -12 -7 -15 -16z"/>
<path d="M4640 2780 c0 -5 5 -10 10 -10 6 0 10 5 10 10 0 6 -4 10 -10 10 -5 0
-10 -4 -10 -10z"/>
<path d="M4740 2780 c0 -5 5 -10 10 -10 6 0 10 5 10 10 0 6 -4 10 -10 10 -5 0
-10 -4 -10 -10z"/>
<path d="M4795 2780 c3 -5 8 -10 11 -10 2 0 4 5 4 10 0 6 -5 10 -11 10 -5 0
-7 -4 -4 -10z"/>
<path d="M1169 2768 c0 -2 -3 -21 -5 -43 -3 -22 -9 -41 -14 -43 -6 -2 -10 -8
-10 -14 0 -6 7 -7 16 -4 14 5 15 4 5 -8 -7 -8 -11 -34 -8 -63 l3 -48 2 53 c2
38 6 52 16 52 11 0 16 -15 19 -47 l4 -48 -1 53 c-1 28 2 52 7 52 4 0 7 5 7 11
0 5 -4 8 -9 5 -5 -4 -5 10 0 31 5 24 4 42 -3 50 -9 11 -27 18 -29 11z"/>
<path d="M405 2740 c-3 -5 -1 -10 4 -10 6 0 11 5 11 10 0 6 -2 10 -4 10 -3 0
-8 -4 -11 -10z"/>
<path d="M5070 2680 c0 -5 5 -10 10 -10 6 0 10 5 10 10 0 6 -4 10 -10 10 -5 0
-10 -4 -10 -10z"/>
<path d="M5125 2680 c3 -5 8 -10 11 -10 2 0 4 5 4 10 0 6 -5 10 -11 10 -5 0
-7 -4 -4 -10z"/>
<path d="M5280 2680 c0 -5 5 -10 10 -10 6 0 10 5 10 10 0 6 -4 10 -10 10 -5 0
-10 -4 -10 -10z"/>
<path d="M5330 2680 c0 -5 5 -10 10 -10 6 0 10 5 10 10 0 6 -4 10 -10 10 -5 0
-10 -4 -10 -10z"/>
<path d="M5385 2680 c3 -5 8 -10 11 -10 2 0 4 5 4 10 0 6 -5 10 -11 10 -5 0
-7 -4 -4 -10z"/>
<path d="M1112 2605 c0 -16 2 -22 5 -12 2 9 2 23 0 30 -3 6 -5 -1 -5 -18z"/>
<path d="M1422 2605 c0 -16 2 -22 5 -12 2 9 2 23 0 30 -3 6 -5 -1 -5 -18z"/>
<path d="M1542 2585 c0 -16 2 -22 5 -12 2 9 2 23 0 30 -3 6 -5 -1 -5 -18z"/>
<path d="M1691 2574 c0 -11 3 -14 6 -6 3 7 2 16 -1 19 -3 4 -6 -2 -5 -13z"/>
<path d="M533 1822 c-54 -8 -53 14 -53 -782 l0 -737 23 -21 23 -22 522 0 c509
0 523 1 542 20 20 20 20 33 20 758 l0 739 -24 22 -25 23 -503 2 c-277 0 -513
0 -525 -2z m506 -62 c-417 -4 -519 -8 -532 -19 -12 -9 -17 -10 -17 -2 0 6 10
16 23 21 12 5 247 8 532 7 l510 -2 -516 -5z m552 -17 c13 -17 13 -17 -6 -3
-11 8 -22 16 -24 17 -2 2 0 3 6 3 6 0 17 -8 24 -17z m-130 -114 l89 -82 0
-133 0 -134 -52 0 c-51 0 -54 2 -115 62 -35 34 -63 70 -63 79 0 9 -7 22 -15
29 -16 13 -49 -5 -93 -52 l-22 -25 76 -37 c192 -96 312 -306 289 -509 -6 -59
-44 -174 -64 -199 -6 -7 -29 -36 -51 -65 -118 -154 -327 -226 -515 -178 -136
36 -268 140 -338 267 -163 296 38 677 385 730 l77 11 77 78 78 78 -24 26 c-23
25 -26 25 -172 25 l-148 0 0 55 0 55 256 0 256 0 89 -81z m-751 -28 c14 -26
13 -74 -2 -89 -7 -7 -30 -12 -53 -12 -50 0 -65 13 -65 60 0 47 15 60 67 60 32
0 45 -5 53 -19z m-45 -231 c-3 -6 1 -7 10 -4 13 6 16 1 13 -22 -3 -28 -5 -29
-57 -29 -41 0 -56 4 -65 18 -9 15 -7 21 8 33 22 16 101 20 91 4z m-95 -155 c0
-8 -7 -15 -15 -15 -8 0 -15 7 -15 15 0 8 7 15 15 15 8 0 15 -7 15 -15z m967
-2 c2 -6 -3 -13 -12 -16 -10 -5 -15 0 -15 14 0 21 21 22 27 2z m-951 -844 c8
-14 -11 -33 -25 -25 -11 7 -4 36 9 36 5 0 12 -5 16 -11z m934 -3 c0 -16 -18
-31 -27 -22 -8 8 5 36 17 36 5 0 10 -6 10 -14z"/>
<path d="M917 1659 c5 -19 3 -21 -13 -15 -15 6 -16 4 -7 -5 6 -6 19 -9 28 -5
18 7 17 37 -2 43 -7 3 -9 -4 -6 -18z"/>
<path d="M1357 1649 c5 -19 3 -21 -13 -15 -15 6 -16 4 -7 -5 6 -6 19 -9 28 -5
18 7 17 37 -2 43 -7 3 -9 -4 -6 -18z"/>
<path d="M1488 1548 c15 -19 0 -34 -20 -22 -10 6 -9 3 0 -8 8 -9 20 -14 28
-11 19 7 14 45 -6 51 -13 4 -13 3 -2 -10z"/>
<path d="M1150 1483 c-29 -32 -123 -132 -210 -223 l-157 -165 27 -22 27 -22
57 58 c49 50 54 58 34 57 -38 -2 -28 37 25 93 50 53 65 59 85 39 17 -17 16
-23 -20 -65 -17 -21 2 -6 43 33 41 38 107 101 147 139 l72 69 -32 33 c-17 18
-35 33 -39 33 -4 0 -31 -26 -59 -57z m61 -19 c17 -21 0 -49 -32 -49 -24 0 -36
23 -25 51 7 19 40 18 57 -2z"/>
<path d="M1494 1323 c0 -11 -6 -17 -16 -17 -10 1 -15 -2 -12 -7 8 -13 42 -11
47 4 5 15 -2 37 -13 37 -4 0 -7 -8 -6 -17z"/>
<path d="M742 1068 c-21 -21 -15 -68 11 -77 46 -18 86 38 52 73 -19 19 -46 21
-63 4z"/>
<path d="M959 959 c-16 -17 -29 -36 -29 -43 0 -6 8 1 17 16 10 15 31 34 48 43
21 10 24 15 12 15 -11 0 -32 -14 -48 -31z"/>
<path d="M1080 979 c64 -26 90 -85 65 -146 -16 -36 -17 -37 -26 -15 -4 12 -14
22 -20 22 -8 0 -9 -4 0 -13 6 -8 8 -17 4 -20 -3 -4 -1 -7 7 -7 23 0 -9 -28
-41 -35 -29 -6 -99 10 -99 23 1 18 19 34 30 27 8 -5 11 -3 8 5 -7 23 -28 23
-36 0 -7 -20 -9 -20 -22 -5 -7 9 -17 33 -21 53 -6 33 -7 34 -8 9 -3 -70 52
-127 122 -127 71 0 139 81 123 146 -9 34 -68 94 -92 93 -15 0 -13 -3 6 -10z"/>
<path d="M1046 959 c3 -6 0 -15 -7 -20 -11 -7 -11 -9 2 -9 9 0 18 3 22 6 8 8
-3 34 -15 34 -5 0 -6 -5 -2 -11z"/>
<path d="M974 939 c-5 -8 -3 -9 6 -4 10 6 12 3 7 -14 -3 -14 -1 -21 6 -18 15
5 16 39 0 44 -6 2 -15 -1 -19 -8z"/>
<path d="M1087 944 c-4 -4 -7 -14 -7 -23 0 -13 2 -13 9 -2 5 8 14 10 21 6 8
-5 11 -3 8 5 -5 16 -22 23 -31 14z"/>
<path d="M963 879 c9 -6 14 -16 11 -22 -5 -9 -4 -9 6 0 15 14 5 33 -18 33 -15
-1 -15 -2 1 -11z"/>
<path d="M1100 879 c0 -5 5 -7 11 -3 6 3 15 0 20 -7 7 -11 9 -10 9 4 0 10 -8
17 -20 17 -11 0 -20 -5 -20 -11z"/>
<path d="M1046 794 c-9 -23 -2 -28 13 -10 7 8 8 17 3 20 -6 3 -13 -1 -16 -10z"/>
<path d="M4447 1248 c-3 -79 -2 -134 3 -136 6 -2 3 -10 -5 -19 -13 -12 -15
-46 -13 -201 l3 -187 783 -3 782 -2 0 194 c0 132 -4 197 -11 202 -6 4 -7 9 -2
13 5 3 7 62 4 136 l-6 130 -766 3 -766 2 -6 -132z m478 -73 c39 -7 105 -17
148 -21 87 -8 104 -24 25 -24 -102 0 -269 37 -284 62 -5 8 1 9 17 4 13 -4 56
-13 94 -21z m473 -72 c-115 -2 -301 -2 -415 0 -115 1 -21 2 207 2 228 0 322
-1 208 -2z m522 -83 c0 -7 -240 -10 -700 -10 -460 0 -700 3 -700 10 0 7 240
10 700 10 460 0 700 -3 700 -10z m-832 -48 c2 -8 -2 -10 -13 -6 -10 4 -21 1
-25 -7 -12 -18 -3 -29 23 -30 21 0 21 -1 2 -8 -39 -16 -64 37 -27 58 20 12 34
10 40 -7z m66 2 c22 -21 4 -54 -29 -54 -28 0 -30 6 -15 44 11 30 22 32 44 10z
m32 -35 c-18 -41 -21 -26 -4 22 6 18 13 29 15 23 2 -6 -3 -26 -11 -45z m76 27
c12 -17 -12 -46 -37 -46 -28 0 -30 6 -15 44 7 19 14 24 27 19 10 -4 21 -11 25
-17z m44 -44 c-12 -11 -26 12 -26 41 l1 32 15 -34 c8 -19 12 -36 10 -39z m92
29 c-2 -20 -9 -27 -30 -29 -30 -4 -37 13 -18 48 15 29 52 14 48 -19z m-68 8
c-7 -11 -14 -19 -16 -16 -7 7 7 37 17 37 6 0 5 -9 -1 -21z"/>
<path d="M5120 950 c0 -11 7 -20 15 -20 8 0 15 9 15 20 0 11 -7 20 -15 20 -8
0 -15 -9 -15 -20z"/>
<path d="M5220 950 c0 -11 7 -20 15 -20 8 0 15 9 15 20 0 11 -7 20 -15 20 -8
0 -15 -9 -15 -20z"/>
<path d="M5357 949 c-4 -15 -1 -19 11 -17 21 4 29 38 9 38 -8 0 -17 -9 -20
-21z"/>
<path d="M2407 1281 c-7 -27 0 -31 55 -31 47 0 48 -1 48 -30 0 -29 -1 -30 -49
-30 -40 0 -50 -3 -54 -20 -5 -18 0 -20 49 -20 l54 0 0 -35 0 -35 -49 0 c-40 0
-50 -3 -54 -20 -5 -18 0 -20 48 -20 53 0 54 0 57 -32 2 -18 8 -32 14 -31 5 1
16 -8 24 -20 12 -20 12 -21 -3 -8 -14 11 -20 11 -34 0 -16 -13 -17 -12 -4 4
12 16 9 17 -49 17 -35 0 -60 -3 -57 -6 3 -4 2 -14 -2 -23 -8 -14 -2 -16 45
-13 56 4 84 -10 84 -42 0 -8 9 -21 20 -29 11 -8 17 -17 13 -20 -11 -12 -25 -8
-17 5 4 6 3 8 -2 5 -14 -8 -16 -67 -3 -83 19 -23 58 -17 71 11 10 21 8 29 -10
48 -26 28 -28 37 -6 37 9 0 12 -5 8 -12 -4 -7 -3 -10 1 -5 5 4 10 18 12 30 5
38 12 47 30 46 17 -1 17 -2 1 -6 -10 -2 -18 -9 -18 -14 0 -6 5 -7 10 -4 6 4
10 -19 10 -62 l0 -68 195 0 195 0 1 30 c0 17 1 49 3 73 l2 42 -186 0 c-102 0
-190 4 -195 9 -6 5 -21 12 -35 14 -14 3 -4 5 23 4 26 -1 47 2 47 7 0 4 6 3 14
-3 10 -8 16 -8 25 2 6 8 7 18 3 22 -4 5 -1 5 6 1 7 -5 11 -15 7 -23 -4 -13 -3
-14 10 -3 8 7 13 15 11 19 -3 4 5 7 17 8 12 0 16 -1 10 -4 -7 -3 -13 -9 -13
-14 0 -6 5 -7 10 -4 6 3 10 1 10 -6 0 -8 4 -8 15 1 12 10 15 10 15 0 0 -8 4
-9 13 -3 6 5 24 8 39 7 19 -2 25 1 22 11 -3 8 -13 11 -22 8 -13 -4 -14 -3 -4
5 8 5 13 13 12 18 -1 5 3 9 10 10 6 2 6 0 1 -2 -7 -4 -4 -15 5 -30 20 -30 38
-32 24 -1 l-11 22 18 -22 c14 -17 26 -21 51 -18 23 3 32 0 32 -10 0 -8 5 -15
11 -15 6 0 8 8 5 18 -6 16 -5 16 8 0 7 -10 18 -18 24 -18 6 0 13 -8 15 -17 5
-18 7 27 7 195 0 84 1 93 17 90 16 -3 18 -15 17 -98 -1 -52 -2 -148 -3 -213
-1 -107 -3 -118 -18 -116 -10 2 -72 -15 -138 -36 l-119 -40 59 -5 60 -5 5 -74
c3 -47 10 -76 18 -79 12 -4 18 50 14 126 -1 24 3 32 16 31 10 0 12 -3 5 -6 -7
-2 -13 -9 -13 -14 0 -6 5 -7 10 -4 7 4 9 -2 5 -18 -4 -14 -2 -28 4 -31 6 -4
11 -26 11 -48 0 -68 10 -37 14 43 2 51 7 74 16 74 9 0 14 -23 16 -74 6 -121
17 -99 18 39 1 23 6 35 15 35 11 0 15 -19 18 -75 2 -41 6 -76 8 -79 11 -11 16
11 17 83 1 62 5 76 17 76 14 0 14 -1 1 -10 -11 -8 -12 -12 -3 -18 7 -4 16 -37
21 -72 9 -64 10 -65 13 -20 2 25 3 61 3 80 1 24 6 35 16 35 10 0 15 -11 16
-35 0 -19 1 -55 3 -80 3 -44 4 -44 13 20 5 36 13 66 18 68 6 2 10 8 10 14 0 6
-7 7 -16 4 -9 -3 -12 -2 -9 5 16 25 29 -3 32 -71 4 -71 8 -89 18 -79 2 3 6 38
8 79 3 68 16 96 32 71 3 -7 0 -8 -9 -5 -9 3 -16 2 -16 -4 0 -6 4 -12 10 -14 5
-1 13 -32 18 -68 9 -64 10 -64 13 -20 2 25 3 61 3 80 1 24 6 35 16 35 10 0 15
-11 16 -35 0 -19 1 -55 3 -80 3 -44 4 -44 13 20 5 36 13 67 18 68 6 2 10 8 10
14 0 6 -7 7 -16 4 -9 -3 -12 -2 -9 5 16 25 29 -3 32 -71 2 -41 6 -76 8 -79 11
-10 15 10 18 82 1 52 6 77 14 77 6 0 15 -4 18 -10 3 -6 -1 -7 -9 -4 -9 3 -16
2 -16 -4 0 -6 4 -12 10 -14 5 -1 13 -32 18 -68 9 -64 10 -64 13 -20 2 25 3 61
3 80 1 24 6 35 16 35 10 0 15 -11 16 -35 0 -19 1 -55 3 -80 3 -45 4 -44 13 20
5 35 14 68 21 72 9 6 8 10 -3 18 -13 9 -13 10 0 10 12 0 16 -16 17 -77 3 -73
7 -92 18 -81 3 3 6 39 8 82 1 59 5 76 16 74 10 -2 15 -24 17 -77 6 -121 17
-99 18 39 1 24 6 35 16 35 10 0 15 -11 16 -35 1 -82 4 -120 12 -120 4 0 6 17
6 37 -1 21 3 44 8 50 6 7 8 19 5 27 -3 8 -1 17 6 20 9 3 8 8 -3 15 -13 9 -13
11 2 11 13 0 17 -8 16 -32 -5 -80 2 -128 17 -128 17 0 25 30 21 85 -5 69 2 74
112 77 l97 3 0 305 0 305 -811 3 c-797 2 -812 2 -817 -17z m1591 -44 c2 -34
-1 -47 -10 -47 -8 0 -13 12 -13 33 0 32 0 32 -52 32 -28 0 -54 3 -58 7 -16 15
7 23 67 22 l63 -1 3 -46z m-342 32 c10 -17 -13 -36 -27 -22 -12 12 -4 33 11
33 5 0 12 -5 16 -11z m-941 -19 c0 -22 -29 -18 -33 3 -3 14 1 18 15 15 10 -2
18 -10 18 -18z m55 6 c0 -8 -4 -18 -10 -21 -6 -3 -7 1 -4 9 3 9 1 16 -5 16 -6
0 -11 -5 -11 -12 0 -6 -3 -9 -6 -5 -9 9 5 27 22 27 8 0 14 -6 14 -14z m50 0
c0 -20 -17 -29 -26 -15 -4 8 -3 9 4 5 7 -4 12 -3 12 3 0 5 -6 12 -12 14 -8 3
-6 6 5 6 9 1 17 -5 17 -13z m54 6 c8 -13 -11 -35 -23 -28 -16 10 -14 36 3 36
8 0 17 -4 20 -8z m56 -6 c0 -8 -5 -18 -11 -22 -14 -8 -33 11 -25 25 10 16 36
13 36 -3z m47 8 c-3 -3 -12 -4 -19 -1 -8 3 -5 6 6 6 11 1 17 -2 13 -5z m58 -4
c3 -6 -1 -7 -9 -4 -17 7 -22 -11 -6 -19 6 -3 5 -4 -2 -3 -19 4 -22 36 -4 36 8
0 18 -4 21 -10z m735 4 c0 -3 -11 -19 -25 -36 -22 -26 -25 -39 -25 -108 0 -69
2 -78 18 -76 14 3 17 14 17 69 0 37 3 67 8 67 4 0 10 0 15 0 4 0 7 -43 7 -95
0 -52 -3 -95 -7 -95 -4 0 -28 -21 -53 -47 l-47 -48 4 -87 c4 -75 2 -88 -11
-87 -11 0 -12 2 -3 6 6 2 12 9 12 14 0 6 -4 8 -9 5 -5 -4 -8 30 -5 81 3 67 9
92 23 107 10 12 21 28 24 36 4 12 6 11 6 -3 1 -10 6 -15 11 -12 6 4 7 11 4 17
-4 6 -2 8 3 5 6 -4 13 3 17 16 9 34 7 44 -9 44 -8 0 -15 -8 -15 -18 0 -21 -16
-33 -25 -19 -4 6 -11 8 -16 5 -5 -4 -4 6 2 22 6 15 9 65 8 109 -3 79 -2 82 26
107 29 26 45 33 45 21z m-1175 -44 c0 -16 -6 -26 -18 -28 -19 -4 -32 20 -23
44 9 25 41 13 41 -16z m385 24 c0 -8 -19 -13 -24 -6 -3 5 1 9 9 9 8 0 15 -2
15 -3z m368 -18 c3 -14 -9 -16 -92 -16 -77 0 -96 3 -96 14 0 16 32 22 125 20
47 -1 61 -5 63 -18z m42 10 c0 8 54 9 143 5 9 -1 17 -8 17 -16 0 -12 -17 -15
-95 -15 -90 0 -95 1 -95 21 0 18 2 19 15 9 8 -7 15 -9 15 -4z m190 -11 c0 -8
-4 -15 -10 -15 -5 0 -10 7 -10 15 0 8 5 15 10 15 6 0 10 -7 10 -15z m-890 -30
c0 -8 -4 -15 -10 -15 -5 0 -10 7 -10 15 0 8 5 15 10 15 6 0 10 -7 10 -15z m30
0 c0 -8 -4 -15 -10 -15 -5 0 -10 7 -10 15 0 8 5 15 10 15 6 0 10 -7 10 -15z
m30 0 c0 -8 -4 -15 -10 -15 -5 0 -10 7 -10 15 0 8 5 15 10 15 6 0 10 -7 10
-15z m60 0 c0 -7 -11 -12 -25 -12 -14 0 -25 5 -25 12 0 7 11 13 25 13 14 0 25
-6 25 -13z m30 0 c0 -8 -4 -15 -10 -15 -5 0 -10 7 -10 15 0 8 5 15 10 15 6 0
10 -7 10 -15z m30 0 c0 -8 -4 -15 -10 -15 -5 0 -10 7 -10 15 0 8 5 15 10 15 6
0 10 -7 10 -15z m90 1 c0 -8 3 -8 8 0 9 15 54 13 59 -2 3 -8 -21 -12 -72 -13
-57 -1 -75 2 -75 12 0 10 13 14 40 14 22 0 40 -5 40 -11z m875 -7 c0 -7 -8
-15 -17 -17 -18 -3 -25 18 -11 32 10 10 28 1 28 -15z m85 7 c0 -7 -8 -20 -17
-27 -10 -8 -14 -9 -10 -2 4 6 3 14 -3 18 -17 10 -11 25 10 25 11 0 20 -6 20
-14z m-282 -68 c-1 -35 1 -68 4 -73 4 -6 3 -17 -1 -24 -5 -7 -5 -28 -1 -47 4
-19 4 -36 0 -39 -4 -2 -6 -18 -4 -35 3 -21 -1 -30 -11 -30 -11 0 -15 14 -16
58 0 31 -2 101 -4 155 -4 91 -3 97 16 97 18 0 19 -6 17 -62z m362 41 c0 -4 -9
-11 -20 -14 -18 -6 -24 -16 -22 -36 2 -12 -116 -10 -123 2 -11 17 15 29 35 17
10 -7 25 -8 36 -3 11 5 22 7 26 7 5 -1 13 7 20 17 11 18 48 25 48 10z m-1404
-44 c8 -20 -13 -45 -32 -38 -14 5 -19 34 -7 46 11 12 33 7 39 -8z m1388 -37
c-3 -4 -43 -8 -90 -8 -50 0 -83 4 -79 9 3 5 43 9 89 8 47 -1 82 -5 80 -9z
m-1278 -61 c8 3 14 0 14 -6 0 -6 -14 -11 -31 -11 -28 0 -30 2 -18 16 8 9 15
12 17 6 2 -6 10 -8 18 -5z m40 -14 c-10 -10 -19 5 -10 18 6 11 8 11 12 0 2 -7
1 -15 -2 -18z m154 13 c0 -5 6 -4 13 1 18 13 110 10 115 -5 2 -7 -5 -12 -18
-12 -20 0 -21 -2 -9 -17 13 -17 12 -17 -6 -1 -21 17 -155 31 -155 15 0 -4 -6
-5 -12 0 -7 4 -25 6 -40 4 -25 -2 -36 7 -24 20 8 8 136 4 136 -5z m-302 -19
c2 -9 -4 -20 -12 -23 -21 -8 -46 13 -39 32 8 20 47 13 51 -9z m472 10 c0 -2
-14 -16 -32 -33 -18 -16 -27 -22 -20 -13 6 9 8 20 4 24 -4 5 -2 5 4 2 7 -4 17
0 24 8 12 14 20 19 20 12z m770 -7 c-20 -13 -33 -13 -25 0 3 6 14 10 23 10 15
0 15 -2 2 -10z m-1220 -45 c-7 -8 -17 -15 -23 -15 -6 0 -2 7 9 15 25 19 30 19
14 0z m1187 -37 c-3 -8 -6 -5 -6 6 -1 11 2 17 5 13 3 -3 4 -12 1 -19z m210 8
c4 -4 0 -4 -10 0 -9 3 -17 2 -17 -2 0 -5 -37 -9 -83 -9 -49 0 -84 4 -84 10 0
11 183 12 194 1z m-1477 0 c0 -3 -4 -8 -10 -11 -5 -3 -10 -1 -10 4 0 6 5 11
10 11 6 0 10 -2 10 -4z m1232 -113 c0 -72 -3 -108 -11 -109 -7 -2 -7 0 -1 3
15 7 12 26 -2 20 -10 -3 -13 18 -13 88 0 76 3 91 14 87 11 -4 13 -1 7 13 -4
11 -4 16 0 13 3 -4 6 -55 6 -115z m-1184 98 c19 -11 11 -45 -11 -49 -19 -4
-32 20 -23 43 6 17 15 19 34 6z m1427 -41 c0 -9 -28 -12 -103 -12 -101 0 -119
3 -109 19 9 14 212 7 212 -7z m-375 -20 c0 -5 -7 -10 -15 -10 -8 0 -15 5 -15
10 0 6 7 10 15 10 8 0 15 -4 15 -10z m-3 -60 c0 -27 -5 -40 -13 -40 -10 0 -13
12 -12 40 1 23 6 40 13 40 7 0 12 -16 12 -40z m184 20 c6 0 7 5 4 10 -4 6 25
10 79 10 58 0 86 -4 89 -12 4 -10 8 -9 17 2 9 11 11 11 8 1 -5 -18 -211 -20
-214 -2 -2 7 0 7 3 1 2 -5 9 -10 14 -10z m-1223 -24 c4 -21 -14 -37 -35 -29
-14 5 -18 35 -6 47 12 12 38 1 41 -18z m1209 -28 c-3 -8 -6 -5 -6 6 -1 11 2
17 5 13 3 -3 4 -12 1 -19z m211 1 c3 -11 1 -10 -7 1 -7 10 -14 11 -18 5 -10
-13 -170 -13 -170 0 0 6 38 10 96 9 72 -1 96 -5 99 -15z m-838 -49 c0 -11 -4
-20 -10 -20 -5 0 -10 9 -10 20 0 11 5 20 10 20 6 0 10 -9 10 -20z m170 -2 c0
-10 -4 -18 -10 -18 -5 0 -10 6 -10 13 0 7 -3 8 -8 2 -4 -5 -35 -10 -69 -10
-51 0 -63 3 -63 16 0 12 14 15 80 15 71 0 80 -2 80 -18z m30 2 c0 -11 -4 -20
-10 -20 -5 0 -10 9 -10 20 0 11 5 20 10 20 6 0 10 -9 10 -20z m170 1 c0 -13
-14 -16 -80 -16 -66 0 -80 3 -80 16 0 13 14 16 80 16 66 0 80 -3 80 -16z m30
-1 c0 -11 -4 -20 -10 -20 -5 0 -10 9 -10 20 0 11 5 20 10 20 6 0 10 -9 10 -20z"/>
<path d="M3870 1270 c0 -5 5 -10 10 -10 6 0 10 5 10 10 0 6 -4 10 -10 10 -5 0
-10 -4 -10 -10z"/>
<path d="M3970 1270 c0 -5 5 -10 10 -10 6 0 10 5 10 10 0 6 -4 10 -10 10 -5 0
-10 -4 -10 -10z"/>
<path d="M3630 1260 c0 -5 5 -10 10 -10 6 0 10 5 10 10 0 6 -4 10 -10 10 -5 0
-10 -4 -10 -10z"/>
<path d="M2690 1249 c0 -5 5 -7 10 -4 6 3 10 8 10 11 0 2 -4 4 -10 4 -5 0 -10
-5 -10 -11z"/>
<path d="M2850 1249 c0 -5 5 -7 10 -4 6 3 10 8 10 11 0 2 -4 4 -10 4 -5 0 -10
-5 -10 -11z"/>
<path d="M2900 1250 c0 -5 5 -10 10 -10 6 0 10 5 10 10 0 6 -4 10 -10 10 -5 0
-10 -4 -10 -10z"/>
<path d="M3700 1210 c0 -5 5 -10 10 -10 6 0 10 5 10 10 0 6 -4 10 -10 10 -5 0
-10 -4 -10 -10z"/>
<path d="M3760 1164 c0 -8 5 -12 10 -9 6 4 8 11 5 16 -9 14 -15 11 -15 -7z"/>
<path d="M3700 1020 c0 -5 5 -10 10 -10 6 0 10 5 10 10 0 6 -4 10 -10 10 -5 0
-10 -4 -10 -10z"/>
<path d="M3810 1190 c0 -5 5 -10 10 -10 6 0 10 5 10 10 0 6 -4 10 -10 10 -5 0
-10 -4 -10 -10z"/>
<path d="M3895 1190 c3 -5 8 -10 11 -10 2 0 4 5 4 10 0 6 -5 10 -11 10 -5 0
-7 -4 -4 -10z"/>
<path d="M3845 1130 c-3 -5 -1 -10 4 -10 6 0 11 5 11 10 0 6 -2 10 -4 10 -3 0
-8 -4 -11 -10z"/>
<path d="M3920 1130 c0 -5 5 -10 11 -10 5 0 7 5 4 10 -3 6 -8 10 -11 10 -2 0
-4 -4 -4 -10z"/>
<path d="M3810 880 c0 -5 5 -10 10 -10 6 0 10 5 10 10 0 6 -4 10 -10 10 -5 0
-10 -4 -10 -10z"/>
<path d="M3990 880 c0 -5 5 -10 10 -10 6 0 10 5 10 10 0 6 -4 10 -10 10 -5 0
-10 -4 -10 -10z"/>
<path d="M3056 881 c-4 -5 -2 -12 3 -15 5 -4 12 -2 15 3 4 5 2 12 -3 15 -5 4
-12 2 -15 -3z"/>
<path d="M2404 808 l1 -63 44 -3 c53 -4 61 3 63 54 0 21 6 46 11 54 9 12 9 13
-3 3 -19 -17 -31 -16 -24 2 5 12 -4 15 -44 15 l-50 0 2 -62z m64 35 c-10 -2
-26 -2 -35 0 -10 3 -2 5 17 5 19 0 27 -2 18 -5z"/>
<path d="M2324 805 c-9 -23 3 -45 26 -45 16 0 20 7 20 30 0 23 -4 30 -20 30
-11 0 -23 -7 -26 -15z"/>
<path d="M3070 660 c0 -5 5 -10 10 -10 6 0 10 5 10 10 0 6 -4 10 -10 10 -5 0
-10 -4 -10 -10z"/>
<path d="M3120 660 c0 -5 5 -10 10 -10 6 0 10 5 10 10 0 6 -4 10 -10 10 -5 0
-10 -4 -10 -10z"/>
<path d="M3230 660 c0 -5 5 -10 10 -10 6 0 10 5 10 10 0 6 -4 10 -10 10 -5 0
-10 -4 -10 -10z"/>
<path d="M3390 660 c0 -5 5 -10 10 -10 6 0 10 5 10 10 0 6 -4 10 -10 10 -5 0
-10 -4 -10 -10z"/>
<path d="M3550 660 c0 -5 5 -10 10 -10 6 0 10 5 10 10 0 6 -4 10 -10 10 -5 0
-10 -4 -10 -10z"/>
<path d="M3660 660 c0 -5 5 -10 10 -10 6 0 10 5 10 10 0 6 -4 10 -10 10 -5 0
-10 -4 -10 -10z"/>
<path d="M3710 660 c0 -5 5 -10 10 -10 6 0 10 5 10 10 0 6 -4 10 -10 10 -5 0
-10 -4 -10 -10z"/>
</g>
</svg>
