<?xml version="1.0" standalone="no"?>
<!DOCTYPE svg PUBLIC "-//W3C//DTD SVG 20010904//EN"
 "http://www.w3.org/TR/2001/REC-SVG-20010904/DTD/svg10.dtd">
<svg version="1.0" xmlns="http://www.w3.org/2000/svg"
 width="1100.000000pt" height="926.000000pt" viewBox="0 0 1100.000000 926.000000"
 preserveAspectRatio="xMidYMid meet">

<g transform="translate(0.000000,926.000000) scale(0.100000,-0.100000)"
fill="#000000" stroke="none">
<path d="M2507 8529 c-24 -14 -21 -48 5 -58 12 -4 35 -5 52 -2 36 8 47 40 21
61 -17 14 -27 7 -38 -24 -2 -5 -12 -6 -23 -2 -19 8 -19 8 0 15 11 4 15 10 10
13 -5 4 -17 2 -27 -3z m65 -21 c-7 -7 -12 -8 -12 -2 0 14 12 26 19 19 2 -3 -1
-11 -7 -17z"/>
<path d="M8750 8249 c-105 -9 -272 -48 -271 -64 1 -5 74 -47 164 -92 222 -113
219 -113 450 4 l172 87 -35 14 c-105 43 -313 65 -480 51z"/>
<path d="M6275 8203 l-90 -46 95 -47 95 -48 90 45 c49 25 92 47 93 48 4 4
-178 95 -187 94 -3 0 -46 -21 -96 -46z"/>
<path d="M8319 8106 c-128 -100 -131 -239 -8 -336 l49 -39 185 92 c156 77 184
94 179 110 -3 10 0 24 6 32 10 12 -17 29 -161 100 -95 47 -177 85 -183 85 -6
0 -36 -20 -67 -44z"/>
<path d="M9160 8066 c-116 -58 -164 -86 -161 -97 2 -8 4 -23 4 -35 -1 -16 32
-37 180 -111 127 -64 185 -89 196 -83 32 17 91 84 112 127 28 58 21 110 -22
173 -30 44 -112 111 -134 110 -6 -1 -84 -38 -175 -84z"/>
<path d="M6063 8097 c-46 -23 -83 -44 -83 -47 0 -3 40 -26 89 -50 l89 -43 69
32 c37 18 79 40 92 48 25 16 25 16 -60 59 -46 24 -91 43 -99 43 -8 0 -52 -19
-97 -42z"/>
<path d="M6660 8048 c-80 -40 -155 -77 -167 -83 -12 -5 -51 -25 -87 -42 -36
-18 -69 -33 -74 -34 -4 -1 -19 -10 -34 -20 -14 -10 -30 -19 -34 -19 -13 0
-139 -64 -142 -72 -2 -5 -9 -8 -15 -8 -6 0 -184 -86 -396 -191 -212 -106 -417
-207 -456 -226 -38 -18 -81 -40 -95 -48 -14 -8 -47 -25 -75 -38 -27 -13 -59
-28 -70 -35 -11 -6 -42 -21 -70 -33 -27 -11 -69 -30 -91 -41 l-42 -21 -210
106 c-115 58 -213 103 -216 100 -3 -4 -6 -14 -6 -24 0 -14 53 -45 210 -124
l210 -105 187 94 c104 51 266 131 361 178 95 46 169 88 165 93 -5 4 -3 5 4 2
6 -4 170 72 365 169 504 250 517 257 511 268 -4 5 -1 6 6 2 7 -5 93 32 209 90
108 53 199 98 200 100 2 1 2 10 0 19 -2 13 -31 2 -148 -57z"/>
<path d="M10460 8041 c-58 -32 -159 -85 -225 -120 -66 -35 -138 -73 -160 -86
-22 -12 -94 -51 -160 -85 -66 -35 -151 -80 -190 -100 -285 -152 -640 -339
-1138 -599 -86 -46 -162 -91 -167 -101 -10 -19 -14 -232 -5 -242 5 -4 182 84
618 310 236 123 446 231 707 365 129 66 296 152 370 191 74 39 210 109 302
156 l168 85 0 143 c0 78 -3 141 -7 141 -5 -1 -55 -27 -113 -58z"/>
<path d="M3504 8070 c-27 -11 -38 -38 -23 -56 21 -25 109 -11 109 16 0 15 -38
50 -52 49 -7 0 -22 -4 -34 -9z m55 -14 c9 -11 8 -15 -5 -20 -12 -4 -15 -2 -10
9 7 18 -5 20 -22 3 -9 -9 -15 -9 -24 1 -11 11 -10 13 5 8 9 -4 17 -2 17 3 0
15 26 12 39 -4z"/>
<path d="M5855 7993 c-49 -24 -91 -46 -93 -48 -2 -2 37 -25 88 -50 l92 -46 83
40 c46 22 86 45 90 50 3 6 -34 30 -82 55 l-88 44 -90 -45z"/>
<path d="M3590 7949 c-63 -33 -128 -68 -145 -78 -16 -10 -79 -44 -140 -76 -60
-32 -123 -65 -140 -75 -16 -9 -115 -61 -220 -115 -104 -54 -248 -129 -318
-167 -71 -37 -135 -68 -143 -68 -8 0 -102 45 -209 100 -106 55 -204 100 -217
100 -36 0 -68 -11 -62 -21 8 -13 -8 -10 -36 7 -14 8 -17 13 -7 10 10 -3 25 1
33 9 10 10 25 13 42 9 15 -4 25 -4 22 -2 -6 7 -142 78 -149 78 -11 0 43 -39
71 -51 l31 -13 -34 -12 c-45 -16 -46 -16 -46 0 0 8 8 12 21 9 20 -4 20 -4 2
11 -10 8 -23 13 -27 10 -4 -2 -13 5 -19 16 -8 15 -20 20 -48 19 -38 -1 -36 -3
11 -13 32 -7 36 -26 6 -26 -21 0 -79 29 -79 40 0 13 49 27 64 18 9 -5 21 -8
27 -6 5 2 -15 17 -45 33 -56 30 -86 28 -66 -5 8 -12 13 -13 29 -3 13 8 22 9
26 3 3 -6 -1 -10 -9 -10 -8 0 -21 -6 -29 -14 -9 -9 -23 -12 -38 -9 -21 6 -21
7 -4 13 15 5 11 8 -19 14 -26 5 -36 11 -32 21 2 7 -2 16 -10 19 -23 9 -31 7
-14 -4 23 -14 4 -23 -20 -10 -16 9 -19 14 -11 20 9 5 5 9 -11 13 -34 10 -45 8
-28 -3 12 -8 11 -10 -6 -10 -12 0 -27 7 -34 15 -7 8 -20 15 -30 15 -10 0 -24
7 -31 16 -11 14 -11 18 4 29 9 7 17 16 17 20 0 5 -8 1 -19 -9 -16 -14 -20 -15
-30 -2 -21 25 43 32 88 10 20 -11 38 -21 41 -24 8 -9 60 -30 73 -30 7 0 -13
13 -43 28 -30 15 -57 29 -60 32 -3 3 -18 11 -34 18 -47 21 -130 -21 -83 -42 9
-5 9 -7 0 -12 -7 -3 -13 -10 -13 -15 0 -6 5 -7 10 -4 6 4 10 -18 10 -59 0 -46
4 -66 13 -66 6 0 39 14 72 30 33 17 64 30 70 30 6 0 56 -22 112 -50 129 -63
151 -72 158 -60 11 18 27 11 22 -9 -3 -14 5 -24 37 -39 22 -11 53 -24 69 -27
15 -4 31 -12 35 -19 9 -13 112 -66 130 -66 6 0 12 -4 12 -10 0 -5 5 -10 11
-10 15 0 139 -62 161 -80 14 -11 18 -29 18 -77 l0 -63 -342 -170 c-188 -94
-345 -170 -350 -170 -4 0 -8 29 -8 65 0 63 -1 65 -32 82 l-33 18 30 2 c268 23
428 86 494 194 25 41 28 117 6 158 -25 50 -103 109 -184 140 -115 44 -183 55
-321 54 -297 -2 -513 -102 -537 -248 -3 -19 -10 -35 -16 -35 -6 0 -74 32 -150
71 -77 38 -146 68 -154 65 -11 -4 -13 -24 -11 -88 l3 -82 315 -157 c173 -87
317 -156 319 -154 8 9 -12 25 -31 25 -16 0 -18 3 -9 14 9 10 8 15 -4 20 -8 3
-22 3 -30 0 -8 -4 -15 -1 -15 5 0 6 -13 11 -29 11 -16 0 -34 7 -41 15 -7 8
-20 15 -30 15 -10 0 -23 6 -29 14 -13 15 4 26 42 26 15 0 18 3 10 11 -8 8 -20
7 -44 -5 -22 -11 -36 -13 -44 -6 -6 5 -15 7 -18 4 -11 -11 -59 27 -53 42 3 9
-1 14 -14 14 -10 0 -22 5 -26 12 -5 8 5 9 36 5 29 -4 39 -2 29 4 -19 12 -56
11 -80 -2 -15 -7 -24 -7 -34 1 -7 6 -17 10 -21 8 -5 -1 -30 8 -56 21 -48 23
-69 41 -49 41 6 0 11 -4 11 -9 0 -5 13 -11 29 -13 20 -3 32 1 40 14 13 20 1
24 -17 6 -9 -9 -18 -9 -37 0 -13 6 -32 9 -40 6 -8 -4 -15 -1 -15 6 0 7 -8 9
-20 5 -18 -6 -20 -2 -22 42 l-1 48 -7 -45 c-6 -41 -7 -39 -8 27 -2 69 -1 71
21 66 12 -2 210 -97 439 -211 l418 -206 0 -78 c0 -43 2 -78 5 -78 3 0 131 63
285 140 154 77 289 140 300 140 11 0 47 -13 80 -30 66 -33 70 -34 70 -20 0 6
-7 10 -15 10 -8 0 -12 6 -9 14 3 8 -3 16 -16 19 -18 4 -19 3 -9 -9 10 -13 8
-13 -15 -4 -15 5 -34 16 -41 24 -12 12 -12 15 -1 19 8 3 17 -1 20 -8 3 -8 11
-12 19 -9 7 2 27 0 43 -6 l29 -11 -23 23 c-19 19 -25 21 -42 10 -16 -10 -20
-10 -20 2 0 8 11 17 25 20 15 4 30 18 36 34 15 37 18 133 5 157 -5 11 -9 27
-7 35 2 11 0 12 -9 4 -13 -13 -50 -7 -50 8 0 6 8 7 17 4 9 -4 20 -1 24 5 5 8
16 8 43 -1 37 -12 45 -24 24 -34 -7 -3 2 -3 20 0 l32 6 0 -176 c0 -97 -4 -176
-9 -176 -12 0 -21 26 -21 61 0 20 -5 29 -16 29 -12 0 -14 -9 -12 -41 3 -37 7
-43 40 -56 l37 -15 598 302 c329 166 601 305 606 309 4 4 6 98 5 209 l-3 201
-115 -60z m-2110 -159 c0 -5 -5 -10 -11 -10 -5 0 -7 5 -4 10 3 6 8 10 11 10 2
0 4 -4 4 -10z m317 -86 c-3 -3 -12 -4 -19 -1 -8 3 -5 6 6 6 11 1 17 -2 13 -5z
m286 -159 c12 -1 36 -10 52 -19 17 -9 35 -16 41 -16 7 0 14 -7 17 -14 3 -8 24
-20 46 -26 22 -6 43 -15 46 -20 8 -14 -18 -13 -32 1 -6 6 -17 9 -25 6 -19 -7
41 -29 62 -22 19 6 70 -13 70 -27 0 -14 -28 -9 -34 8 -3 8 -11 12 -16 9 -8 -5
-7 -11 1 -21 9 -11 8 -14 -4 -14 -9 0 -22 6 -29 13 -7 6 -17 12 -23 13 -35 4
-56 18 -52 35 6 20 -19 27 -25 8 -3 -8 -15 -6 -38 6 -38 20 -26 34 12 15 21
-10 21 -10 6 3 -10 8 -14 17 -10 22 4 4 -4 4 -18 0 -14 -4 -27 -7 -30 -7 -28
-1 -40 4 -35 12 4 6 -7 15 -24 21 -33 12 -32 34 1 23 11 -3 30 -7 41 -9z
m-364 -308 c10 15 49 7 88 -19 74 -48 118 -75 143 -86 17 -7 19 -11 8 -11 -9
-1 -18 -5 -20 -10 -6 -19 -168 -52 -268 -56 l-99 -3 4 31 c6 51 23 106 24 80
1 -13 4 -24 9 -24 32 -5 100 -4 97 1 -2 4 -23 6 -45 5 -22 -1 -43 2 -46 7 -3
4 1 8 9 8 10 0 13 7 10 19 -3 12 -11 17 -19 14 -17 -6 -18 6 -1 29 16 20 55
27 81 15 11 -5 21 -5 25 0z m-665 -92 c11 -8 15 -15 9 -15 -19 0 -43 12 -43
21 0 13 12 11 34 -6z m306 -155 c0 -5 -2 -10 -4 -10 -3 0 -8 5 -11 10 -3 6 -1
10 4 10 6 0 11 -4 11 -10z"/>
<path d="M2080 7530 c0 -6 7 -13 15 -17 24 -9 27 1 5 15 -13 8 -20 8 -20 2z"/>
<path d="M1635 7220 c-3 -5 3 -10 14 -10 11 0 23 5 26 10 3 6 -3 10 -14 10
-11 0 -23 -4 -26 -10z"/>
<path d="M1694 7208 c-3 -4 0 -8 6 -8 6 0 8 -5 5 -10 -5 -8 -11 -8 -20 0 -9 8
-15 8 -20 0 -3 -5 1 -11 9 -11 9 -1 26 -2 39 -3 12 -1 30 1 39 6 26 13 76 -2
93 -28 27 -42 -2 -56 -145 -69 -42 -4 -43 -3 -10 5 19 4 55 13 80 18 25 5 37
10 28 11 -9 1 -20 5 -23 11 -4 7 3 7 20 0 33 -12 45 -13 45 -1 0 16 -80 25
-93 11 -9 -10 -9 -11 2 -5 10 6 12 4 7 -4 -5 -8 -33 -12 -84 -10 -75 2 -77 2
-79 -22 -1 -14 0 -17 3 -6 5 14 16 17 62 16 58 -1 57 -3 -10 -14 -22 -3 -38
-12 -38 -19 0 -10 16 -13 68 -9 37 2 81 8 97 13 17 5 43 8 60 8 16 0 31 5 33
11 2 6 14 11 27 11 37 0 38 16 2 31 -17 7 -39 21 -47 31 -8 9 -24 18 -35 20
-11 2 -23 7 -27 13 -8 11 -87 14 -94 3z"/>
<path d="M1446 7974 c-9 -8 -16 -19 -16 -23 0 -17 27 -31 61 -31 45 0 65 20
49 49 -13 26 -71 29 -94 5z m78 -3 c3 -5 -7 -11 -22 -14 -30 -6 -45 0 -37 14
8 12 52 12 59 0z"/>
<path d="M1360 7785 c0 -117 3 -156 11 -148 16 16 12 284 -4 299 -4 4 -7 -64
-7 -151z"/>
<path d="M5633 7887 c-45 -23 -82 -45 -83 -49 0 -4 40 -28 89 -52 l89 -45 83
43 c45 23 84 47 86 52 3 9 -158 95 -175 93 -4 0 -44 -19 -89 -42z"/>
<path d="M1390 7911 c0 -5 6 -11 14 -14 9 -3 12 -15 9 -31 -3 -15 -1 -26 6
-26 15 0 14 53 -1 68 -14 14 -28 16 -28 3z"/>
<path d="M9567 7853 c-22 -55 -101 -126 -190 -173 -273 -142 -752 -143 -1026
0 -99 51 -145 90 -182 154 l-31 51 6 -50 c16 -128 111 -227 284 -293 409 -159
1007 -58 1133 191 18 35 38 157 26 157 -3 0 -12 -17 -20 -37z"/>
<path d="M1458 7873 c7 -3 16 -2 19 1 4 3 -2 6 -13 5 -11 0 -14 -3 -6 -6z"/>
<path d="M8626 7800 c-83 -42 -162 -82 -175 -89 l-24 -13 34 -15 c62 -27 240
-62 348 -69 79 -5 134 -2 216 11 111 17 265 60 265 73 0 4 -76 45 -169 91
l-168 85 -88 0 -88 1 -151 -75z"/>
<path d="M1423 7740 c0 -47 2 -66 4 -42 2 23 2 61 0 85 -2 23 -4 4 -4 -43z"/>
<path d="M1550 7781 c8 -5 31 -12 50 -15 l35 -7 -34 16 c-37 17 -79 22 -51 6z"/>
<path d="M1687 7756 c-4 -10 0 -12 15 -8 14 3 19 1 14 -6 -5 -8 3 -12 26 -11
18 0 26 3 18 6 -8 3 -27 12 -42 19 -22 11 -27 11 -31 0z"/>
<path d="M5350 7741 c-19 -9 -60 -30 -90 -45 l-54 -29 84 -43 c47 -24 93 -43
103 -43 27 -1 179 78 172 90 -7 10 -162 90 -174 88 -3 0 -22 -8 -41 -18z"/>
<path d="M1441 7734 c0 -11 3 -14 6 -6 3 7 2 16 -1 19 -3 4 -6 -2 -5 -13z"/>
<path d="M1720 7710 c0 -5 5 -10 11 -10 5 0 7 5 4 10 -3 6 -8 10 -11 10 -2 0
-4 -4 -4 -10z"/>
<path d="M1442 7685 c0 -16 2 -22 5 -12 2 9 2 23 0 30 -3 6 -5 -1 -5 -18z"/>
<path d="M10755 7662 c-163 -90 -220 -120 -305 -165 -155 -80 -425 -223 -515
-272 -33 -18 -114 -61 -180 -95 -141 -74 -227 -119 -590 -310 -435 -229 -446
-235 -533 -280 -77 -39 -103 -62 -89 -76 3 -3 106 46 229 109 612 314 900 463
973 502 44 23 197 102 340 175 143 73 283 145 310 160 28 15 137 71 243 125
182 93 192 99 192 126 0 36 -11 36 -75 1z"/>
<path d="M1396 7635 c-10 -8 -24 -16 -30 -18 -6 -2 -8 -7 -5 -11 3 -3 26 5 50
19 30 17 37 25 24 25 -11 -1 -29 -7 -39 -15z"/>
<path d="M5080 7609 c-41 -22 -76 -43 -78 -47 -1 -4 37 -27 86 -51 l88 -43 92
43 c50 24 92 46 92 49 0 10 -170 90 -188 89 -9 -1 -51 -19 -92 -40z"/>
<path d="M4873 7507 c-45 -23 -84 -45 -88 -49 -4 -4 34 -27 84 -53 l92 -46 82
41 c45 23 86 45 91 50 5 5 -31 28 -83 54 -50 25 -92 46 -93 45 -2 0 -40 -19
-85 -42z"/>
<path d="M2456 7522 c-3 -5 8 -12 24 -14 17 -3 30 -1 30 4 0 4 -4 8 -9 8 -5 0
-16 3 -24 6 -8 3 -18 1 -21 -4z"/>
<path d="M2420 7483 c0 -20 39 -35 76 -28 23 4 34 11 34 23 0 14 -10 17 -55
18 -38 0 -55 -4 -55 -13z"/>
<path d="M4645 7393 l-90 -46 89 -44 c103 -52 108 -52 216 6 l74 39 -93 46
c-52 25 -97 46 -100 45 -3 0 -46 -21 -96 -46z"/>
<path d="M800 7371 c0 -4 11 -13 25 -19 14 -6 25 -8 25 -3 0 4 -11 13 -25 19
-14 6 -25 8 -25 3z"/>
<path d="M880 7330 c0 -13 58 -42 63 -32 3 4 -10 15 -29 24 -19 10 -34 13 -34
8z"/>
<path d="M960 7291 c0 -6 -15 -11 -32 -12 -31 -1 -32 -1 -8 -9 36 -11 52 -11
45 0 -8 13 1 13 27 -1 32 -17 30 -5 -2 15 -17 9 -30 12 -30 7z"/>
<path d="M898 7253 c6 -2 18 -2 25 0 6 3 1 5 -13 5 -14 0 -19 -2 -12 -5z"/>
<path d="M1040 7254 c0 -16 20 -31 53 -39 42 -11 42 -25 0 -18 -21 3 -35 3
-31 -1 3 -4 32 -9 65 -11 l58 -3 -65 31 c-36 17 -68 36 -72 42 -5 7 -8 6 -8
-1z"/>
<path d="M1200 7150 c0 -5 8 -7 18 -3 16 6 16 5 -1 -14 -17 -19 -16 -20 13
-20 20 0 26 3 18 9 -16 10 2 11 27 2 10 -4 13 -9 6 -13 -6 -4 6 -7 27 -8 l37
-1 -60 29 c-64 30 -85 35 -85 19z"/>
<path d="M2391 7134 c0 -11 3 -14 6 -6 3 7 2 16 -1 19 -3 4 -6 -2 -5 -13z"/>
<path d="M1105 7130 c-3 -5 -1 -10 4 -10 6 0 11 5 11 10 0 6 -2 10 -4 10 -3 0
-8 -4 -11 -10z"/>
<path d="M1363 7069 c-2 -21 27 -33 60 -24 15 4 18 3 8 -3 -9 -7 -10 -12 -2
-16 6 -4 11 -2 11 5 0 10 3 10 12 1 7 -7 19 -12 28 -12 16 0 -22 25 -80 51
-34 16 -36 16 -37 -2z"/>
<path d="M1200 7070 c0 -5 5 -10 11 -10 5 0 7 5 4 10 -3 6 -8 10 -11 10 -2 0
-4 -4 -4 -10z"/>
<path d="M1235 7060 c3 -5 10 -10 16 -10 5 0 9 5 9 10 0 6 -7 10 -16 10 -8 0
-12 -4 -9 -10z"/>
<path d="M1371 7024 c6 -8 18 -14 26 -14 20 0 8 16 -17 23 -17 4 -19 3 -9 -9z"/>
<path d="M1406 6995 c-11 -8 -15 -15 -9 -15 19 0 43 12 43 21 0 13 -12 11 -34
-6z"/>
<path d="M1520 6995 c0 -3 21 -15 47 -26 l48 -20 -25 -19 c-27 -21 -55 -26
-64 -11 -3 5 13 11 36 15 46 7 46 10 3 20 -22 5 -26 4 -15 -4 12 -8 9 -10 -13
-10 -24 0 -27 -3 -22 -21 7 -20 6 -20 -20 -3 -15 10 -39 19 -53 20 -16 2 17
-20 78 -51 58 -30 108 -54 113 -55 10 0 9 33 -5 84 -10 37 -18 47 -55 65 -46
22 -53 24 -53 16z m99 -112 c6 -22 5 -30 -4 -30 -8 0 -11 7 -7 15 4 12 1 14
-13 9 -9 -4 -23 -3 -29 2 -6 5 -20 11 -31 15 -11 3 -7 4 9 2 17 -2 36 2 44 11
17 17 20 15 31 -24z"/>
<path d="M1425 6960 c3 -5 8 -10 11 -10 2 0 4 5 4 10 0 6 -5 10 -11 10 -5 0
-7 -4 -4 -10z"/>
<path d="M2150 5531 c0 -39 24 -56 77 -53 53 2 73 15 73 48 0 27 -5 28 -47 13
-24 -8 -39 -7 -67 5 l-36 15 0 -28z"/>
<path d="M2772 5393 c-84 -41 -130 -69 -124 -75 9 -9 61 8 73 25 3 5 9 8 13 7
10 -2 175 80 181 90 15 24 -22 12 -143 -47z"/>
<path d="M1506 5376 c-104 -53 -149 -86 -119 -86 5 0 69 30 142 66 95 47 130
69 120 75 -18 11 -6 16 -143 -55z"/>
<path d="M3263 5410 c-43 -18 -69 -107 -34 -118 10 -3 12 1 8 17 -3 11 -1 21
4 21 5 0 9 -9 9 -20 0 -27 31 -26 58 3 27 28 28 68 4 90 -21 19 -19 19 -49 7z
m3 -43 c-14 -15 -26 -23 -26 -20 0 10 43 54 47 49 2 -2 -7 -15 -21 -29z"/>
<path d="M8030 4571 l0 -828 188 -98 c103 -54 214 -112 247 -130 33 -18 112
-59 175 -92 63 -33 168 -88 233 -123 65 -34 120 -60 123 -58 2 3 0 193 -6 424
-5 230 -12 598 -16 816 l-7 398 -51 29 c-28 16 -148 84 -266 151 -239 136
-498 280 -505 280 -2 0 -27 14 -55 30 -28 17 -53 30 -55 30 -3 0 -5 -373 -5
-829z m341 -221 c18 0 9 -18 -12 -23 -18 -5 -20 -12 -18 -61 1 -31 0 -59 -4
-63 -4 -3 -7 23 -7 60 0 43 4 67 13 70 9 4 8 8 -3 17 -13 10 -12 11 3 6 10 -3
23 -6 28 -6z m59 -34 c0 -2 -9 -2 -20 1 -11 3 -20 9 -20 15 0 5 9 4 20 -2 11
-6 20 -12 20 -14z m46 -22 c18 -14 18 -14 -6 -3 -31 14 -36 19 -24 19 6 0 19
-7 30 -16z m75 -37 c30 -20 34 -28 37 -74 2 -28 -2 -66 -7 -85 l-10 -33 0 40
c2 131 2 133 -38 154 -21 11 -33 20 -27 21 6 0 26 -10 45 -23z m-141 -27 c8
-5 12 -12 9 -15 -8 -8 -39 5 -39 16 0 11 11 11 30 -1z m98 -32 c14 -14 16 -44
3 -53 -13 -8 -41 23 -41 46 0 21 20 25 38 7z m-44 -155 l113 -56 7 -66 c9 -99
7 -181 -4 -181 -6 0 -10 43 -10 108 0 73 -3 102 -10 92 -7 -11 -10 -12 -10 -2
0 29 -43 72 -98 100 -109 56 -100 66 -101 -113 -1 -94 2 -163 9 -175 7 -14 8
-20 0 -20 -23 0 -31 59 -28 202 2 82 7 148 11 148 5 0 5 5 2 10 -10 17 2 12
119 -47z m5 -124 c18 -11 31 -22 28 -25 -7 -7 -87 27 -87 37 0 15 23 10 59
-12z m1 -111 c19 -11 30 -23 23 -25 -13 -5 -68 21 -78 37 -11 17 18 11 55 -12z
m-50 -103 c14 -8 21 -14 15 -14 -5 0 -21 6 -35 14 -14 8 -20 14 -15 14 6 0 21
-6 35 -14z m162 -33 c1 -23 -1 -44 -3 -46 -2 -3 -31 8 -64 25 -45 22 -52 27
-28 23 21 -4 39 -2 48 6 9 7 19 10 22 6 4 -4 2 -11 -5 -15 -10 -6 -9 -11 3
-21 14 -12 16 -12 15 1 -4 25 0 73 5 67 3 -2 6 -23 7 -46z"/>
<path d="M8482 4179 c2 -7 10 -15 17 -17 8 -3 12 1 9 9 -2 7 -10 15 -17 17 -8
3 -12 -1 -9 -9z"/>
<path d="M8553 3975 c0 -8 4 -15 9 -15 4 0 8 4 8 9 0 6 -4 12 -8 15 -5 3 -9
-1 -9 -9z"/>
<path d="M3088 5313 c-34 -36 -44 -75 -24 -92 14 -12 16 -10 16 16 0 33 33 83
56 83 8 0 14 5 14 10 0 20 -37 9 -62 -17z"/>
<path d="M3110 5281 c-14 -28 -12 -51 5 -58 21 -8 55 25 55 54 0 18 -5 23 -25
23 -14 0 -29 -8 -35 -19z"/>
<path d="M2929 5230 c-23 -23 -30 -37 -27 -62 4 -43 28 -50 28 -8 0 34 38 80
65 80 9 0 13 5 10 10 -12 19 -47 10 -76 -20z"/>
<path d="M2980 5223 c-36 -14 -51 -61 -26 -82 21 -18 66 23 66 60 0 29 -9 34
-40 22z"/>
<path d="M5596 5203 c-3 -3 32 -25 77 -48 45 -24 83 -50 85 -58 4 -22 -37 -47
-78 -47 -19 0 -64 14 -100 32 -108 53 -120 58 -120 47 0 -5 39 -28 87 -50 77
-37 93 -41 145 -37 65 5 104 31 92 62 -9 22 -176 111 -188 99z"/>
<path d="M1510 5156 c-47 -24 -84 -47 -83 -51 1 -4 41 -27 88 -51 l86 -43 94
47 94 48 -95 47 c-52 26 -95 47 -97 46 -1 0 -40 -20 -87 -43z"/>
<path d="M2805 5168 c-30 -16 -55 -50 -55 -75 0 -32 15 -36 17 -5 1 16 15 39
37 59 36 34 37 41 1 21z"/>
<path d="M2800 5121 c-24 -46 -4 -72 35 -47 35 23 35 66 0 66 -14 0 -29 -8
-35 -19z"/>
<path d="M9975 5093 c-151 -16 -356 -126 -503 -271 -77 -76 -139 -149 -131
-156 2 -2 15 -9 28 -16 21 -11 26 -9 48 16 13 16 33 49 44 74 28 61 55 88 98
96 20 4 57 22 84 40 92 63 225 114 299 114 39 0 103 36 117 67 6 14 10 27 9
28 -6 6 -64 11 -93 8z"/>
<path d="M5305 5058 l-39 -21 108 -54 c59 -30 113 -52 119 -50 7 2 -5 12 -25
22 -21 11 -38 22 -38 27 0 4 14 14 30 23 17 9 30 22 30 30 0 45 -115 60 -185
23z m143 0 c19 -19 14 -34 -14 -53 -26 -17 -29 -16 -75 6 -27 12 -49 25 -49
29 0 25 116 40 138 18z"/>
<path d="M10111 5046 c-32 -51 -27 -68 25 -95 97 -52 148 -158 148 -306 0
-116 -24 -211 -84 -331 l-48 -95 25 -16 c24 -16 26 -16 40 3 29 38 84 157 113
242 96 286 33 539 -153 617 -46 19 -42 20 -66 -19z"/>
<path d="M1690 4954 c0 -45 3 -52 22 -57 28 -8 65 1 71 16 2 7 3 29 3 50 l-1
39 -47 2 -48 2 0 -52z"/>
<path d="M5175 4996 c-43 -19 -68 -50 -60 -75 9 -29 100 -71 154 -71 60 0 114
16 143 41 26 23 22 22 -46 -10 -40 -19 -60 -22 -103 -18 -57 6 -123 45 -123
72 0 16 47 55 66 55 7 0 16 5 19 10 8 14 -14 12 -50 -4z"/>
<path d="M6197 4952 c-5 -7 -148 -83 -319 -168 -247 -124 -321 -156 -366 -162
l-57 -7 1 -35 1 -35 47 2 c38 1 101 29 362 159 193 97 322 167 331 181 8 12
13 34 11 50 -2 19 -6 24 -11 15z"/>
<path d="M9850 4921 c-55 -18 -153 -64 -178 -84 -10 -8 -8 -13 7 -23 16 -12
27 -10 77 12 32 14 80 28 106 31 41 5 51 11 63 34 29 55 17 60 -75 30z"/>
<path d="M1540 4909 c0 -9 -3 -30 -6 -47 -5 -27 -3 -33 20 -43 20 -9 32 -9 51
-1 22 10 25 18 25 59 l0 48 -45 0 c-35 0 -45 -4 -45 -16z"/>
<path d="M10087 4893 c-17 -62 -16 -70 9 -94 31 -28 64 -90 64 -118 0 -27 10
-30 48 -14 24 10 32 18 28 31 -3 9 -9 35 -15 57 -14 53 -57 118 -91 139 -35
20 -38 20 -43 -1z"/>
<path d="M5857 4674 c-224 -112 -405 -209 -402 -214 7 -11 825 395 825 410 0
5 -3 10 -7 9 -5 0 -192 -92 -416 -205z"/>
<path d="M4717 4829 c7 -7 15 -10 18 -7 3 3 -2 9 -12 12 -14 6 -15 5 -6 -5z"/>
<path d="M4757 4809 c7 -7 15 -10 18 -7 3 3 -2 9 -12 12 -14 6 -15 5 -6 -5z"/>
<path d="M9808 4792 c-57 -20 -71 -33 -62 -56 5 -14 14 -16 48 -11 65 10 72
14 84 41 23 50 10 54 -70 26z"/>
<path d="M10030 4729 l-21 -40 23 -49 c13 -27 27 -49 31 -50 4 0 19 8 33 17
22 14 25 21 19 52 -6 32 -48 111 -60 111 -2 0 -14 -18 -25 -41z"/>
<path d="M9798 4673 c-22 -5 -25 -53 -4 -53 12 0 46 40 46 55 0 6 -16 5 -42
-2z"/>
<path d="M9460 4645 c-13 -16 -6 -35 15 -35 16 0 38 34 28 44 -11 10 -30 7
-43 -9z"/>
<path d="M9952 4600 c-18 -24 -20 -34 -12 -50 10 -19 13 -19 40 -5 17 9 30 17
30 19 0 13 -23 66 -29 66 -4 0 -17 -14 -29 -30z"/>
<path d="M9273 4578 c-45 -71 -110 -219 -133 -298 -27 -97 -37 -249 -20 -321
17 -70 54 -144 93 -184 37 -38 116 -79 168 -89 35 -6 38 -4 67 41 35 54 37 50
-45 72 -102 28 -188 143 -199 266 -3 33 -13 75 -21 93 -14 32 -13 37 12 85 14
28 35 78 46 111 22 66 71 166 101 209 11 16 19 30 17 31 -8 6 -48 26 -53 26
-3 0 -18 -19 -33 -42z"/>
<path d="M5181 4596 c10 -9 69 -36 69 -32 0 6 -55 36 -66 36 -4 0 -5 -2 -3 -4z"/>
<path d="M9532 4588 c3 -7 13 -15 22 -16 12 -3 17 1 14 10 -3 7 -13 15 -22 16
-12 3 -17 -1 -14 -10z"/>
<path d="M9379 4527 c-38 -60 -81 -148 -76 -154 12 -11 51 26 74 72 14 28 34
62 44 77 24 33 24 48 2 48 -10 0 -30 -19 -44 -43z"/>
<path d="M9466 4500 c-30 -46 -31 -50 -10 -50 9 0 29 14 45 31 23 25 27 35 18
45 -17 21 -24 18 -53 -26z"/>
<path d="M9723 4520 c-30 -18 -44 -40 -25 -40 13 0 101 45 102 53 0 14 -45 7
-77 -13z"/>
<path d="M9875 4510 c-3 -5 -2 -10 4 -10 5 0 13 5 16 10 3 6 2 10 -4 10 -5 0
-13 -4 -16 -10z"/>
<path d="M10183 4488 c-12 -13 -33 -53 -46 -89 -14 -37 -33 -81 -42 -99 -12
-24 -14 -35 -6 -43 19 -19 55 37 95 145 20 54 36 100 36 103 0 12 -18 3 -37
-17z"/>
<path d="M5380 4496 c0 -2 7 -7 16 -10 8 -3 12 -2 9 4 -6 10 -25 14 -25 6z"/>
<path d="M9570 4490 c0 -5 7 -10 16 -10 8 0 12 5 9 10 -3 6 -10 10 -16 10 -5
0 -9 -4 -9 -10z"/>
<path d="M9625 4405 c-17 -44 -15 -86 7 -112 19 -23 26 -14 21 30 -3 26 1 57
10 79 8 20 13 39 9 42 -15 16 -32 2 -47 -39z"/>
<path d="M10047 4389 c-17 -10 -47 -59 -47 -77 0 -6 7 -12 15 -16 11 -4 22 9
40 44 33 65 32 72 -8 49z"/>
<path d="M9825 4329 c-4 -6 -5 -13 -2 -16 7 -7 27 6 27 18 0 12 -17 12 -25 -2z"/>
<path d="M9882 4290 c-15 -25 -15 -40 -1 -40 14 0 38 30 39 48 0 19 -24 14
-38 -8z"/>
<path d="M9498 4286 c-12 -9 -18 -26 -18 -52 l1 -39 24 30 c23 28 34 75 18 75
-5 0 -16 -7 -25 -14z"/>
<path d="M9945 4235 c-22 -27 -25 -39 -16 -48 9 -9 19 -4 43 21 30 29 31 33
16 48 -14 15 -18 13 -43 -21z"/>
<path d="M9388 4231 c-23 -13 -28 -23 -27 -51 1 -47 22 -123 34 -127 6 -2 20
16 31 39 17 37 18 50 9 95 -5 28 -12 53 -15 56 -3 2 -17 -3 -32 -12z"/>
<path d="M9655 4227 c-4 -10 -5 -21 -1 -24 10 -10 18 4 13 24 -4 17 -4 17 -12
0z"/>
<path d="M3569 4204 c-24 -15 -25 -21 -25 -106 l-1 -89 26 6 c46 12 51 22 51
116 0 96 -4 102 -51 73z"/>
<path d="M4208 4206 c-19 -14 -24 -28 -9 -23 12 3 11 7 9 -135 l-2 -123 -6
110 c-5 93 -6 99 -8 40 -1 -38 -5 -88 -9 -110 -7 -39 -7 -40 -13 -10 -6 37
-41 42 -46 8 -2 -13 1 -23 6 -23 6 0 10 5 10 10 0 6 5 10 10 10 6 0 10 -7 10
-15 0 -15 -7 -18 -41 -18 -9 0 -16 -6 -16 -13 0 -8 3 -14 7 -14 3 0 4 -22 0
-49 -4 -32 -2 -55 6 -65 8 -11 9 -29 4 -51 -10 -43 -2 -50 112 -104 l86 -41
56 25 c31 14 60 25 64 25 4 0 7 -24 7 -52 l0 -53 75 -39 c118 -60 116 -60 216
-11 48 24 91 49 95 57 14 21 11 176 -3 187 -7 6 -52 31 -100 55 l-87 44 -56
-30 c-30 -16 -60 -26 -65 -23 -6 3 -8 28 -6 56 2 35 0 49 -10 49 -7 0 -14 3
-16 8 -1 4 -37 23 -78 42 -41 19 -78 38 -81 43 -3 4 -24 -3 -47 -15 -33 -18
-40 -27 -36 -43 4 -11 3 -16 -2 -12 -5 5 -11 78 -14 162 -5 144 -6 153 -22
141z m149 -272 c-1 -1 -15 0 -30 3 -19 4 -25 8 -16 13 10 7 53 -9 46 -16z
m-36 -22 c-13 -2 -27 0 -32 5 -6 6 3 7 23 4 28 -4 29 -6 9 -9z m-146 -22 c-3
-5 -12 -7 -20 -3 -21 7 -19 13 6 13 11 0 18 -4 14 -10z m291 -15 c-11 -8 -27
-15 -35 -15 -10 1 -7 6 9 15 33 19 50 18 26 0z m-87 -21 c-14 -18 -24 -11 -15
11 3 9 11 13 16 10 8 -5 7 -11 -1 -21z m-44 -44 c-3 -5 -12 -7 -20 -3 -21 7
-19 13 6 13 11 0 18 -4 14 -10z m275 -34 c0 -2 -7 -6 -15 -10 -8 -3 -15 -1
-15 4 0 6 7 10 15 10 8 0 15 -2 15 -4z m90 -6 c0 -5 -7 -7 -15 -4 -8 4 -15 8
-15 10 0 2 7 4 15 4 8 0 15 -4 15 -10z m-50 -4 c0 -3 -4 -8 -10 -11 -5 -3 -10
-1 -10 4 0 6 5 11 10 11 6 0 10 -2 10 -4z m100 -16 c13 -8 13 -10 -2 -10 -9 0
-20 5 -23 10 -8 13 5 13 25 0z m-227 -7 c-7 -2 -19 -2 -25 0 -7 3 -2 5 12 5
14 0 19 -2 13 -5z m164 1 c-3 -3 -12 -4 -19 -1 -8 3 -5 6 6 6 11 1 17 -2 13
-5z m-100 -10 c-3 -3 -12 -4 -19 -1 -8 3 -5 6 6 6 11 1 17 -2 13 -5z m188 -14
c-52 -25 -68 -25 -30 0 17 11 39 20 50 20 13 -1 7 -7 -20 -20z m-215 -20 c0
-5 -2 -10 -4 -10 -3 0 -8 5 -11 10 -3 6 -1 10 4 10 6 0 11 -4 11 -10z m115
-30 c-16 -10 -31 -17 -34 -14 -7 6 32 33 49 34 8 0 2 -9 -15 -20z"/>
<path d="M10013 4177 c-23 -31 -29 -47 -22 -58 8 -11 16 -6 44 26 34 39 41 65
19 72 -6 2 -24 -16 -41 -40z"/>
<path d="M4165 4182 c-5 -5 -26 -15 -45 -23 -69 -27 -70 -29 -68 -192 1 -135
3 -147 20 -147 16 0 18 9 18 71 0 44 -4 68 -10 64 -6 -4 -9 15 -8 52 1 50 2
52 5 15 6 -68 23 -38 23 42 l0 72 35 16 35 16 2 -97 2 -96 3 88 c2 48 8 87 13
87 6 0 10 5 10 11 0 5 -4 8 -9 4 -5 -3 -11 2 -13 10 -2 10 -7 13 -13 7z m-85
-82 c0 -5 -5 -10 -11 -10 -5 0 -7 5 -4 10 3 6 8 10 11 10 2 0 4 -4 4 -10z m-3
-257 c-3 -10 -5 -2 -5 17 0 19 2 27 5 18 2 -10 2 -26 0 -35z"/>
<path d="M9272 4164 c-49 -34 -11 -194 66 -273 17 -18 23 -11 33 44 8 40 6 51
-16 83 -13 20 -29 65 -36 100 -7 34 -16 62 -19 62 -3 0 -16 -7 -28 -16z"/>
<path d="M10070 4108 c-115 -155 -306 -283 -474 -318 -49 -10 -56 -15 -85 -62
l-32 -51 52 7 c173 23 389 155 547 335 91 102 99 118 75 137 -28 21 -35 17
-83 -48z"/>
<path d="M9612 4135 c-16 -34 -15 -45 3 -45 14 0 35 37 35 61 0 19 -27 8 -38
-16z"/>
<path d="M9693 4049 c-21 -8 -59 -66 -50 -76 7 -6 107 38 107 47 0 19 -36 37
-57 29z"/>
<path d="M9555 4004 c-19 -45 -19 -44 4 -44 17 0 41 42 41 71 0 24 -32 4 -45
-27z"/>
<path d="M9750 3959 c-30 -16 -74 -35 -98 -41 -32 -8 -47 -18 -58 -40 -9 -17
-13 -32 -11 -35 16 -15 154 43 236 100 39 27 42 31 25 38 -29 12 -35 10 -94
-22z"/>
<path d="M9505 3880 c-17 -34 -19 -50 -5 -50 10 0 40 52 40 70 0 20 -20 9 -35
-20z"/>
<path d="M4050 3800 c0 -5 5 -10 10 -10 6 0 10 5 10 10 0 6 -4 10 -10 10 -5 0
-10 -4 -10 -10z"/>
<path d="M4080 3779 c0 -5 5 -7 10 -4 6 3 10 8 10 11 0 2 -4 4 -10 4 -5 0 -10
-5 -10 -11z"/>
<path d="M4045 3770 c-3 -5 1 -10 10 -10 9 0 13 5 10 10 -3 6 -8 10 -10 10 -2
0 -7 -4 -10 -10z"/>
<path d="M3731 3684 c0 -11 3 -14 6 -6 3 7 2 16 -1 19 -3 4 -6 -2 -5 -13z"/>
<path d="M3030 3676 c0 -10 -5 -13 -16 -9 -10 4 -20 0 -26 -10 -5 -10 -15 -17
-22 -17 -6 0 -24 -6 -39 -12 -21 -10 -27 -20 -27 -44 0 -27 6 -33 49 -54 47
-22 62 -22 105 -5 16 7 18 4 14 -23 -4 -29 -1 -32 53 -57 55 -24 60 -25 88
-10 40 20 41 20 34 -18 -5 -31 -3 -33 49 -55 58 -24 84 -27 93 -12 3 6 13 10
22 10 12 0 14 -7 9 -30 -4 -24 -2 -32 12 -37 9 -3 35 -14 56 -24 35 -16 42
-17 74 -4 34 15 34 15 29 -10 -3 -20 2 -30 24 -46 l29 -20 83 38 c124 58 124
58 105 77 -9 9 -25 16 -35 16 -10 0 -29 7 -42 16 -14 10 -26 13 -30 7 -3 -6
-16 -15 -29 -22 -22 -12 -23 -11 -17 21 6 31 3 34 -37 55 -74 38 -89 38 -132
-2 -21 -19 -42 -35 -47 -35 -17 0 -9 18 16 34 29 19 36 76 9 76 -9 0 -28 9
-42 21 -22 17 -35 19 -69 14 -41 -6 -43 -5 -43 20 0 19 -7 28 -27 36 -16 5
-42 17 -59 26 -24 12 -35 13 -52 4 -33 -17 -45 -14 -38 12 6 26 -12 45 -59 63
-17 6 -38 15 -47 19 -13 5 -18 3 -18 -9z m80 -40 c0 -2 -7 -7 -16 -10 -8 -3
-12 -2 -9 4 6 10 25 14 25 6z m33 -83 c-13 -2 -23 -9 -23 -14 0 -5 -5 -9 -11
-9 -8 0 -8 5 1 15 7 8 22 14 34 14 20 -2 20 -2 -1 -6z m147 -3 c0 -5 -8 -10
-17 -10 -15 0 -16 2 -3 10 19 12 20 12 20 0z m-53 -26 c-3 -3 -12 -4 -19 -1
-8 3 -5 6 6 6 11 1 17 -2 13 -5z m88 -54 c-10 -11 -30 -20 -44 -19 -25 0 -25
1 6 12 17 7 35 15 39 20 17 16 16 6 -1 -13z m299 -89 c3 -5 0 -11 -7 -14 -8
-3 -14 1 -14 9 0 16 13 19 21 5z m35 -85 c-2 -2 -15 -7 -29 -10 l-25 -7 25 15
c21 12 42 14 29 2z m141 -6 c-8 -5 -22 -10 -30 -10 -13 0 -13 1 0 10 8 5 22
10 30 10 13 0 13 -1 0 -10z m-68 -38 c-24 -12 -35 -13 -44 -4 -8 8 -6 10 9 6
12 -3 24 -1 27 5 4 6 15 11 24 10 10 0 4 -7 -16 -17z"/>
<path d="M2573 3643 c-7 -2 -13 -12 -13 -21 0 -14 -2 -14 -9 -3 -5 7 -14 10
-20 7 -6 -4 -9 -12 -5 -17 3 -6 -4 -7 -20 -3 -24 6 -26 4 -26 -29 0 -32 4 -37
50 -60 27 -13 47 -27 44 -30 -3 -2 11 -7 30 -9 20 -2 36 -1 36 3 0 4 17 13 38
20 48 15 62 27 62 53 0 16 -17 30 -73 59 -40 20 -75 37 -78 36 -2 0 -10 -3
-16 -6z m22 -73 c3 -5 2 -10 -4 -10 -5 0 -13 5 -16 10 -3 6 -2 10 4 10 5 0 13
-4 16 -10z m34 3 c-3 -20 2 -23 17 -9 8 9 23 16 32 15 14 0 14 -2 2 -6 -8 -3
-23 -13 -33 -21 -19 -17 -45 -3 -33 17 8 13 17 15 15 4z"/>
<path d="M5123 3428 l-133 -69 0 -89 c0 -57 4 -90 11 -90 6 0 48 19 94 43 66
33 84 46 82 61 -1 14 10 26 41 40 l42 21 0 77 c0 43 -1 77 -2 77 -2 -1 -63
-33 -135 -71z"/>
<path d="M2550 3370 c-85 -44 -161 -88 -167 -97 -7 -9 -12 -28 -12 -42 1 -14
3 -19 6 -11 2 8 83 56 181 105 137 70 176 95 174 108 -2 9 -9 17 -15 17 -7 -1
-82 -37 -167 -80z"/>
<path d="M2875 3430 c-3 -6 1 -7 9 -4 18 7 21 14 7 14 -6 0 -13 -4 -16 -10z"/>
<path d="M2830 3410 c-8 -5 -10 -10 -5 -10 6 0 17 5 25 10 8 5 11 10 5 10 -5
0 -17 -5 -25 -10z"/>
<path d="M4162 3357 c-46 -24 -80 -46 -76 -49 7 -7 -567 -298 -588 -298 -25 0
14 21 280 154 149 75 272 141 272 147 0 6 -7 6 -17 1 -413 -206 -574 -283
-585 -280 -7 3 114 69 269 146 242 122 314 162 289 162 -4 0 -137 -65 -296
-145 -159 -80 -294 -145 -300 -145 -24 0 -7 22 30 36 30 12 42 24 50 50 19 56
7 75 -14 22 l-18 -47 -202 -100 c-135 -66 -203 -105 -203 -115 0 -28 35 -17
187 59 82 41 152 75 155 75 4 0 5 -88 3 -195 -2 -162 -1 -194 11 -190 7 3 30
-5 50 -17 20 -13 147 -78 283 -145 l248 -123 287 144 288 144 3 -83 c3 -98 10
-107 86 -109 78 -1 86 10 86 110 0 74 -11 115 -22 82 -6 -16 -102 -15 -122 1
-9 8 -16 25 -16 40 0 15 -4 31 -10 37 -5 5 -11 82 -12 171 l-3 162 -277 -139
c-286 -143 -318 -157 -318 -143 0 5 126 71 280 148 239 119 302 155 275 155
-3 0 -136 -66 -296 -146 -160 -80 -294 -143 -297 -140 -3 3 -3 8 -1 10 2 3
121 63 264 135 250 125 313 160 289 161 -6 0 -141 -65 -300 -145 -159 -80
-290 -145 -291 -145 -2 0 -3 4 -3 10 0 5 123 71 273 146 149 75 274 138 276
140 2 2 2 7 -1 10 -3 3 -137 -60 -297 -140 -160 -80 -293 -146 -296 -146 -3 0
-5 4 -5 10 0 5 127 74 283 151 155 78 277 144 270 146 -6 2 -142 -62 -303
-142 -161 -80 -290 -141 -288 -134 2 6 126 73 276 148 243 122 312 161 289
161 -4 0 -138 -65 -298 -146 -160 -80 -298 -143 -308 -141 -9 2 111 67 267
145 155 78 282 147 282 152 0 6 -130 -55 -290 -135 -265 -133 -331 -162 -304
-136 17 18 583 299 589 293 6 -7 185 79 185 89 0 8 -206 109 -222 108 -7 0
-50 -19 -96 -42z m-32 -74 c0 -13 -589 -302 -595 -293 -6 9 558 298 583 299 6
1 12 -2 12 -6z m45 -22 c-8 -7 -548 -282 -589 -300 -5 -2 -7 2 -4 9 5 15 554
297 583 299 12 0 15 -3 10 -8z m40 -21 c-6 -10 -578 -300 -591 -300 -30 0 43
42 286 165 272 137 319 158 305 135z m45 -19 c0 -12 -591 -304 -599 -295 -3 4
-1 9 4 11 6 2 136 68 290 147 154 79 286 144 293 144 6 1 12 -2 12 -7z"/>
<path d="M1654 3367 c-28 -15 -30 -17 -17 -25 7 -4 -6 -7 -28 -7 -22 0 -43 -5
-47 -11 -4 -5 -22 -16 -39 -23 -39 -16 -41 -24 -10 -38 17 -8 30 -7 52 5 28
14 28 16 10 24 -17 7 -16 8 5 3 28 -5 142 43 137 59 -5 16 -43 24 -63 13z"/>
<path d="M5505 3261 l-130 -66 -3 -92 c-1 -51 0 -93 3 -93 9 0 247 119 261
131 15 12 21 175 7 181 -5 2 -66 -25 -138 -61z"/>
<path d="M1438 3263 c-10 -2 -18 -9 -18 -14 0 -5 -8 -9 -19 -9 -10 0 -25 -7
-32 -16 -11 -14 -10 -18 5 -29 22 -17 70 1 61 22 -3 10 1 13 14 8 10 -3 31 0
46 7 25 11 25 13 9 25 -18 13 -34 15 -66 6z"/>
<path d="M1291 3186 c-10 -12 -8 -17 9 -26 30 -16 86 5 69 26 -15 18 -63 18
-78 0z"/>
<path d="M1226 3155 c-21 -16 -21 -17 9 -33 14 -8 27 -6 48 5 l29 15 -27 14
c-33 17 -35 17 -59 -1z"/>
<path d="M5883 2738 c-68 -34 -122 -63 -120 -64 1 -2 61 -32 132 -67 l130 -65
127 65 c71 35 128 66 128 68 0 8 -241 125 -257 125 -10 -1 -73 -28 -140 -62z"/>
<path d="M258 2630 c2 -22 6 -40 8 -40 2 0 4 18 4 40 0 22 -3 40 -8 40 -4 0
-6 -18 -4 -40z"/>
<path d="M9375 2640 c-4 -6 -10 -8 -15 -5 -12 7 -33 -23 -27 -38 3 -8 20 -17
37 -20 57 -12 93 28 53 59 -22 16 -40 18 -48 4z m45 -20 c0 -5 -17 -10 -37 -9
-31 0 -34 2 -18 9 28 12 55 12 55 0z"/>
<path d="M284 2629 c-4 -8 1 -9 17 -5 20 6 21 5 7 -4 -10 -6 -18 -16 -18 -22
0 -6 9 -3 19 6 21 19 41 14 41 -10 0 -8 10 -14 24 -14 14 0 31 -7 40 -15 8 -8
21 -15 30 -15 8 0 18 -5 21 -10 4 -6 11 -8 16 -4 6 3 19 -3 30 -15 11 -12 30
-21 42 -21 18 0 15 5 -18 25 -22 13 -44 25 -50 25 -13 0 -116 53 -146 74 -27
19 -45 20 -55 5z"/>
<path d="M3258 2593 c7 -3 16 -2 19 1 4 3 -2 6 -13 5 -11 0 -14 -3 -6 -6z"/>
<path d="M270 2560 c14 -11 29 -20 34 -20 14 0 141 -64 144 -72 2 -5 8 -8 14
-8 10 0 157 -72 319 -157 42 -22 94 -47 115 -56 21 -10 57 -28 79 -42 43 -26
72 -33 41 -10 -17 13 -16 14 15 24 l34 9 -31 1 c-16 1 -35 -4 -40 -9 -7 -7
-19 -3 -38 15 -15 14 -37 25 -49 25 -12 0 -30 7 -40 14 -18 14 -18 15 0 25 16
9 15 10 -10 11 -16 0 -26 -4 -22 -10 10 -16 -10 -11 -36 8 -13 10 -49 31 -79
46 -38 19 -47 26 -27 23 15 -2 30 0 34 6 4 7 -9 8 -39 4 -37 -5 -50 -3 -68 13
-13 11 -29 20 -37 20 -7 0 -13 5 -13 10 0 5 -3 9 -7 8 -5 0 -16 2 -26 7 -15 6
-16 10 -5 17 9 7 4 8 -15 3 -20 -4 -36 0 -54 15 -14 11 -32 20 -39 20 -8 0
-14 5 -14 11 0 13 39 2 63 -19 9 -8 20 -12 25 -7 4 4 1 10 -6 12 -7 3 -18 10
-25 17 -20 20 -49 27 -62 16 -14 -12 -87 11 -111 35 -9 8 -23 15 -32 15 -13 0
-11 -5 8 -20z"/>
<path d="M1160 2550 c0 -5 5 -10 11 -10 5 0 7 5 4 10 -3 6 -8 10 -11 10 -2 0
-4 -4 -4 -10z"/>
<path d="M9340 2554 c-111 -17 -166 -41 -867 -392 -403 -202 -732 -371 -730
-377 2 -5 271 -145 597 -309 l595 -299 330 167 c181 92 503 254 715 360 505
254 533 278 435 372 -35 34 -137 89 -455 249 -455 228 -503 246 -620 229z
m-935 -514 c11 -18 -42 -35 -71 -22 -34 16 -21 32 26 32 21 0 42 -4 45 -10z
m869 -44 c21 -7 41 -19 45 -25 6 -9 14 -9 34 0 33 15 42 8 28 -19 -14 -26 -14
-52 -1 -52 6 0 10 8 10 18 0 14 2 15 10 2 5 -8 10 -24 10 -35 0 -11 7 -33 15
-49 9 -16 13 -31 10 -34 -3 -3 -5 1 -6 9 -1 8 -5 3 -9 -11 -7 -23 -8 -22 -9
10 -1 19 -6 42 -12 50 -8 11 -9 6 -6 -21 3 -20 2 -40 -1 -46 -4 -5 -40 -10
-80 -9 -41 1 -76 -4 -80 -10 -14 -20 -69 -35 -106 -29 -41 8 -49 25 -11 25 14
0 61 7 103 15 134 27 124 23 110 48 -7 12 -13 27 -13 32 0 11 -16 11 -87 0
-35 -6 -48 -4 -48 4 0 7 8 10 18 7 9 -3 33 -1 52 3 32 8 31 9 -23 10 -55 1
-96 -16 -80 -33 10 -9 89 -7 117 4 15 5 28 5 31 0 7 -11 -7 -15 -145 -40 -257
-47 -259 -47 -257 -36 1 6 -14 18 -33 28 -19 10 -35 21 -35 25 0 4 29 6 65 6
52 -1 73 3 107 23 37 21 58 25 166 29 68 3 141 5 163 5 36 1 38 2 20 15 -11 8
-29 15 -40 16 -21 0 -21 1 -1 9 16 7 17 9 3 9 -9 1 -19 -3 -22 -8 -3 -5 -18
-11 -33 -14 -21 -4 -33 1 -49 20 -14 16 -24 21 -28 14 -4 -6 0 -14 8 -17 9 -3
16 -13 16 -21 0 -11 -5 -13 -17 -8 -35 15 -63 17 -63 6 0 -6 5 -11 12 -11 6 0
9 -2 6 -5 -8 -8 -38 6 -38 17 0 5 15 15 33 23 19 8 40 21 47 30 8 9 24 14 39
12 14 -2 20 -2 14 0 -14 5 -18 23 -5 23 4 0 24 -6 46 -14z m-187 -92 c-3 -3
-12 -4 -19 -1 -8 3 -5 6 6 6 11 1 17 -2 13 -5z m-309 -76 c-2 -6 17 -22 40
-34 52 -26 54 -25 -106 -53 l-114 -21 -46 32 c-26 17 -48 32 -50 34 -2 1 7 14
19 28 22 25 26 26 141 26 86 0 117 -3 116 -12z m669 -60 c-3 -8 -6 -5 -6 6 -1
11 2 17 5 13 3 -3 4 -12 1 -19z m-117 -4 c0 -2 -21 -4 -47 -3 -37 1 -42 3 -23
8 24 7 70 3 70 -5z m30 -14 c0 -5 -4 -10 -10 -10 -5 0 -10 5 -10 10 0 6 5 10
10 10 6 0 10 -4 10 -10z m-63 -9 c28 -4 77 -4 107 -1 31 3 56 3 56 -1 0 -11
-99 -17 -182 -11 -43 2 -78 9 -78 13 0 10 25 10 97 0z m-832 -81 c4 -6 11 -8
16 -5 5 4 9 2 9 -4 0 -16 -42 -23 -70 -12 -18 7 -20 10 -7 10 9 1 17 6 17 11
0 13 27 13 35 0z"/>
<path d="M8348 2033 c6 -2 18 -2 25 0 6 3 1 5 -13 5 -14 0 -19 -2 -12 -5z"/>
<path d="M9330 1871 c0 -30 17 -34 22 -6 4 17 1 25 -8 25 -8 0 -14 -9 -14 -19z"/>
<path d="M9015 1860 c3 -5 28 -10 56 -10 27 0 49 5 49 10 0 6 -25 10 -56 10
-34 0 -53 -4 -49 -10z"/>
<path d="M9361 1853 c0 -13 -5 -23 -10 -23 -10 0 -9 -26 2 -36 10 -11 19 21
14 53 -3 22 -4 23 -6 6z"/>
<path d="M9150 1760 c-12 -8 -11 -10 8 -10 12 0 22 5 22 10 0 13 -11 13 -30 0z"/>
<path d="M8560 1815 c0 -19 94 -65 132 -65 47 0 32 25 -31 54 -66 29 -101 33
-101 11z"/>
<path d="M385 2540 c3 -5 8 -10 11 -10 2 0 4 5 4 10 0 6 -5 10 -11 10 -5 0 -7
-4 -4 -10z"/>
<path d="M6767 2539 c-11 -7 -37 -8 -63 -4 l-44 6 0 -70 c0 -80 9 -91 77 -91
55 0 63 13 63 97 0 75 -2 80 -33 62z"/>
<path d="M580 2485 c0 -5 44 -26 60 -29 3 -1 16 -9 30 -18 14 -9 35 -19 48
-23 12 -3 22 -11 22 -16 0 -5 10 -9 23 -9 22 1 22 1 2 16 -11 8 -31 18 -45 21
-14 3 -33 14 -43 24 -10 11 -26 19 -37 19 -10 0 -22 5 -25 10 -6 10 -35 14
-35 5z"/>
<path d="M605 2430 c39 -26 53 -26 30 0 -10 11 -28 20 -39 20 -18 0 -17 -3 9
-20z"/>
<path d="M4210 2357 c0 -97 6 -107 75 -115 31 -3 52 0 70 12 23 15 25 22 25
102 0 84 0 85 -22 77 -28 -10 -95 -9 -125 2 -23 7 -23 6 -23 -78z"/>
<path d="M6890 2357 c0 -85 9 -97 72 -97 55 0 66 16 70 95 2 65 1 70 -17 67
-38 -6 -80 -5 -102 3 -23 7 -23 6 -23 -68z"/>
<path d="M784 2379 c-3 -6 -15 -9 -25 -6 -11 3 -19 2 -19 -1 1 -12 69 -51 75
-43 2 5 -4 11 -15 14 -24 6 -26 23 -4 31 10 4 22 -1 29 -11 8 -10 16 -15 20
-12 8 9 -23 39 -40 39 -8 0 -17 -5 -21 -11z"/>
<path d="M6360 2339 c0 -18 8 -41 17 -51 15 -17 15 -19 -3 -33 -46 -34 34 -71
97 -45 28 12 29 14 29 87 0 73 0 74 -22 67 -13 -5 -34 -8 -48 -8 -14 0 -35 3
-47 8 -21 7 -23 4 -23 -25z"/>
<path d="M860 2345 c0 -8 71 -38 76 -32 3 3 -8 13 -25 21 -29 16 -51 20 -51
11z"/>
<path d="M970 2295 c16 -19 119 -69 127 -62 6 7 -51 37 -69 37 -8 0 -21 9 -31
20 -9 11 -22 20 -28 20 -8 0 -7 -5 1 -15z"/>
<path d="M886 2291 c-14 -5 -16 -10 -7 -15 15 -9 41 -1 41 14 0 11 -7 12 -34
1z"/>
<path d="M6835 2086 c-231 -117 -865 -437 -1410 -711 -544 -274 -1060 -534
-1145 -577 l-155 -78 3 -55 c2 -30 7 -55 12 -55 4 0 115 54 246 121 132 66
696 351 1254 632 558 281 1155 581 1325 667 l310 157 3 57 c2 41 0 56 -10 56
-7 -1 -202 -97 -433 -214z"/>
<path d="M940 2276 c0 -2 7 -9 15 -16 13 -11 14 -10 9 4 -5 14 -24 23 -24 12z"/>
<path d="M6715 2249 c-5 -8 -27 -10 -66 -6 l-59 5 0 -69 c0 -62 2 -70 25 -85
26 -17 89 -14 108 5 9 9 13 148 4 157 -3 3 -8 0 -12 -7z"/>
<path d="M1140 2210 c0 -12 108 -65 116 -57 7 7 -50 37 -71 37 -9 0 -18 7 -21
15 -7 17 -24 20 -24 5z"/>
<path d="M1058 2203 c7 -3 16 -2 19 1 4 3 -2 6 -13 5 -11 0 -14 -3 -6 -6z"/>
<path d="M1100 2203 c1 -16 30 -46 37 -38 5 4 2 10 -4 12 -7 3 -13 11 -13 19
0 8 -4 14 -10 14 -5 0 -10 -3 -10 -7z"/>
<path d="M1067 2162 c18 -9 54 -29 80 -43 26 -15 59 -30 73 -34 14 -4 33 -14
43 -23 25 -22 30 -9 7 16 -12 12 -31 22 -43 22 -12 1 -33 8 -47 16 -21 13 -22
15 -4 11 12 -3 21 1 21 9 0 7 -11 14 -24 17 -12 2 -23 0 -23 -4 0 -15 -21 -10
-47 11 -14 11 -35 20 -47 20 -17 -1 -16 -4 11 -18z"/>
<path d="M1297 2125 c10 -13 27 -25 38 -25 11 0 31 -7 43 -16 12 -8 28 -13 35
-11 12 5 -68 46 -90 47 -7 0 -13 4 -13 9 0 5 -7 12 -15 15 -13 5 -12 1 2 -19z"/>
<path d="M1340 2072 c-8 -3 -20 -11 -28 -18 -10 -11 1 -20 60 -48 81 -41 79
-40 76 -25 -2 6 3 14 11 17 8 2 11 0 8 -6 -11 -17 30 -21 75 -7 l43 12 -32 17
c-18 9 -39 16 -47 16 -8 0 -19 6 -23 14 -4 7 -19 17 -33 21 -24 7 -24 7 -5 -8
11 -9 16 -19 12 -23 -4 -5 -12 -2 -18 6 -7 11 -8 6 -3 -14 6 -26 5 -28 -12
-22 -10 5 -35 13 -54 18 -40 11 -63 28 -38 28 9 0 24 3 34 7 12 4 15 3 10 -5
-4 -7 -1 -12 8 -12 8 0 17 4 20 8 6 11 -45 30 -64 24z m169 -53 c39 -14 40
-29 3 -29 -27 0 -52 15 -52 32 0 11 11 10 49 -3z"/>
<path d="M10510 2059 c0 -6 9 -9 20 -6 11 3 20 2 20 -3 0 -12 -29 -20 -35 -10
-11 17 -35 11 -35 -9 0 -21 19 -31 55 -31 51 0 72 29 43 58 -15 15 -68 16 -68
1z"/>
<path d="M10640 1984 c-14 -8 -17 -13 -7 -10 16 5 17 -5 17 -123 0 -132 -8
-159 -42 -146 -10 4 -13 22 -10 75 5 76 -5 100 -42 100 -12 0 -86 -32 -164
-70 -79 -39 -147 -68 -151 -65 -21 12 -29 -131 -11 -166 6 -10 21 -19 34 -19
13 0 29 -7 36 -15 11 -13 16 -12 44 3 17 9 45 22 61 29 19 7 24 12 12 12 -11
1 -15 6 -11 13 4 7 3 8 -5 4 -6 -4 -9 -11 -6 -15 5 -9 -74 -35 -83 -27 -7 8
-8 7 66 44 35 18 70 32 77 32 7 0 15 3 17 8 7 17 115 60 129 51 11 -7 9 -9 -8
-9 -13 0 -23 -4 -23 -10 0 -5 -9 -10 -20 -10 -11 0 -20 -4 -20 -9 0 -5 -11
-12 -25 -15 -14 -4 -25 -11 -25 -16 0 -6 -9 -10 -19 -10 -11 0 -23 -4 -26 -10
-12 -19 15 -10 124 45 l111 55 0 145 c0 80 -1 145 -2 145 -2 -1 -14 -8 -28
-16z"/>
<path d="M1608 1979 c17 -18 15 -32 -4 -25 -12 5 -15 2 -10 -10 3 -8 6 -18 6
-20 0 -2 5 -4 10 -4 6 0 10 7 10 16 0 12 5 14 18 9 9 -4 27 -10 40 -12 24 -6
29 -18 10 -26 -9 -4 -8 -5 2 -6 8 0 24 4 35 8 18 7 17 9 -12 24 -18 10 -39 17
-47 17 -8 0 -19 6 -23 13 -4 8 -17 17 -28 21 -16 6 -18 5 -7 -5z"/>
<path d="M1530 1970 c-12 -8 -11 -10 8 -10 12 0 22 5 22 10 0 13 -11 13 -30 0z"/>
<path d="M1460 1967 c0 -8 240 -127 256 -127 8 0 14 -4 14 -8 0 -5 33 -24 73
-43 39 -19 74 -36 77 -39 15 -15 164 -80 183 -80 12 0 -16 17 -63 37 -94 40
-100 44 -83 50 8 3 10 15 6 36 -6 30 -5 31 13 17 10 -8 25 -21 32 -27 7 -7 22
-13 32 -13 10 0 22 -4 25 -10 3 -5 12 -10 18 -10 19 1 -36 40 -55 40 -9 0 -21
6 -25 13 -21 36 -71 20 -57 -18 6 -15 3 -16 -27 -10 -35 8 -92 34 -74 35 6 0
25 -4 43 -9 20 -6 32 -6 32 0 0 5 -10 10 -22 10 -13 1 -40 3 -61 4 -20 1 -45
9 -55 17 -9 9 -42 26 -72 38 -30 13 -61 30 -68 39 -7 9 -34 23 -60 32 -26 9
-55 19 -64 24 -10 4 -18 5 -18 2z"/>
<path d="M10580 1950 c0 -5 -7 -10 -15 -10 -23 0 -95 -41 -89 -51 5 -9 -9 -13
-33 -10 -7 1 -13 -3 -13 -9 0 -6 -6 -10 -12 -9 -16 3 -88 -32 -88 -43 0 -4 -7
-4 -17 -1 -11 4 -14 3 -9 -5 5 -8 0 -12 -13 -12 -12 0 -21 -4 -21 -10 0 -5 -8
-10 -17 -10 -20 -1 -245 -120 -226 -120 11 0 62 22 115 51 25 13 26 12 31 -18
3 -23 4 -21 6 10 1 41 17 50 24 15 3 -16 4 -14 2 5 -1 25 9 33 37 28 9 -1 108
58 126 76 17 16 36 17 26 1 -4 -7 -3 -8 5 -4 6 4 9 11 6 15 -2 5 15 14 38 21
23 6 47 16 53 21 5 4 29 11 52 13 57 8 71 -14 69 -105 -1 -38 1 -69 6 -69 14
0 7 144 -8 164 -12 15 -12 22 -3 27 22 14 0 21 -24 8 -12 -7 -36 -14 -53 -15
-16 -1 -23 0 -15 3 39 15 100 44 100 48 0 3 -9 5 -20 5 -11 0 -20 -4 -20 -10z"/>
<path d="M4463 1887 c-68 -34 -123 -64 -123 -68 0 -6 243 -129 254 -129 12 0
256 124 256 130 0 5 -252 131 -260 130 -3 -1 -60 -29 -127 -63z"/>
<path d="M1634 1901 c3 -5 14 -11 25 -14 14 -3 18 -1 14 9 -3 8 -14 14 -25 14
-10 0 -17 -4 -14 -9z"/>
<path d="M1695 1880 c3 -5 17 -10 31 -10 14 0 27 -7 30 -15 7 -17 24 -20 24
-4 0 6 -6 16 -12 23 -16 15 -82 21 -73 6z"/>
<path d="M1848 1850 c18 -11 36 -20 40 -20 14 1 -43 40 -58 40 -8 0 0 -9 18
-20z"/>
<path d="M3921 1721 l-175 -89 3 -63 c1 -35 4 -66 7 -68 2 -2 82 36 179 84
l175 88 0 69 c0 37 -3 68 -7 67 -5 0 -86 -40 -182 -88z"/>
<path d="M7642 1619 l3 -152 125 -64 c370 -191 1143 -574 1152 -571 6 2 10 52
9 135 -2 112 0 131 14 137 24 9 25 8 25 -11 0 -15 2 -16 10 -3 7 12 11 10 19
-10 5 -14 10 -18 10 -9 1 8 -5 21 -11 28 -11 10 -9 15 6 27 11 8 26 14 33 14
8 0 25 7 38 16 13 9 32 14 42 12 11 -2 -3 -12 -39 -28 l-58 -25 0 -78 c0 -74
1 -78 26 -87 20 -8 38 -4 89 20 35 17 68 30 74 30 5 0 11 4 13 9 4 10 134 71
151 71 7 0 -76 -44 -184 -98 -193 -97 -254 -132 -232 -132 6 0 18 7 27 15 8 8
18 15 23 15 6 0 404 197 463 230 8 5 47 23 85 41 39 17 72 35 75 39 3 4 15 10
28 14 12 4 22 11 22 16 0 13 -42 -1 -65 -20 -25 -22 -100 -60 -118 -60 -8 0
-26 -9 -40 -20 -30 -24 -38 -25 -31 -5 4 8 1 15 -5 15 -6 0 -11 -9 -11 -19 0
-21 -17 -37 -27 -27 -4 4 -1 12 5 18 16 16 16 130 0 146 -21 21 -58 13 -149
-33 -88 -45 -119 -56 -88 -32 9 7 18 16 20 22 2 5 10 8 18 7 8 -2 10 1 6 8 -5
9 -1 10 14 5 11 -3 26 -3 33 1 9 6 5 10 -12 14 -18 5 -45 -4 -94 -29 -38 -20
-96 -50 -130 -68 -63 -33 -95 -40 -111 -24 -6 5 -86 48 -180 97 -93 48 -222
115 -285 149 -63 34 -171 90 -240 124 -69 35 -130 67 -135 72 -15 12 -401 209
-409 209 -4 0 -5 -68 -4 -151z m1498 -423 c0 -2 -7 -7 -16 -10 -8 -3 -12 -2
-9 4 6 10 25 14 25 6z"/>
<path d="M1996 1735 c-3 -8 -1 -15 4 -15 6 0 10 7 10 15 0 8 -2 15 -4 15 -2 0
-6 -7 -10 -15z"/>
<path d="M2063 1733 c9 -2 23 -2 30 0 6 3 -1 5 -18 5 -16 0 -22 -2 -12 -5z"/>
<path d="M2040 1716 c0 -2 9 -6 20 -9 11 -3 20 -1 20 4 0 5 -9 9 -20 9 -11 0
-20 -2 -20 -4z"/>
<path d="M2110 1706 c0 -9 7 -12 20 -9 11 3 32 -2 46 -12 14 -9 28 -15 30 -12
7 7 -37 33 -68 41 -21 5 -28 3 -28 -8z"/>
<path d="M2145 1660 c-19 -8 -19 -9 2 -9 12 -1 25 4 28 9 7 12 -2 12 -30 0z"/>
<path d="M2225 1660 c-18 -8 -17 -9 7 -9 16 -1 32 -9 38 -20 6 -12 18 -18 29
-16 11 2 27 -3 38 -10 10 -8 23 -14 28 -14 6 -1 -1 8 -15 19 -14 11 -32 20
-41 20 -9 0 -26 9 -39 20 -13 11 -23 20 -24 19 -1 0 -10 -4 -21 -9z"/>
<path d="M2071 1656 c14 -15 132 -66 150 -66 12 0 19 -3 16 -7 -7 -6 32 -33
66 -46 32 -12 17 9 -19 26 -19 10 -32 22 -29 27 3 6 -3 10 -15 10 -11 0 -50
14 -87 30 -59 27 -94 38 -82 26z"/>
<path d="M10193 1644 c-3 -8 -1 -20 6 -27 8 -8 11 -4 11 16 0 30 -7 35 -17 11z"/>
<path d="M9921 1615 c-55 -28 -60 -32 -33 -31 16 0 28 5 25 9 -2 4 7 5 21 1
20 -5 26 -2 26 9 0 9 9 19 20 22 11 3 20 11 20 16 0 13 -8 11 -79 -26z"/>
<path d="M2205 1630 c27 -12 35 -12 35 0 0 6 -12 10 -27 9 -25 0 -26 -1 -8 -9z"/>
<path d="M10172 1605 c0 -16 2 -22 5 -12 2 9 2 23 0 30 -3 6 -5 -1 -5 -18z"/>
<path d="M2320 1580 c0 -5 -7 -7 -15 -4 -8 4 -15 4 -15 1 0 -13 30 -14 40 -1
9 10 9 14 1 14 -6 0 -11 -4 -11 -10z"/>
<path d="M9978 1583 c7 -3 16 -2 19 1 4 3 -2 6 -13 5 -11 0 -14 -3 -6 -6z"/>
<path d="M2420 1560 c11 -11 30 -20 42 -20 17 0 13 5 -17 20 -22 11 -41 20
-42 20 -2 0 6 -9 17 -20z"/>
<path d="M4900 1533 c1 -69 29 -88 130 -88 104 0 130 17 130 85 0 28 -4 50
-10 50 -5 0 -10 -4 -10 -9 0 -15 -60 -31 -120 -31 -42 0 -64 5 -83 20 -14 11
-28 20 -31 20 -3 0 -6 -21 -6 -47z"/>
<path d="M9778 1541 c-69 -33 -77 -39 -45 -37 14 0 24 3 22 6 -2 3 17 14 41
24 24 10 44 22 44 27 0 11 6 13 -62 -20z"/>
<path d="M2365 1550 c27 -12 35 -12 35 0 0 6 -12 10 -27 9 -25 0 -26 -1 -8 -9z"/>
<path d="M10245 1540 c-8 -13 15 -13 35 0 12 8 11 10 -7 10 -12 0 -25 -4 -28
-10z"/>
<path d="M2330 1532 c0 -12 24 -22 51 -22 24 0 25 15 2 16 -10 1 -26 4 -35 9
-11 4 -18 3 -18 -3z"/>
<path d="M9817 1526 c-17 -13 -17 -14 1 -18 12 -4 18 1 19 13 2 22 3 22 -20 5z"/>
<path d="M2500 1520 c0 -5 7 -10 15 -10 8 0 15 -5 15 -11 0 -5 4 -8 10 -4 5 3
21 -4 35 -17 24 -20 75 -36 75 -23 0 3 -13 11 -30 16 -16 6 -30 15 -30 19 0 5
-13 11 -30 15 -16 4 -30 11 -30 16 0 5 -7 9 -15 9 -8 0 -15 -4 -15 -10z"/>
<path d="M10250 1514 c-14 -7 -52 -26 -85 -40 -33 -15 -62 -31 -65 -35 -3 -5
-22 -15 -42 -24 -27 -11 -44 -12 -63 -5 -38 15 -50 13 -34 -6 7 -8 21 -13 31
-11 10 3 16 1 12 -4 -3 -5 -11 -9 -19 -9 -26 0 -65 -23 -65 -38 0 -13 3 -13
18 1 10 10 21 17 25 17 9 0 141 62 147 69 8 9 157 81 168 81 6 0 14 5 17 10 9
14 -15 11 -45 -6z"/>
<path d="M2390 1493 c0 -6 131 -63 146 -63 9 0 14 -3 11 -7 -4 -4 32 -26 80
-49 75 -37 90 -41 102 -29 12 12 11 16 -4 31 -17 17 -17 17 -11 -4 10 -31 -7
-29 -74 10 -8 5 -30 15 -47 23 -18 9 -33 22 -33 31 0 8 -4 13 -8 10 -10 -6
-68 14 -97 32 -19 13 -19 13 5 8 14 -3 31 -1 39 3 9 6 -10 8 -48 8 -33 -1 -61
-3 -61 -4z"/>
<path d="M10089 1491 c12 -8 13 -12 1 -26 -11 -13 -9 -13 18 2 17 10 30 18 29
19 -1 1 -15 4 -32 8 -21 4 -25 4 -16 -3z"/>
<path d="M9610 1455 c-55 -29 -61 -34 -37 -35 16 0 26 3 23 8 -2 4 16 16 40
26 24 10 44 22 44 27 0 11 5 14 -70 -26z"/>
<path d="M2525 1470 c28 -12 37 -12 30 0 -3 6 -16 10 -28 9 -21 0 -21 -1 -2
-9z"/>
<path d="M9640 1440 l-35 -19 36 2 c25 2 35 7 36 20 1 9 1 17 0 17 -1 -1 -18
-9 -37 -20z"/>
<path d="M2670 1440 c0 -5 7 -10 16 -10 14 0 14 -2 -1 -16 -9 -9 -25 -14 -35
-11 -11 3 -18 1 -14 -4 8 -13 38 -11 69 5 l27 14 -31 16 c-17 9 -31 12 -31 6z"/>
<path d="M9895 1430 c3 -5 8 -10 11 -10 2 0 4 5 4 10 0 6 -5 10 -11 10 -5 0
-7 -4 -4 -10z"/>
<path d="M2617 1423 c-3 -5 6 -9 19 -9 13 -1 24 2 24 7 0 11 -37 12 -43 2z"/>
<path d="M9920 1394 c0 -8 5 -12 10 -9 6 4 8 11 5 16 -9 14 -15 11 -15 -7z"/>
<path d="M2750 1386 c0 -11 9 -15 29 -13 32 2 29 11 -6 22 -17 5 -23 2 -23 -9z"/>
<path d="M9443 1371 l-51 -27 41 -1 c31 -1 37 1 22 7 -11 5 -14 9 -8 9 7 1 27
10 45 21 48 29 12 23 -49 -9z"/>
<path d="M4738 1383 c-21 -5 -23 -14 -6 -31 7 -7 8 -12 2 -12 -5 0 -15 5 -20
10 -13 13 -64 -7 -64 -24 0 -6 -14 -11 -30 -12 -40 -1 -49 -12 -26 -30 27 -19
42 -18 65 5 11 11 21 17 24 15 2 -3 35 11 72 29 63 32 66 36 47 46 -21 11 -34
12 -64 4z"/>
<path d="M2830 1360 c0 -6 7 -10 15 -10 8 0 15 2 15 4 0 2 -7 6 -15 10 -8 3
-15 1 -15 -4z"/>
<path d="M2790 1340 c-13 -8 -13 -10 2 -10 9 0 20 5 23 10 8 13 -5 13 -25 0z"/>
<path d="M2861 1340 c-7 -4 1 -7 18 -8 17 0 31 1 31 3 0 7 -39 12 -49 5z"/>
<path d="M2730 1332 c0 -14 106 -62 136 -62 24 1 20 4 -23 19 -29 11 -62 26
-75 35 -25 18 -38 20 -38 8z"/>
<path d="M9800 1331 c0 -5 10 -13 23 -17 20 -7 19 -8 -13 -17 -19 -5 -43 -17
-52 -27 -11 -12 -26 -16 -40 -13 -19 4 -20 3 -8 -7 13 -10 11 -11 -7 -7 -15 3
-20 1 -16 -9 7 -18 11 -18 58 11 22 13 66 36 98 51 39 18 55 30 48 37 -7 7
-18 7 -34 0 -15 -7 -29 -8 -40 -1 -11 6 -17 5 -17 -1z"/>
<path d="M2845 1310 c28 -12 37 -12 30 0 -3 6 -16 10 -28 9 -21 0 -21 -1 -2
-9z"/>
<path d="M2910 1306 c0 -10 9 -16 25 -16 14 0 25 5 25 10 0 6 -4 10 -9 10 -5
0 -16 3 -25 6 -11 4 -16 1 -16 -10z"/>
<path d="M9280 1284 c-40 -21 -54 -33 -37 -29 21 4 27 2 21 -6 -4 -8 -3 -9 5
-5 6 4 9 12 6 17 -6 9 12 13 50 11 12 0 15 1 6 5 -11 4 -8 10 10 24 38 29 10
21 -61 -17z"/>
<path d="M2975 1280 c3 -5 13 -10 20 -10 23 0 5 -29 -21 -36 -13 -4 -31 -1
-39 6 -8 6 -22 10 -31 8 -10 -2 155 -90 365 -196 211 -106 381 -187 379 -180
-3 7 -15 16 -29 20 -22 7 -22 7 4 4 20 -2 36 4 51 19 l23 23 -37 16 c-20 9
-42 16 -48 16 -5 0 -12 4 -14 9 -1 4 -13 12 -25 15 -17 6 -23 3 -23 -8 0 -9 8
-16 19 -16 10 0 34 -6 52 -14 28 -12 30 -15 13 -20 -11 -3 -8 -4 9 -2 22 3 25
1 16 -10 -17 -21 -50 -17 -56 6 -3 11 -12 20 -20 20 -12 0 -12 -2 1 -16 27
-26 18 -37 -13 -15 -15 11 -31 17 -35 14 -3 -4 -20 3 -36 15 -16 12 -36 22
-43 22 -8 0 -20 6 -26 14 -7 8 -25 18 -41 21 -15 3 -36 15 -46 26 -9 10 -26
19 -36 19 -11 0 -26 6 -33 13 -38 33 -47 38 -62 33 -10 -4 -14 -2 -10 8 4 10
1 13 -7 10 -8 -3 -17 -1 -21 5 -3 6 -15 11 -26 11 -11 0 -29 9 -41 20 -12 11
-31 20 -41 20 -11 0 -25 7 -31 16 -7 9 -28 19 -46 24 l-35 7 43 8 c23 4 42 11
42 16 0 5 8 9 18 10 9 0 3 6 -15 12 -17 7 -35 15 -39 20 -11 11 -36 9 -29 -3z"/>
<path d="M4535 1278 c-30 -16 -31 -18 -15 -29 11 -6 6 -7 -15 -3 -19 3 -38 0
-50 -9 -19 -15 -19 -15 6 -27 23 -10 34 -8 89 20 63 32 64 32 39 46 -29 16
-29 16 -54 2z"/>
<path d="M2935 1260 c3 -5 18 -10 33 -9 24 0 25 1 7 9 -28 12 -47 12 -40 0z"/>
<path d="M9423 1231 c-10 -15 -9 -22 1 -30 10 -8 13 -4 13 19 0 17 -1 30 -1
30 -1 0 -7 -9 -13 -19z"/>
<path d="M9600 1240 c0 -5 7 -7 15 -4 8 4 15 8 15 10 0 2 -7 4 -15 4 -8 0 -15
-4 -15 -10z"/>
<path d="M3070 1225 c0 -10 9 -14 26 -13 23 2 24 4 8 15 -23 17 -34 16 -34 -2z"/>
<path d="M4393 1210 c-13 -5 -23 -14 -23 -19 0 -15 57 -23 80 -11 21 11 21 12
3 25 -21 17 -30 17 -60 5z"/>
<path d="M3140 1200 c0 -5 7 -10 16 -10 8 0 12 5 9 10 -3 6 -10 10 -16 10 -5
0 -9 -4 -9 -10z"/>
<path d="M3097 1194 c-12 -12 4 -24 31 -23 17 1 21 3 10 6 -10 2 -18 9 -18 14
0 10 -14 12 -23 3z"/>
<path d="M3196 1179 c3 -5 -3 -9 -13 -9 -11 0 -28 -7 -39 -15 -18 -14 -17 -15
10 -9 19 5 31 2 37 -7 7 -11 9 -9 9 8 0 12 7 23 18 25 14 3 13 5 -6 10 -12 3
-20 2 -16 -3z"/>
<path d="M4315 1166 c-18 -13 -18 -14 4 -26 18 -9 29 -9 52 0 35 15 37 26 7
34 -33 9 -42 7 -63 -8z"/>
<path d="M9416 1172 c-4 -7 -5 -16 -1 -22 7 -11 35 -2 35 12 0 5 -4 7 -9 4 -5
-4 -11 -1 -13 6 -3 9 -6 9 -12 0z"/>
<path d="M9470 1170 c0 -5 9 -10 21 -10 11 0 17 5 14 10 -3 6 -13 10 -21 10
-8 0 -14 -4 -14 -10z"/>
<path d="M3230 1146 c0 -9 8 -16 18 -16 25 0 121 -39 97 -40 -11 0 -29 -7 -40
-16 -18 -13 -17 -14 15 -8 19 4 37 10 40 14 3 4 12 9 20 12 9 3 2 8 -17 12
-18 4 -35 12 -38 17 -4 5 -15 9 -25 9 -10 0 -20 4 -22 9 -1 4 -13 12 -25 15
-17 6 -23 3 -23 -8z"/>
<path d="M3255 1100 c3 -5 16 -10 28 -10 18 0 19 2 7 10 -20 13 -43 13 -35 0z"/>
<path d="M3390 1066 c0 -9 6 -16 13 -16 16 0 46 20 30 20 -6 0 -18 3 -27 6
-11 4 -16 1 -16 -10z"/>
<path d="M8970 1070 c-7 -14 -5 -59 3 -51 5 5 7 19 4 32 -2 13 -5 22 -7 19z"/>
<path d="M3426 1037 c-18 -13 -18 -15 5 -35 12 -12 32 -22 43 -21 17 0 16 2
-6 11 -32 11 -38 38 -8 38 11 0 20 5 20 10 0 14 -33 12 -54 -3z"/>
<path d="M3487 1023 c-17 -4 -17 -6 4 -21 16 -11 24 -12 27 -4 2 7 11 12 20
13 14 0 13 2 -3 9 -22 10 -23 10 -48 3z"/>
<path d="M8980 985 c-6 -8 -10 -19 -8 -26 2 -6 9 0 16 15 13 29 10 33 -8 11z"/>
<path d="M3505 960 c3 -5 11 -10 16 -10 6 0 7 5 4 10 -3 6 -11 10 -16 10 -6 0
-7 -4 -4 -10z"/>
<path d="M9000 950 c0 -5 5 -10 11 -10 5 0 7 5 4 10 -3 6 -8 10 -11 10 -2 0
-4 -4 -4 -10z"/>
<path d="M8961 906 c0 -12 3 -15 6 -8 2 6 15 12 28 12 13 0 27 4 30 10 3 5 -9
9 -30 8 -29 -1 -35 -5 -34 -22z"/>
<path d="M3704 909 c-8 -13 25 -24 37 -12 7 7 3 12 -10 16 -12 3 -24 1 -27 -4z"/>
<path d="M3760 886 c0 -9 8 -16 18 -16 14 0 15 -2 2 -10 -12 -8 -12 -10 5 -9
11 0 29 4 40 9 18 8 18 9 2 9 -10 1 -29 8 -42 17 -23 15 -25 15 -25 0z"/>
<path d="M3690 854 c0 -5 10 -16 23 -23 29 -19 393 -201 401 -201 3 0 6 5 6
10 0 6 -6 10 -14 10 -7 0 -16 9 -19 20 -3 11 -1 20 4 20 5 0 9 -4 9 -10 0 -5
5 -10 10 -10 6 0 10 7 10 15 0 8 -6 15 -14 15 -8 0 -23 3 -33 6 -15 5 -15 4
-3 -5 13 -9 13 -11 0 -11 -13 0 -13 -1 0 -10 8 -5 11 -12 8 -15 -10 -10 -49
20 -40 30 4 4 -3 6 -15 3 -17 -5 -22 0 -26 21 -3 14 -1 33 4 43 7 14 2 20 -28
33 -21 9 -57 25 -80 36 -34 15 -43 16 -43 5 0 -8 12 -17 28 -22 15 -4 29 -8
32 -10 3 -1 16 -5 29 -10 23 -7 24 -8 5 -16 -12 -5 -5 -6 21 -3 l40 6 -29 -19
c-27 -19 -28 -20 -7 -27 11 -3 21 -12 21 -20 0 -10 -9 -8 -36 6 -20 10 -42 20
-48 22 -6 2 -7 8 -3 13 4 5 12 2 17 -6 5 -8 12 -11 17 -7 10 11 -18 28 -37 22
-9 -3 -28 7 -45 22 -19 18 -27 22 -22 10 8 -21 -6 -22 -23 -2 -7 8 -20 15 -30
15 -10 0 -23 7 -30 15 -8 9 -8 15 -2 15 6 0 12 -4 14 -8 2 -5 14 -12 28 -15
19 -5 29 -1 38 13 11 18 10 19 -12 9 -17 -8 -29 -8 -44 0 -11 6 -28 8 -36 5
-9 -4 -23 -1 -31 6 -8 7 -15 8 -15 4z"/>
<path d="M4026 744 c-4 -10 3 -14 24 -14 16 0 32 -4 35 -10 3 -5 11 -10 17
-10 6 0 3 9 -6 19 -22 24 -63 33 -70 15z"/>
</g>
</svg>
